<svg xmlns="http://www.w3.org/2000/svg" width="15" height="15">
  <path d="M10.2 1c-.96 0-1.84.18-2.53.52-.69.35-1.25.9-1.25 1.65v2.16c0 .07.02.14.03.2a6.6 6.6 0 0 0-4.2.33C1.56 6.2 1 6.76 1 7.5v4.33c0 .74.56 1.3 1.25 1.65.69.34 1.57.52 2.54.52s1.85-.18 2.54-.52c.69-.35 1.25-.9 1.25-1.65v-.22a6.34 6.34 0 0 0 4.17-.3c.68-.34 1.25-.9 1.25-1.64v-6.5c0-.74-.56-1.3-1.25-1.65A5.75 5.75 0 0 0 10.2 1Zm0 1.08c.83 0 1.57.18 2.06.43.49.24.66.5.66.66 0 .15-.17.41-.66.66-.5.24-1.23.42-2.05.42-.83 0-1.56-.18-2.05-.42-.49-.25-.66-.5-.66-.66 0-.16.17-.42.66-.66a4.74 4.74 0 0 1 2.05-.43ZM7.5 4.71l.17.1c.69.34 1.57.52 2.54.52s1.85-.18 2.54-.52l.17-.1v.62c0 .16-.17.42-.66.66-.5.25-1.23.43-2.05.43-.83 0-1.56-.18-2.05-.43-.49-.24-.66-.5-.66-.66v-.62ZM4.8 6.4c.82 0 1.55.18 2.04.43s.66.5.66.66c0 .16-.17.41-.66.66-.49.25-1.22.42-2.05.42-.82 0-1.56-.17-2.05-.42-.49-.25-.66-.5-.66-.66 0-.16.17-.41.66-.66a4.74 4.74 0 0 1 2.05-.42Zm8.12.46v.63c0 .16-.17.41-.66.66-.5.25-1.23.42-2.05.42-.55 0-1.1-.08-1.63-.25V7.5c0-.07-.02-.14-.03-.2a6.6 6.6 0 0 0 4.2-.32l.17-.1ZM2.08 9.04l.17.1c.69.34 1.57.53 2.54.53s1.85-.19 2.54-.53l.17-.1v.63c0 .15-.17.41-.66.66-.49.24-1.22.42-2.05.42-.82 0-1.56-.18-2.05-.42-.49-.25-.66-.5-.66-.66v-.63Zm10.84 0v.63c0 .15-.17.41-.66.66-.5.24-1.23.42-2.05.42-.62 0-1.17-.09-1.63-.24V9.46c.5.13 1.04.2 1.63.2.97 0 1.85-.18 2.54-.52l.17-.1ZM2.08 11.21l.17.1c.69.34 1.57.52 2.54.52s1.85-.18 2.54-.52l.17-.1v.62c0 .16-.17.42-.66.66-.49.25-1.22.43-2.05.43-.82 0-1.56-.18-2.05-.43-.49-.24-.66-.5-.66-.66v-.62Z"/>
</svg>
