<svg xmlns="http://www.w3.org/2000/svg" width="29" height="29">
  <path fill-rule="evenodd" d="M9.02 1.29a93.8 93.8 0 0 1 5.48-.08c3.61 0 4.06.01 5.48.08 1.41.06 2.38.29 3.23.62.88.33 1.69.85 2.35 1.53a6.5 6.5 0 0 1 1.53 2.35c.33.85.56 1.82.62 3.23a94 94 0 0 1 .08 5.48c0 3.61-.01 4.06-.08 5.48a9.74 9.74 0 0 1-.62 3.23c-.33.88-.85 1.69-1.53 2.35a6.52 6.52 0 0 1-2.35 1.53c-.85.33-1.82.56-3.23.62-1.42.07-1.87.08-5.48.08-3.61 0-4.06-.01-5.48-.08a9.75 9.75 0 0 1-3.23-.62 6.52 6.52 0 0 1-2.35-1.53 6.51 6.51 0 0 1-1.53-2.35 9.81 9.81 0 0 1-.62-3.23 93.93 93.93 0 0 1-.08-5.48c0-3.61.01-4.06.08-5.48.06-1.41.29-2.38.62-3.23.33-.88.85-1.69 1.53-2.35A6.52 6.52 0 0 1 5.79 1.9a9.81 9.81 0 0 1 3.23-.62Zm10.85 2.4c-1.4-.07-1.82-.09-5.37-.09s-3.97.02-5.37.08c-1.3.06-2 .28-2.47.46-.62.24-1.06.53-1.53 1-.44.42-.78.94-1 1.52-.17.47-.4 1.17-.45 2.47-.06 1.4-.08 1.82-.08 5.37s.02 3.97.08 5.37c.06 1.3.28 2 .46 2.47.21.58.55 1.1 1 1.53.42.44.94.78 1.52 1 .47.17 1.17.39 2.47.45 1.4.06 1.82.08 5.37.08s3.97-.02 5.37-.08c1.3-.06 2-.28 2.47-.46a4.13 4.13 0 0 0 1.53-1c.44-.42.78-.94 1-1.52.17-.47.39-1.17.45-2.47.06-1.4.08-1.82.08-5.37s-.02-3.97-.08-5.37c-.06-1.3-.28-2-.46-2.47a4.13 4.13 0 0 0-1-1.53 4.12 4.12 0 0 0-1.52-1 7.35 7.35 0 0 0-2.47-.45Zm-7.07 14.9a4.43 4.43 0 1 0 3.4-8.18 4.43 4.43 0 0 0-3.4 8.19ZM9.67 9.68a6.83 6.83 0 1 1 9.66 9.66 6.83 6.83 0 0 1-9.66-9.66Zm13.18-.98a1.62 1.62 0 1 0-2.22-2.35 1.62 1.62 0 0 0 2.22 2.35Z" clip-rule="evenodd"/>
</svg>
