<svg xmlns="http://www.w3.org/2000/svg" width="15" height="15">
  <mask id="a" fill="#fff">
    <path d="M1.875 6.086a.469.469 0 0 0 .295.443l4.5 1.8 1.8 4.501a.469.469 0 0 0 .436.295h.008a.47.47 0 0 0 .433-.308l3.75-10.313a.47.47 0 0 0-.601-.601L2.183 5.653a.47.47 0 0 0-.308.433Z"/>
  </mask>
  <path d="M1.875 6.086h1a1 1 0 0 0-2-.017l1 .017Zm.295.443L2.54 5.6l-.371.929Zm4.5 1.8.929-.371a1 1 0 0 0-.557-.557l-.372.928Zm1.8 4.501.93-.37v-.001l-.93.371Zm.436.295v-1 1Zm.008 0v1h.016l-.016-1Zm.433-.308.94.341-.94-.341Zm3.75-10.313-.94-.344v.002l.94.342Zm-.601-.601.342.94-.342-.94ZM2.183 5.653l-.341-.94H1.84l.343.94Zm-.308.433h-1a1 1 0 0 0 2 .016l-1-.016Zm-1-.017c-.005.298.081.59.246.838L2.786 5.8c.06.09.09.195.089.303l-2-.033Zm.246.838c.165.248.401.44.678.55L2.541 5.6c.1.04.185.11.245.2L1.121 6.906Zm.677.55 4.5 1.8.744-1.856-4.5-1.8-.744 1.856Zm3.944 1.244 1.8 4.5L9.4 12.46 7.6 7.958 5.742 8.7Zm1.8 4.5c.11.273.297.507.54.671l1.122-1.656a.53.53 0 0 1 .195.243l-1.857.742Zm.54.671c.244.165.53.253.825.253l-.001-2c.106 0 .21.032.298.091l-1.121 1.657Zm.824.253h.008v-2h-.008v2Zm.024 0c.297-.005.586-.1.828-.272l-1.16-1.63a.53.53 0 0 1 .3-.098l.032 2Zm.828-.272c.243-.173.427-.415.529-.694l-1.88-.684a.531.531 0 0 1 .191-.251l1.16 1.629Zm.529-.695 3.75-10.312-1.88-.684-3.75 10.313 1.88.683Zm3.749-10.31c.096-.263.115-.548.055-.821l-1.953.43a.53.53 0 0 1 .02-.297l1.878.688Zm.055-.821a1.47 1.47 0 0 0-.395-.722L12.28 2.719a.532.532 0 0 1-.143-.262l1.953-.43Zm-.395-.722a1.47 1.47 0 0 0-.722-.396l-.432 1.953a.531.531 0 0 1-.261-.143l1.415-1.414Zm-.722-.396a1.469 1.469 0 0 0-.82.054l.685 1.88a.531.531 0 0 1-.297.019l.432-1.953Zm-.82.054L1.842 4.713l.683 1.88 10.313-3.75-.684-1.88ZM1.841 4.713a1.47 1.47 0 0 0-.694.529l1.63 1.16a.53.53 0 0 1-.251.19l-.685-1.879Zm-.694.529a1.47 1.47 0 0 0-.272.829l2 .03a.53.53 0 0 1-.098.3l-1.63-1.16Zm1.728.844h-2 2Z" mask="url(#a)"/>
</svg>
