<svg xmlns="http://www.w3.org/2000/svg" width="32" height="32">
  <path d="M22.05 27.43a2.4 2.4 0 0 0 1.71-.71l3.25-3.26a1.2 1.2 0 0 0 0-1.7l-4.8-4.8a1.2 1.2 0 0 0-1.69 0l-1.92 1.9a9.06 9.06 0 0 1-3.6-1.9 9.17 9.17 0 0 1-1.9-3.61l1.9-1.92a1.2 1.2 0 0 0 0-1.7l-4.8-4.8a1.2 1.2 0 0 0-1.7 0L5.28 8.18a2.4 2.4 0 0 0-.7 1.72c.1 4.62 1.94 9.03 5.15 12.35a18.32 18.32 0 0 0 12.33 5.17ZM9.36 7.48l3.1 3.12-1.54 1.55a1.2 1.2 0 0 0-.36 1.1c.45 2 1.4 3.86 2.76 5.4a12.09 12.09 0 0 0 5.4 2.77 1.2 1.2 0 0 0 1.1-.33l1.54-1.58 3.11 3.1-2.4 2.41c-3.98-.1-7.78-1.69-10.64-4.46A15.98 15.98 0 0 1 6.96 9.9l2.4-2.4Z"/>
</svg>
