<svg width="62" height="56" viewBox="0 0 62 56" fill="none" xmlns="http://www.w3.org/2000/svg">
<path d="M60.6773 12.1098C55.1771 -1.89005 11.1762 0.609672 1.67778 17.1097C-7.82059 33.6098 25.7575 30.2526 33.6777 40.6099C46.6778 57.6099 65.7474 25.0151 60.6773 12.1098Z" fill="#ECF6F4"/>
<path d="M14.2195 7L12.1075 9.22058L15.25 12.5278L17.359 10.3072L14.218 7H14.2195ZM41.782 7L38.6395 10.3072L40.75 12.5278L43.891 9.22216L41.7805 7H41.782ZM28 7.98552C27.505 7.99184 27.004 8.02185 26.5 8.0866C26.485 8.0866 26.47 8.08344 26.455 8.0866C20.371 8.82101 15.529 13.9966 14.6875 20.374C14.0155 25.507 16.0255 30.1614 19.375 33.159C20.7451 34.3902 21.6718 36.0796 22 37.9445V47.4206H25.42C25.942 48.3635 26.8945 49 28 49C29.1055 49 30.058 48.3635 30.58 47.4206H34V41.1032H34.141V39.2269C34.141 36.9116 35.284 34.5773 37.141 32.7626C39.625 30.144 41.5 26.4246 41.5 22.1524C41.5 14.3504 35.401 7.91287 28 7.98552ZM28 11.1442C33.7975 11.059 38.5 16.0561 38.5 22.1524C38.5 25.4596 37.045 28.3719 35.0305 30.4914L35.0785 30.542C33.0766 32.4857 31.7821 35.1045 31.4185 37.946H24.8575C24.5275 35.239 23.425 32.6188 21.3415 30.7394C18.691 28.3704 17.1115 24.801 17.6395 20.7705C18.295 15.7955 22.129 11.7949 26.827 11.2469C27.2149 11.19 27.6055 11.1562 27.997 11.1458L28 11.1442ZM7 22.1524V25.3111H11.5V22.1524H7ZM44.5 22.1524V25.3111H49V22.1524H44.5ZM15.25 34.9358L12.109 38.2414L14.2195 40.4635L17.3575 37.1564L15.25 34.9358ZM40.75 34.9358L38.641 37.1564L41.7805 40.4635L43.891 38.2414L40.75 34.9358ZM25 41.1048H31V44.2635H25V41.1048Z" fill="#5DD6DE"/>
</svg>
