<svg width="90" height="80" viewBox="0 0 90 80" fill="none" xmlns="http://www.w3.org/2000/svg">
<path d="M60.903 0.710564C42.4869 -5.07302 50.5438 26.1607 20.6172 32.5224C-9.30944 38.884 -2.20011 68.8293 13.9142 72.2999C30.0285 75.7705 59.378 65.3591 81.2478 62.4671C103.118 59.5751 79.3191 6.49415 60.903 0.710564Z" fill="#ECF6F4"/>
<path fill-rule="evenodd" clip-rule="evenodd" d="M57.7501 14.5V17.75C57.7501 17.7921 57.7501 17.8348 57.7502 17.878C57.7506 18.5276 57.7511 19.301 57.6616 19.9661C57.5537 20.769 57.2647 21.8797 56.3223 22.8221C55.3798 23.7646 54.2691 24.0536 53.4662 24.1615C52.8011 24.2509 52.0277 24.2505 51.3781 24.2501C51.3349 24.25 51.2922 24.25 51.2501 24.25H44.7501C44.708 24.25 44.6653 24.25 44.6221 24.2501C43.9725 24.2505 43.1991 24.2509 42.534 24.1615C41.7311 24.0536 40.6204 23.7646 39.678 22.8221C38.7355 21.8797 38.4465 20.769 38.3386 19.9661C38.2492 19.301 38.2496 18.5276 38.2501 17.878C38.2501 17.8348 38.2501 17.7921 38.2501 17.75V14.5H57.7501ZM51.2501 21C52.7822 21 53.5482 21 54.0242 20.524C54.5001 20.0481 54.5001 19.2821 54.5001 17.75H41.5001C41.5001 19.2821 41.5001 20.0481 41.9761 20.524C42.452 21 43.218 21 44.7501 21H51.2501ZM43.3877 17.7176C43.3877 17.7176 43.3895 17.7179 43.3929 17.7185L43.3877 17.7176ZM52.6125 17.7176C52.6125 17.7176 52.6108 17.7179 52.6073 17.7185L52.6125 17.7176Z" fill="#5DD6DE"/>
<path fill-rule="evenodd" clip-rule="evenodd" d="M54.5 17.75H41.5C38.344 17.75 36.3039 17.7569 34.8008 17.959C33.3911 18.1485 32.9493 18.4545 32.7019 18.7019C32.4545 18.9493 32.1485 19.3911 31.959 20.8008C31.7569 22.3039 31.75 24.344 31.75 27.5V66.5C31.75 69.656 31.7569 71.6961 31.959 73.1992C32.1485 74.6089 32.4545 75.0507 32.7019 75.2981C32.9493 75.5455 33.3911 75.8515 34.8008 76.041C36.3039 76.2431 38.344 76.25 41.5 76.25H54.5C57.656 76.25 59.6961 76.2431 61.1992 76.041C62.6089 75.8515 63.0507 75.5455 63.2981 75.2981C63.5455 75.0507 63.8515 74.6089 64.041 73.1992C64.2431 71.6961 64.25 69.656 64.25 66.5V27.5C64.25 24.344 64.2431 22.3039 64.041 20.8008C63.8515 19.3911 63.5455 18.9493 63.2981 18.7019C63.0507 18.4545 62.6089 18.1485 61.1992 17.959C59.6961 17.7569 57.656 17.75 54.5 17.75ZM30.4038 16.4038C28.5 18.3076 28.5 21.3717 28.5 27.5V66.5C28.5 72.6283 28.5 75.6924 30.4038 77.5962C32.3076 79.5 35.3717 79.5 41.5 79.5H54.5C60.6283 79.5 63.6924 79.5 65.5962 77.5962C67.5 75.6924 67.5 72.6283 67.5 66.5V27.5C67.5 21.3717 67.5 18.3076 65.5962 16.4038C63.6924 14.5 60.6283 14.5 54.5 14.5H41.5C35.3717 14.5 32.3076 14.5 30.4038 16.4038Z" fill="#5DD6DE"/>
<circle cx="48" cy="66.5" r="3.25" fill="#5DD6DE"/>
</svg>
