<svg width="88" height="74" viewBox="0 0 88 74" fill="none" xmlns="http://www.w3.org/2000/svg">
<path d="M88 39.9233C88 55.3873 72.5 64.9233 53.5 71.9233C34.5 78.9232 11 57.8872 11 42.4233C11 26.9593 27.5 45.9234 48.5 27.4233C69.5 8.92318 88 24.4594 88 39.9233Z" fill="#ECF6F4"/>
<path fill-rule="evenodd" clip-rule="evenodd" d="M4.35156 18.6877C4.35156 17.9153 4.97776 17.2891 5.75021 17.2891H63.2502C64.0227 17.2891 64.6489 17.9153 64.6489 18.6877V53.1877C64.6489 53.9602 64.0227 54.5864 63.2502 54.5864H5.75021C4.97776 54.5864 4.35156 53.9602 4.35156 53.1877V18.6877ZM7.14886 20.0864V51.7891H61.8516V20.0864H7.14886Z" fill="#5DD6DE"/>
<path fill-rule="evenodd" clip-rule="evenodd" d="M4.35156 18.6877C4.35156 17.9153 4.97776 17.2891 5.75021 17.2891H17.2502C17.6212 17.2891 17.9769 17.4364 18.2392 17.6987C18.5015 17.961 18.6489 18.3168 18.6489 18.6877C18.6489 22.1086 17.2899 25.3895 14.8709 27.8084C12.452 30.2274 9.17114 31.5864 5.75021 31.5864C5.37927 31.5864 5.02351 31.439 4.76122 31.1767C4.49892 30.9144 4.35156 30.5587 4.35156 30.1877V18.6877ZM7.14886 20.0864V28.6918C9.31112 28.3895 11.3314 27.392 12.8929 25.8304C14.4545 24.2689 15.452 22.2486 15.7543 20.0864H7.14886ZM50.3516 18.6877C50.3516 17.9153 50.9778 17.2891 51.7502 17.2891H63.2502C64.0227 17.2891 64.6489 17.9153 64.6489 18.6877V30.1877C64.6489 30.5587 64.5015 30.9144 64.2392 31.1767C63.9769 31.439 63.6212 31.5864 63.2502 31.5864C59.8293 31.5864 56.5485 30.2274 54.1295 27.8084C51.7105 25.3895 50.3516 22.1086 50.3516 18.6877ZM53.2461 20.0864C53.5484 22.2486 54.5459 24.2689 56.1075 25.8304C57.6691 27.392 59.6893 28.3895 61.8516 28.6918V20.0864H53.2461ZM4.76122 40.6987C5.02351 40.4364 5.37927 40.2891 5.75021 40.2891C9.17114 40.2891 12.452 41.648 14.8709 44.067C17.2899 46.486 18.6489 49.7668 18.6489 53.1877C18.6489 53.5587 18.5015 53.9144 18.2392 54.1767C17.9769 54.439 17.6212 54.5864 17.2502 54.5864H5.75021C4.97776 54.5864 4.35156 53.9602 4.35156 53.1877V41.6877C4.35156 41.3168 4.49892 40.961 4.76122 40.6987ZM7.14886 43.1836V51.7891H15.7543C15.452 49.6268 14.4545 47.6066 12.8929 46.045C11.3314 44.4834 9.31112 43.4859 7.14886 43.1836ZM61.8516 43.1836C59.6893 43.4859 57.6691 44.4834 56.1075 46.045C54.5459 47.6066 53.5484 49.6268 53.2461 51.7891H61.8516V43.1836ZM54.1295 44.067C56.5485 41.648 59.8293 40.2891 63.2502 40.2891C63.6212 40.2891 63.9769 40.4364 64.2392 40.6987C64.5015 40.961 64.6489 41.3168 64.6489 41.6877V53.1877C64.6489 53.9602 64.0227 54.5864 63.2502 54.5864H51.7502C50.9778 54.5864 50.3516 53.9602 50.3516 53.1877C50.3516 49.7668 51.7105 46.486 54.1295 44.067Z" fill="#5DD6DE"/>
<path fill-rule="evenodd" clip-rule="evenodd" d="M25.9141 35.9377C25.9141 30.6509 29.531 25.9141 34.5002 25.9141C39.4694 25.9141 43.0864 30.6509 43.0864 35.9377C43.0864 41.2246 39.4694 45.9614 34.5002 45.9614C29.531 45.9614 25.9141 41.2246 25.9141 35.9377ZM34.5002 28.7114C31.5316 28.7114 28.7114 31.6968 28.7114 35.9377C28.7114 40.1786 31.5316 43.1641 34.5002 43.1641C37.4689 43.1641 40.2891 40.1786 40.2891 35.9377C40.2891 31.6968 37.4689 28.7114 34.5002 28.7114Z" fill="#5DD6DE"/>
</svg>
