<svg width="88" height="85" viewBox="0 0 88 85" fill="none" xmlns="http://www.w3.org/2000/svg">
<path d="M76.258 63.1023C84.1444 46.8779 52.3514 39.9393 43.0644 34.9408C33.7773 29.9422 30.7096 16.7906 14.4294 23.8783C-1.85085 30.966 8.84048 82.6026 26.8043 73.3782C44.7682 64.1538 68.3717 79.3266 76.258 63.1023Z" fill="#ECF6F4"/>
<path d="M59.9138 36.0554C60.3551 35.6094 60.603 35.0045 60.603 34.3738C60.603 33.743 60.3551 33.1381 59.9138 32.6921C59.4725 32.2462 58.874 31.9956 58.25 31.9956C57.626 31.9956 57.0275 32.2462 56.5862 32.6921L44.15 45.2664L38.7638 39.8177C38.5453 39.5969 38.2859 39.4217 38.0004 39.3022C37.715 39.1827 37.409 39.1211 37.1 39.1211C36.791 39.1211 36.485 39.1827 36.1996 39.3022C35.9141 39.4217 35.6547 39.5969 35.4362 39.8177C35.2177 40.0385 35.0444 40.3007 34.9261 40.5892C34.8079 40.8778 34.747 41.187 34.747 41.4993C34.747 41.8116 34.8079 42.1209 34.9261 42.4094C35.0444 42.698 35.2177 42.9601 35.4362 43.181L42.4862 50.3065C42.7045 50.5277 42.9638 50.7032 43.2493 50.8229C43.5348 50.9427 43.8409 51.0043 44.15 51.0043C44.4591 51.0043 44.7652 50.9427 45.0507 50.8229C45.3362 50.7032 45.5955 50.5277 45.8138 50.3065L59.9138 36.0554ZM48.1638 13.6954C47.7231 13.2501 47.1255 13 46.5023 13C45.8792 13 45.2816 13.2501 44.8409 13.6954C38.9988 19.5906 32.541 22.4979 25.35 22.4979C24.7267 22.4979 24.129 22.7481 23.6883 23.1935C23.2476 23.639 23 24.2431 23 24.873V39.1289C23 54.4203 30.7127 64.8141 45.7574 69.878C46.2394 70.0407 46.7606 70.0407 47.2426 69.878C62.2826 64.8141 70 54.4203 70 39.1289V24.873C70 24.2431 69.7524 23.639 69.3117 23.1935C68.871 22.7481 68.2733 22.4979 67.65 22.4979C60.4543 22.4979 53.9965 19.6001 48.1685 13.6954H48.1638ZM27.7 27.1532C34.656 26.6212 40.9258 23.7044 46.5 18.6406C52.0695 23.7044 58.344 26.6212 65.3 27.1532V39.1241C65.3 45.9362 63.5939 51.3041 60.5013 55.4844C57.5027 59.5317 52.939 62.8142 46.5 65.1134C40.061 62.819 35.4973 59.5317 32.4987 55.4844C29.4061 51.3088 27.7 45.9409 27.7 39.1289V27.158V27.1532Z" fill="#5DD6DE"/>
</svg>
