<svg width="77" height="77" viewBox="0 0 77 77" fill="none" xmlns="http://www.w3.org/2000/svg">
<g clip-path="url(#clip0_474_6309)">
<path d="M74.258 55.1023C82.1444 38.8779 50.3514 31.9393 41.0644 26.9408C31.7773 21.9422 28.7096 8.79062 12.4294 15.8783C-3.85085 22.966 6.84048 74.6026 24.8043 65.3782C42.7682 56.1538 66.3717 71.3266 74.258 55.1023Z" fill="#ECF6F4"/>
<path d="M59.3688 27.3724C60.4188 25.9716 61 24.2553 61 22.4696C61 19.6365 59.4313 16.9548 56.9062 15.4593C56.2562 15.0744 55.5161 14.8718 54.7625 14.8725H39.775L40.15 7.11762C40.2375 5.24358 39.5813 3.46419 38.3063 2.10756C37.6805 1.43888 36.9256 0.906863 36.0882 0.544372C35.2508 0.181882 34.3486 -0.00337589 33.4375 4.65681e-05C30.1875 4.65681e-05 27.3125 2.20851 26.45 5.36978L21.0812 24.9936H13C11.8937 24.9936 11 25.8959 11 27.0128V49.9808C11 51.0977 11.8937 52 13 52H50.5812C51.1562 52 51.7188 51.8864 52.2375 51.6593C55.2125 50.3784 57.1312 47.4442 57.1312 44.1883C57.1312 43.3933 57.0187 42.6109 56.7938 41.8537C57.8438 40.4529 58.425 38.7366 58.425 36.9509C58.425 36.1558 58.3125 35.3734 58.0875 34.6162C59.1375 33.2154 59.7188 31.4991 59.7188 29.7134C59.7062 28.9184 59.5938 28.1296 59.3688 27.3724ZM15.5 47.4569V29.5367H20.5625V47.4569H15.5ZM55.275 25.1829L53.9062 26.3818L54.775 27.9845C55.0612 28.5124 55.2096 29.1053 55.2062 29.7071C55.2062 30.7482 54.7563 31.7389 53.9813 32.4204L52.6125 33.6192L53.4813 35.222C53.7675 35.7499 53.9159 36.3427 53.9125 36.9446C53.9125 37.9857 53.4625 38.9764 52.6875 39.6578L51.3187 40.8567L52.1875 42.4594C52.4737 42.9874 52.6221 43.5802 52.6188 44.182C52.6188 45.5954 51.7938 46.87 50.5187 47.4506H24.5625V29.3348L30.7812 6.58759C30.9416 6.00456 31.2858 5.49018 31.7618 5.12241C32.2377 4.75463 32.8194 4.5535 33.4188 4.54949C33.8938 4.54949 34.3625 4.68831 34.7375 4.97225C35.3562 5.43919 35.6875 6.1459 35.65 6.89678L35.05 19.4156H54.7C55.8125 20.1034 56.5 21.2644 56.5 22.4696C56.5 23.5108 56.05 24.4951 55.275 25.1829Z" fill="#5DD6DE"/>
</g>
<defs>
<clipPath id="clip0_474_6309">
<rect width="77" height="77" fill="white"/>
</clipPath>
</defs>
</svg>
