<svg width="406" height="364" viewBox="0 0 406 364" fill="none" xmlns="http://www.w3.org/2000/svg">
<path d="M103.54 14.2065C6.36332 40.3902 -4.07227 192.598 86.4138 263.996C113.69 285.523 149.629 319.175 188.042 329.987C279.51 355.741 329.808 326.397 372.507 285.627C412.09 247.83 397.408 149.67 285.61 143.095C203.891 138.296 190.589 -9.25793 103.54 14.2065Z" fill="#F9F9F9"/>
<path d="M180.905 180.834L169.863 56.0479L110.814 61.3422L121.856 186.128L180.905 180.834Z" fill="#FBB400"/>
<path d="M147.193 135.704C155.615 134.777 161.697 127.153 160.776 118.674C159.855 110.196 152.28 104.074 143.857 105.001C135.435 105.928 129.353 113.553 130.274 122.031C131.195 130.51 138.77 136.631 147.193 135.704Z" stroke="white" stroke-width="3.07" stroke-linecap="round" stroke-linejoin="round"/>
<path d="M166.14 74.3984L174.047 163.739" stroke="white" stroke-width="2.94" stroke-linecap="round" stroke-linejoin="round"/>
<path d="M118.11 78.7021L126.015 168.046" stroke="white" stroke-width="2.94" stroke-linecap="round" stroke-linejoin="round"/>
<path d="M151.808 64.4893L130.116 66.4327" stroke="white" stroke-width="2.94" stroke-linecap="round" stroke-linejoin="round"/>
<path d="M161.703 176.351L140.014 178.296" stroke="white" stroke-width="2.94" stroke-linecap="round" stroke-linejoin="round"/>
<path d="M165.991 74.2719C165.991 74.2719 153.519 76.67 152.11 64.5625" stroke="white" stroke-width="2.94" stroke-linecap="round" stroke-linejoin="round"/>
<path d="M173.933 164.045C173.933 164.045 161.236 163.905 161.968 176.071" stroke="white" stroke-width="2.94" stroke-linecap="round" stroke-linejoin="round"/>
<path d="M118.163 78.5601C118.163 78.5601 130.86 78.6998 130.131 66.5312" stroke="white" stroke-width="2.94" stroke-linecap="round" stroke-linejoin="round"/>
<path d="M126.105 168.333C126.105 168.333 138.578 165.935 139.986 178.042" stroke="white" stroke-width="2.94" stroke-linecap="round" stroke-linejoin="round"/>
<path d="M166.592 187.68L109.953 76.124L57.1646 103.28L113.803 214.836L166.592 187.68Z" fill="#FCD960"/>
<path d="M122.135 155.825C128.126 149.794 128.126 140.016 122.135 133.985C116.143 127.954 106.43 127.954 100.438 133.985C94.4468 140.016 94.4468 149.794 100.438 155.825C106.43 161.856 116.143 161.856 122.135 155.825Z" stroke="white" stroke-width="3.07" stroke-linecap="round" stroke-linejoin="round"/>
<path d="M113.32 94.5371L153.864 174.412" stroke="white" stroke-width="2.94" stroke-linecap="round" stroke-linejoin="round"/>
<path d="M70.3789 116.623L110.925 196.496" stroke="white" stroke-width="2.94" stroke-linecap="round" stroke-linejoin="round"/>
<path d="M96.3431 90.7461L76.9531 100.72" stroke="white" stroke-width="2.94" stroke-linecap="round" stroke-linejoin="round"/>
<path d="M147.108 190.755L127.716 200.729" stroke="white" stroke-width="2.94" stroke-linecap="round" stroke-linejoin="round"/>
<path d="M113.134 94.476C113.134 94.476 102.461 101.399 96.6562 90.7061" stroke="white" stroke-width="2.94" stroke-linecap="round" stroke-linejoin="round"/>
<path d="M153.875 174.734C153.875 174.734 142.049 179.386 147.248 190.388" stroke="white" stroke-width="2.94" stroke-linecap="round" stroke-linejoin="round"/>
<path d="M70.374 116.463C70.374 116.463 82.2028 111.811 77.0014 100.804" stroke="white" stroke-width="2.94" stroke-linecap="round" stroke-linejoin="round"/>
<path d="M111.114 196.74C111.114 196.74 121.79 189.819 127.604 200.512" stroke="white" stroke-width="2.94" stroke-linecap="round" stroke-linejoin="round"/>
<path d="M195.657 343.618C253.17 343.618 299.792 338.411 299.792 331.988C299.792 325.565 253.17 320.358 195.657 320.358C138.145 320.358 91.5225 325.565 91.5225 331.988C91.5225 338.411 138.145 343.618 195.657 343.618Z" fill="#E8E8E8"/>
<path d="M269.091 333.774H120.548C116.816 333.773 113.236 332.28 110.597 329.623C107.958 326.967 106.476 323.363 106.476 319.606V113.427C106.475 111.567 106.839 109.725 107.546 108.006C108.253 106.287 109.29 104.725 110.597 103.41C111.903 102.094 113.455 101.051 115.162 100.339C116.87 99.6276 118.7 99.2614 120.548 99.2617H269.091C272.823 99.2624 276.401 100.755 279.04 103.412C281.678 106.068 283.161 109.671 283.161 113.427V319.606C283.161 323.363 281.679 326.966 279.04 329.623C276.402 332.279 272.823 333.773 269.091 333.774Z" fill="#43B2B5"/>
<path d="M267.362 112.357H126.853V319.255H267.362V112.357Z" fill="#9DE4E9"/>
<path d="M259.256 118.411H118.746V319.723H259.256V118.411Z" fill="#ECF6F4"/>
<path d="M214.797 110.064H208.046C208.04 108.291 207.337 106.593 206.089 105.34C204.841 104.086 203.15 103.38 201.385 103.374H175.987C174.222 103.379 172.53 104.085 171.282 105.339C170.034 106.593 169.331 108.291 169.326 110.064H162.586C160.821 110.07 159.13 110.776 157.882 112.03C156.634 113.283 155.93 114.982 155.925 116.754C155.93 118.527 156.634 120.225 157.882 121.479C159.13 122.732 160.821 123.439 162.586 123.444H214.797C216.562 123.439 218.253 122.732 219.501 121.479C220.749 120.225 221.453 118.527 221.458 116.754C221.453 114.982 220.749 113.283 219.501 112.03C218.253 110.776 216.562 110.07 214.797 110.064Z" fill="#232735"/>
<path d="M248.298 240.765H133.719C132.849 240.765 132.015 240.417 131.399 239.798C130.784 239.179 130.438 238.339 130.438 237.463C130.438 236.587 130.784 235.747 131.399 235.127C132.015 234.508 132.849 234.16 133.719 234.16H248.298C249.168 234.16 250.002 234.508 250.617 235.127C251.233 235.747 251.578 236.587 251.578 237.463C251.578 238.339 251.233 239.179 250.617 239.798C250.002 240.417 249.168 240.765 248.298 240.765Z" fill="#9DE4E9"/>
<path d="M250.461 144.458H130.567V225.162H250.461V144.458Z" fill="#9DE4E9"/>
<path d="M151.872 164.476H143.559C143.075 164.476 142.595 164.38 142.148 164.194C141.7 164.007 141.294 163.733 140.951 163.388C140.609 163.043 140.337 162.634 140.152 162.183C139.967 161.733 139.872 161.25 139.872 160.762C139.872 159.778 140.261 158.834 140.952 158.138C141.644 157.442 142.581 157.051 143.559 157.051H151.872C152.357 157.05 152.837 157.146 153.284 157.333C153.732 157.519 154.139 157.792 154.481 158.137C154.824 158.482 155.096 158.891 155.281 159.341C155.467 159.792 155.562 160.275 155.562 160.762C155.562 161.25 155.467 161.733 155.282 162.184C155.097 162.635 154.825 163.044 154.482 163.389C154.14 163.734 153.733 164.008 153.285 164.194C152.837 164.381 152.357 164.477 151.872 164.476Z" fill="white"/>
<path d="M236.976 164.477H172.779C172.295 164.477 171.815 164.382 171.368 164.196C170.92 164.01 170.513 163.737 170.17 163.393C169.828 163.049 169.555 162.64 169.37 162.19C169.184 161.74 169.088 161.258 169.087 160.77C169.087 160.282 169.182 159.8 169.368 159.349C169.553 158.899 169.825 158.489 170.168 158.145C170.51 157.8 170.917 157.527 171.365 157.34C171.812 157.154 172.292 157.058 172.777 157.059H236.976C237.954 157.059 238.892 157.45 239.584 158.146C240.276 158.841 240.665 159.786 240.665 160.77C240.663 161.754 240.274 162.697 239.582 163.391C238.89 164.086 237.953 164.477 236.976 164.477Z" fill="white"/>
<path d="M151.872 186.461H143.559C142.581 186.461 141.643 186.069 140.952 185.373C140.26 184.676 139.872 183.732 139.872 182.747C139.872 181.763 140.26 180.818 140.952 180.122C141.643 179.425 142.581 179.034 143.559 179.033H151.872C152.851 179.033 153.79 179.425 154.481 180.121C155.173 180.818 155.562 181.762 155.562 182.747C155.562 183.732 155.173 184.677 154.481 185.373C153.79 186.07 152.851 186.461 151.872 186.461Z" fill="white"/>
<path d="M236.976 186.461H172.779C172.294 186.462 171.814 186.366 171.366 186.179C170.918 185.993 170.511 185.719 170.169 185.374C169.826 185.029 169.554 184.62 169.368 184.169C169.182 183.718 169.087 183.235 169.087 182.747C169.087 181.762 169.476 180.818 170.168 180.121C170.86 179.425 171.798 179.033 172.777 179.033H236.976C237.954 179.034 238.892 179.425 239.584 180.122C240.276 180.818 240.665 181.762 240.665 182.747C240.665 183.732 240.276 184.676 239.584 185.373C238.892 186.069 237.954 186.461 236.976 186.461Z" fill="white"/>
<path d="M151.872 202.956H143.562C141.524 202.956 139.872 204.618 139.872 206.669C139.872 208.719 141.524 210.382 143.562 210.382H151.872C153.91 210.382 155.562 208.719 155.562 206.669C155.562 204.618 153.91 202.956 151.872 202.956Z" fill="white"/>
<path d="M207.287 202.956H172.78C170.742 202.956 169.09 204.618 169.09 206.669C169.09 208.719 170.742 210.382 172.78 210.382H207.287C209.325 210.382 210.976 208.719 210.976 206.669C210.976 204.618 209.325 202.956 207.287 202.956Z" fill="white"/>
<path fill-rule="evenodd" clip-rule="evenodd" d="M100.168 340.582C100.168 342.764 86.9692 344.535 70.6885 344.535C54.4078 344.535 41.2061 342.757 41.2061 340.582C41.2061 338.408 54.4052 336.632 70.6885 336.632C86.9717 336.632 100.168 338.4 100.168 340.582Z" fill="#E8E8E8"/>
<path fill-rule="evenodd" clip-rule="evenodd" d="M77.9023 335.877C77.9023 335.877 74.2909 307.915 79.2551 296.331L79.8583 258.431L93.0751 263.257L82.0842 336.116L77.9023 335.877Z" fill="#E3633D"/>
<path fill-rule="evenodd" clip-rule="evenodd" d="M82.1522 334.885L85.9227 337.547C86.6798 338.205 90.6295 339.483 90.6295 339.483C91.061 340.301 90.3266 340.73 89.6881 340.837L78.195 340.583C78.195 340.583 75.5148 340.029 77.5918 334.877C79.7294 335.819 81.6954 336.485 82.1522 334.885Z" fill="#232735"/>
<path fill-rule="evenodd" clip-rule="evenodd" d="M94.1116 263.372L89.213 298.026L85.5233 330.365H74.8125C74.8125 330.365 75.7488 324.522 75.504 322.68C75.2592 320.839 73.8358 303.277 77.4826 295.201L75.4056 262.303L94.1116 263.372Z" fill="#9DE4E9"/>
<path fill-rule="evenodd" clip-rule="evenodd" d="M77.3869 295.193L75.3124 262.303L81.6773 262.653L82.1821 282.085C82.4647 286.574 82.3991 292.836 81.5385 297.271C79.835 306.033 78.3409 323.008 78.0532 324.494C77.0816 329.491 81.0489 330.358 81.0489 330.358H74.7168C74.7168 330.358 75.6556 324.515 75.4108 322.673C75.166 320.831 73.7426 303.269 77.3869 295.193Z" fill="#9DE4E9"/>
<path fill-rule="evenodd" clip-rule="evenodd" d="M52.2383 335.098C52.2383 335.098 52.3014 305.202 59.3048 292.599L65.8665 251.358L78.9597 256.599L56.0441 335.878L52.2383 335.098Z" fill="#E3633D"/>
<path fill-rule="evenodd" clip-rule="evenodd" d="M80.3269 256.713L69.4748 294.441L60.5534 329.62H49.3252C49.3252 329.62 51.2205 323.269 51.2508 321.26C51.2811 319.25 52.5405 300.147 57.6208 291.359L60.5912 255.575L80.3269 256.713Z" fill="#9DE4E9"/>
<path fill-rule="evenodd" clip-rule="evenodd" d="M56.1922 335.484C56.5309 336.889 56.7346 338.323 56.8004 339.767C56.7879 339.954 56.7326 340.136 56.639 340.298C56.5453 340.46 56.4157 340.599 56.2603 340.702C55.9224 340.965 55.5036 341.101 55.0767 341.086L52.6186 340.951C52.2764 340.946 51.947 340.82 51.6873 340.595L51.2179 340.156C50.438 339.424 50.756 338.632 51.1649 337.524C51.4515 336.718 51.6883 335.895 51.874 335.06C53.9864 333.754 56.1922 335.484 56.1922 335.484Z" fill="#232735"/>
<path fill-rule="evenodd" clip-rule="evenodd" d="M60.4149 209.099C60.459 208.773 60.4344 208.442 60.3426 208.126C60.2509 207.81 60.094 207.518 59.8824 207.267C56.546 203.045 63.0119 199.692 64.8794 198.188C66.8278 196.618 64.3242 193.201 68.5515 191.583C72.7788 189.965 74.2678 192.165 74.4697 192.091C74.765 191.979 74.1164 196.293 74.1164 196.293C74.1164 196.293 72.0065 197.078 72.2261 201.391C72.4456 205.705 73.6722 207.897 71.1686 211.401C68.6651 214.904 57.9795 210.969 57.9795 210.969C59.7234 210.867 60.2736 209.927 60.4149 209.099Z" fill="#663A24"/>
<path d="M102.099 224.704C108.825 222.212 111.276 220.939 117.974 218.279L120.111 221.452C107.465 228.819 108.338 231.705 102.117 231.853C97.7206 226.879 100.676 225.629 102.099 224.704Z" fill="#C95836"/>
<path fill-rule="evenodd" clip-rule="evenodd" d="M84.7061 206.703C84.7061 206.703 107.067 224.773 105.55 227.766L104.916 229.104C104.725 229.511 104.443 229.869 104.094 230.15C103.744 230.431 103.336 230.628 102.899 230.726C102.462 230.824 102.009 230.82 101.574 230.715C101.139 230.611 100.734 230.407 100.389 230.121L89.3901 220.975L87.2096 219.245L84.7061 206.703Z" fill="#C95836"/>
<path fill-rule="evenodd" clip-rule="evenodd" d="M66.7269 236.35L91.712 238.265C95.7727 239.766 94.1499 263.341 94.1499 263.341L77.7279 264.104C70.0986 263.944 61.0711 269.967 60.1273 257.171C59.0319 242.548 66.7269 236.35 66.7269 236.35Z" fill="#9DE4E9"/>
<path fill-rule="evenodd" clip-rule="evenodd" d="M60.4131 258.896C60.4131 258.896 76.4617 260.491 81.865 253.164L60.6251 249.885C60.6251 249.885 59.4062 256.342 60.4131 258.896Z" fill="#9DE4E9"/>
<path fill-rule="evenodd" clip-rule="evenodd" d="M84.5145 206.393L75.3407 205.311L72.817 205.412L63.257 208.766C61.7034 209.539 60.4886 210.864 59.8458 212.484C59.203 214.105 59.1775 215.907 59.7742 217.545L62.1137 228.558C62.9087 238.227 61.1042 245.665 58.7773 251.236C72.3299 256.317 90.9602 256.063 95.238 249.796C94.5288 232.691 91.1041 217.41 84.5145 206.393Z" fill="white"/>
<path fill-rule="evenodd" clip-rule="evenodd" d="M79.8585 200.471C79.8585 200.471 79.3765 204.106 78.9903 207.114C78.9395 207.506 78.7863 207.877 78.5464 208.189C78.3065 208.501 77.9886 208.744 77.625 208.892C77.262 209.04 76.8663 209.086 76.4795 209.026C76.0926 208.966 75.729 208.802 75.4268 208.552L74.8387 208.072C74.4225 207.727 74.1111 207.272 73.9402 206.757C73.7693 206.243 73.7457 205.69 73.8721 205.163L75.7094 197.369L79.8509 200.471H79.8585Z" fill="#C95836"/>
<path fill-rule="evenodd" clip-rule="evenodd" d="M79.7598 202.471L79.3081 204.627L77.5137 202.471H79.7598Z" fill="#873B24"/>
<path d="M80.3479 205.934C80.3479 205.934 83.3511 213.423 78.2456 213.753C73.1401 214.083 70.3438 206.297 70.3438 206.297L74.0738 204.628L80.3479 205.934Z" fill="#C95836"/>
<path fill-rule="evenodd" clip-rule="evenodd" d="M73.8792 196.569C73.7141 196.083 73.747 195.55 73.9706 195.088C74.1943 194.626 74.5906 194.272 75.0729 194.103L78.5506 192.909C79.5601 192.566 80.4864 193.178 80.9785 194.131C81.5589 195.254 82.2025 197.779 82.4498 199.669C82.5912 200.733 82.1243 201.92 81.1223 202.265C80.0573 202.631 76.514 202.694 75.5549 200.858C74.8231 199.46 74.3814 198.063 73.8792 196.569Z" fill="#C95836"/>
<path fill-rule="evenodd" clip-rule="evenodd" d="M70.8887 201.549C70.8887 201.549 70.9164 196.034 72.2237 194.24C73.9904 191.829 76.6226 190.221 80.1508 192.317C80.1508 192.317 78.9016 196.788 72.2263 201.381L70.8887 201.549Z" fill="#663A24"/>
<path fill-rule="evenodd" clip-rule="evenodd" d="M74.1213 200.995C74.6639 201.683 75.5598 201.874 76.1201 201.416C76.6804 200.959 76.693 200.032 76.1479 199.343C75.6027 198.655 74.7093 198.464 74.1516 198.919C73.5938 199.374 73.5787 200.296 74.1213 200.995Z" fill="#C95836"/>
<path fill-rule="evenodd" clip-rule="evenodd" d="M81.7861 199.044L80.0371 199.605C80.0371 199.605 80.451 200.81 81.2586 200.439C82.0662 200.068 81.7861 199.044 81.7861 199.044Z" fill="white"/>
<path fill-rule="evenodd" clip-rule="evenodd" d="M74.3519 191.725C74.3522 191.725 74.3525 191.725 74.3263 192.151L74.3525 191.725C74.5951 191.741 74.7795 191.951 74.7645 192.195C74.7496 192.438 74.5425 192.623 74.3014 192.61C74.3003 192.61 74.2974 192.609 74.2926 192.609C74.2828 192.609 74.2654 192.609 74.2414 192.61C74.1933 192.612 74.1195 192.618 74.0275 192.633C73.8431 192.664 73.5909 192.734 73.3262 192.89C72.8166 193.19 72.184 193.853 71.9646 195.388C71.93 195.63 71.7069 195.798 71.4663 195.763C71.2258 195.729 71.0588 195.504 71.0934 195.262C71.3459 193.495 72.1115 192.579 72.882 192.126C73.2574 191.905 73.6158 191.805 73.8819 191.76C74.0153 191.737 74.1268 191.728 74.2076 191.725C74.2481 191.724 74.2811 191.723 74.3056 191.724C74.3178 191.724 74.3279 191.724 74.3358 191.725L74.3459 191.725L74.3496 191.725L74.3512 191.725L74.3519 191.725Z" fill="#8B939C"/>
<path fill-rule="evenodd" clip-rule="evenodd" d="M84.5049 206.394C84.5049 206.394 87.0286 207.013 91.4831 211.02C97.1337 216.083 105.593 224.885 106.295 226.699C106.997 228.513 97.6789 229.323 97.6789 229.323L87.657 220.62L84.5049 206.394Z" fill="white"/>
<path fill-rule="evenodd" clip-rule="evenodd" d="M87.766 215.389C88.1128 215.344 88.4306 215.59 88.4759 215.938L88.6773 217.489L91.8942 224.238C92.0454 224.555 91.9124 224.936 91.5971 225.088C91.2818 225.24 90.9036 225.106 90.7524 224.789L87.4917 217.948C87.4627 217.887 87.4435 217.822 87.4348 217.755L87.2203 216.104C87.1749 215.755 87.4193 215.435 87.766 215.389Z" fill="#8B939C"/>
<path d="M117.734 221.237L121.411 221.999C122.147 222.152 122.912 222.034 123.569 221.666L126.226 220.183C126.442 220.064 126.625 219.894 126.761 219.688C126.897 219.482 126.981 219.246 127.006 219C127.031 218.754 126.996 218.505 126.904 218.276C126.812 218.046 126.666 217.843 126.479 217.683L121.792 216.987C120.694 216.847 119.581 217.1 118.65 217.703L117.002 218.719L117.734 221.237Z" fill="#C95836"/>
<path d="M97.6787 229.333C97.6787 229.333 101.477 234.777 105.967 233.068C110.456 231.358 117.927 224.517 117.927 224.517L112.667 218.75L102.05 224.123L97.6787 229.333Z" fill="white"/>
<path d="M61.0161 210.542C61.0161 210.542 68.2971 215.846 66.2403 221.212C66.2403 221.212 58.0103 242.98 56.0595 246.192C53.4474 250.49 51.9382 241.365 51.9382 241.365L42.0703 234.338L49.5457 236.624L49.8889 224.629L61.0161 210.542Z" fill="white"/>
<path d="M50.2489 248.459L65.6135 249.13C66.4009 249.165 66.8325 248.566 66.5751 247.801L58.4991 223.85C58.3463 223.455 58.088 223.11 57.7527 222.853C57.4173 222.596 57.0179 222.437 56.5987 222.395L41.2391 221.724C40.4517 221.691 40.0202 222.288 40.2776 223.053L48.3536 247.006C48.5049 247.401 48.7621 247.746 49.0968 248.003C49.4315 248.259 49.8303 248.417 50.2489 248.459Z" fill="#232735"/>
<path d="M45.0375 239.187L42.6475 237.069C42.1652 236.637 41.8527 236.046 41.7667 235.402L41.3857 232.758C41.3527 232.55 41.3692 232.337 41.4336 232.137C41.4981 231.937 41.6087 231.755 41.7565 231.607C41.9042 231.458 42.0849 231.347 42.2836 231.282C42.4824 231.217 42.6936 231.2 42.8999 231.233L45.7492 234.079C46.4129 234.768 46.8195 235.667 46.9 236.624L46.9657 237.308C46.994 237.601 46.9288 237.896 46.7795 238.149C46.6302 238.403 46.4046 238.602 46.1353 238.717L45.0375 239.187Z" fill="#C95836"/>
<path fill-rule="evenodd" clip-rule="evenodd" d="M64.4851 218.145C64.8337 218.173 65.0937 218.48 65.0659 218.83L64.2507 229.106C64.2229 229.457 63.9177 229.719 63.5692 229.691C63.2206 229.663 62.9605 229.356 62.9884 229.005L63.8035 218.729C63.8314 218.378 64.1365 218.117 64.4851 218.145Z" fill="#8B939C"/>
<path d="M141.938 300.232C140.712 300.286 139.505 299.923 138.508 299.203C137.512 298.482 136.785 297.446 136.444 296.26L129.565 272.347C129.164 270.946 129.331 269.441 130.029 268.163C130.728 266.885 131.901 265.938 133.292 265.529L236.996 235.316C238.389 234.91 239.886 235.078 241.156 235.783C242.426 236.487 243.366 237.671 243.77 239.073L250.652 262.989C251.053 264.391 250.886 265.896 250.186 267.174C249.486 268.453 248.312 269.399 246.92 269.807L143.218 300.02C142.801 300.141 142.371 300.212 141.938 300.232ZM238.371 237.192C238.103 237.204 237.837 237.249 237.579 237.325L133.878 267.538C133.017 267.791 132.291 268.376 131.858 269.166C131.424 269.956 131.319 270.886 131.564 271.754L138.442 295.667C138.566 296.098 138.772 296.5 139.05 296.85C139.328 297.2 139.671 297.492 140.061 297.708C140.451 297.924 140.88 298.061 141.322 298.111C141.765 298.16 142.212 298.121 142.64 297.996L246.348 267.786C247.211 267.534 247.939 266.946 248.373 266.154C248.807 265.361 248.91 264.427 248.661 263.558L241.782 239.645C241.568 238.911 241.116 238.27 240.498 237.826C239.879 237.381 239.131 237.158 238.371 237.192Z" fill="#88AD40"/>
<path d="M150.696 285.47C149.652 285.791 148.696 285.9 147.828 285.795C146.965 285.688 146.2 285.413 145.531 284.97C144.867 284.524 144.304 283.953 143.841 283.257C143.383 282.56 143.035 281.781 142.795 280.921C142.461 279.719 142.387 278.559 142.574 277.442C142.76 276.32 143.22 275.336 143.957 274.491C144.697 273.639 145.726 273.01 147.046 272.604C148.051 272.295 148.978 272.189 149.826 272.288C150.675 272.386 151.436 272.653 152.108 273.089C152.781 273.525 153.353 274.094 153.823 274.794C154.294 275.494 154.653 276.291 154.902 277.186C155.244 278.417 155.319 279.589 155.124 280.702C154.93 281.815 154.464 282.791 153.727 283.63C152.987 284.462 151.977 285.076 150.696 285.47ZM150.09 283.453C150.708 283.263 151.212 282.982 151.6 282.61C151.986 282.232 152.271 281.792 152.455 281.287C152.642 280.776 152.734 280.233 152.731 279.661C152.733 279.086 152.653 278.508 152.492 277.928C152.319 277.306 152.078 276.753 151.769 276.268C151.461 275.783 151.096 275.387 150.675 275.082C150.258 274.768 149.793 274.571 149.279 274.49C148.769 274.401 148.221 274.446 147.636 274.627C147.034 274.812 146.536 275.091 146.142 275.465C145.749 275.838 145.454 276.278 145.26 276.786C145.071 277.292 144.973 277.836 144.967 278.418C144.96 278.994 145.038 279.578 145.203 280.171C145.368 280.763 145.598 281.301 145.894 281.784C146.191 282.266 146.548 282.667 146.966 282.986C147.385 283.305 147.855 283.51 148.378 283.601C148.901 283.693 149.472 283.643 150.09 283.453Z" fill="#88AD40"/>
<path d="M166.102 280.076C165.913 279.397 165.732 278.743 165.557 278.116C165.381 277.483 165.186 276.78 164.971 276.007L164.014 272.566C163.793 271.77 163.592 271.049 163.413 270.405C163.234 269.76 163.424 270.688 163.234 270.002L159.412 271.23C158.914 268.921 159.269 270.57 159.584 272.028C159.752 272.802 159.918 273.574 160.084 274.342C160.286 275.283 160.425 276.107 160.502 276.815C160.579 277.523 160.581 278.165 160.508 278.743C160.438 279.313 160.291 279.872 160.066 280.42L157.789 280.866C157.996 280.468 158.148 279.989 158.244 279.43C158.34 278.871 158.361 278.19 158.305 277.387C158.254 276.577 158.105 275.61 157.859 274.488C157.68 273.673 157.506 272.875 157.337 272.095C157.174 271.313 157.014 270.564 156.857 269.85L165.073 267.321C165.264 268.006 165.448 268.672 165.628 269.316C165.807 269.961 166.007 270.681 166.229 271.477L167.29 275.293C167.505 276.066 167.7 276.769 167.876 277.402C168.051 278.029 168.233 278.683 168.422 279.362L166.102 280.076ZM158.111 285.837C158.004 285.453 157.898 285.07 157.791 284.687C157.684 284.303 157.578 283.92 157.471 283.537C157.361 283.142 157.25 282.741 157.137 282.334C157.024 281.928 156.912 281.527 156.802 281.132C157.537 280.906 158.277 280.678 159.022 280.449C159.773 280.217 160.502 279.993 161.209 279.776L165.068 278.588C165.78 278.369 166.509 278.144 167.255 277.915C168.006 277.684 168.746 277.456 169.474 277.232C169.584 277.627 169.696 278.028 169.809 278.434C169.922 278.841 170.033 279.242 170.143 279.637C170.25 280.02 170.356 280.403 170.463 280.787C170.57 281.17 170.676 281.553 170.783 281.937L168.836 282.536L167.858 279.536L168.404 279.784L159.012 282.675L159.344 282.156L160.065 285.235L158.111 285.837Z" fill="#88AD40"/>
<path d="M177.274 277.291C176.23 277.612 175.275 277.72 174.406 277.615C173.543 277.509 172.778 277.234 172.109 276.79C171.445 276.345 170.882 275.774 170.419 275.078C169.961 274.38 169.613 273.601 169.373 272.742C169.039 271.539 168.965 270.38 169.152 269.263C169.338 268.14 169.798 267.156 170.535 266.312C171.275 265.46 172.305 264.831 173.624 264.424C174.629 264.115 175.556 264.01 176.404 264.108C177.253 264.206 178.014 264.473 178.686 264.91C179.359 265.346 179.931 265.914 180.401 266.614C180.872 267.314 181.231 268.112 181.48 269.006C181.822 270.238 181.897 271.41 181.703 272.523C181.508 273.635 181.043 274.611 180.305 275.45C179.565 276.283 178.555 276.896 177.274 277.291ZM176.668 275.273C177.287 275.083 177.79 274.802 178.178 274.43C178.565 274.053 178.85 273.612 179.033 273.108C179.22 272.596 179.312 272.054 179.309 271.481C179.311 270.907 179.231 270.329 179.07 269.748C178.897 269.126 178.656 268.573 178.347 268.088C178.039 267.603 177.674 267.208 177.253 266.902C176.837 266.589 176.371 266.391 175.857 266.31C175.347 266.221 174.799 266.267 174.214 266.447C173.612 266.632 173.114 266.911 172.72 267.285C172.327 267.658 172.033 268.099 171.838 268.606C171.649 269.112 171.552 269.656 171.546 270.238C171.538 270.814 171.616 271.399 171.781 271.991C171.946 272.584 172.176 273.121 172.473 273.604C172.769 274.087 173.126 274.487 173.544 274.806C173.963 275.125 174.433 275.33 174.956 275.422C175.479 275.513 176.05 275.464 176.668 275.273Z" fill="#88AD40"/>
<path d="M189.644 273.247C188.761 273.519 187.957 273.766 187.234 273.989C186.516 274.21 185.837 274.419 185.197 274.616C185.009 273.942 184.827 273.289 184.651 272.656C184.475 272.022 184.28 271.32 184.065 270.547L182.897 266.347C182.75 265.819 182.614 265.328 182.488 264.875C182.36 264.416 182.236 263.969 182.115 263.533C181.993 263.097 181.869 262.65 181.741 262.191L189.784 259.716L190.372 261.833C189.787 262.014 189.163 262.206 188.501 262.409C187.843 262.612 187.062 262.852 186.157 263.131L183.307 264.008L184.131 261.862C184.322 262.548 184.507 263.213 184.686 263.858C184.866 264.502 185.067 265.226 185.29 266.027L186.242 269.451C186.366 269.899 186.486 270.328 186.601 270.741C186.715 271.153 186.83 271.566 186.945 271.978L188.684 271.443C189.186 271.288 189.598 271.098 189.919 270.874C190.239 270.643 190.452 270.353 190.559 270.005C190.671 269.655 190.657 269.228 190.517 268.722C190.409 268.333 190.256 268.043 190.059 267.851C189.866 267.652 189.648 267.527 189.406 267.475C189.162 267.418 188.918 267.404 188.675 267.435C188.432 267.466 188.211 267.512 188.012 267.573L185.61 268.312L185.089 266.439C185.421 266.337 185.796 266.221 186.216 266.092C186.635 265.963 187.11 265.817 187.64 265.654C188.579 265.365 189.395 265.249 190.089 265.307C190.78 265.359 191.36 265.612 191.828 266.067C192.297 266.522 192.66 267.214 192.918 268.144C193.124 268.882 193.167 269.578 193.049 270.232C192.932 270.886 192.603 271.47 192.062 271.983C191.521 272.496 190.715 272.917 189.644 273.247Z" fill="#88AD40"/>
<path d="M195.825 271.345C195.637 270.671 195.455 270.018 195.279 269.385C195.103 268.752 194.908 268.049 194.693 267.276L193.523 263.068C193.303 262.278 193.104 261.56 192.924 260.916C192.745 260.271 192.56 259.606 192.369 258.92C192.839 258.776 193.46 258.585 194.233 258.347C195.011 258.107 195.906 257.832 196.916 257.521C197.855 257.232 198.671 257.117 199.364 257.174C200.058 257.232 200.639 257.491 201.109 257.952C201.577 258.407 201.94 259.096 202.197 260.02C202.418 260.816 202.476 261.564 202.371 262.265C202.265 262.959 201.951 263.576 201.43 264.115C200.906 264.648 200.123 265.075 199.079 265.396C198.814 265.478 198.525 265.567 198.21 265.664C197.901 265.759 197.597 265.853 197.299 265.944C197.006 266.035 196.755 266.112 196.545 266.176L196.01 264.251L198.039 263.626C198.591 263.456 199.024 263.244 199.337 262.991C199.65 262.737 199.846 262.43 199.926 262.071C200.01 261.705 199.983 261.272 199.844 260.772C199.731 260.366 199.579 260.059 199.39 259.853C199.199 259.64 198.986 259.501 198.752 259.434C198.518 259.368 198.275 259.348 198.025 259.374C197.775 259.401 197.534 259.45 197.302 259.521L194.08 260.513L194.759 258.591C194.95 259.277 195.136 259.945 195.317 260.595C195.496 261.24 195.696 261.958 195.915 262.748L196.979 266.573C197.194 267.345 197.389 268.048 197.565 268.681C197.741 269.314 197.923 269.968 198.11 270.642L195.825 271.345Z" fill="#88AD40"/>
<path d="M206.453 268.074C206.265 267.4 206.083 266.747 205.907 266.114C205.731 265.481 205.536 264.778 205.321 264.005L204.151 259.797C203.931 259.007 203.732 258.29 203.552 257.645C203.373 257 203.188 256.335 202.997 255.649L210.667 253.289L211.231 255.319C210.712 255.479 210.152 255.651 209.55 255.837C208.954 256.02 208.25 256.237 207.438 256.487L204.589 257.364L205.371 255.326C205.562 256.011 205.747 256.679 205.928 257.33C206.107 257.974 206.307 258.692 206.527 259.482L207.484 262.923C207.699 263.696 207.894 264.399 208.07 265.032C208.246 265.665 208.429 266.322 208.618 267.001L207.064 265.682L209.938 264.798C210.617 264.589 211.26 264.391 211.868 264.204C212.475 264.017 213.058 263.838 213.615 263.666L214.18 265.696L206.453 268.074ZM206.722 262.221L206.187 260.296L208.39 259.618C209.13 259.39 209.765 259.195 210.295 259.032C210.825 258.868 211.335 258.711 211.827 258.56L212.362 260.486C211.843 260.645 211.319 260.807 210.789 260.97C210.259 261.133 209.635 261.325 208.917 261.546L206.722 262.221Z" fill="#88AD40"/>
<path d="M223.849 262.72C223.662 262.047 223.48 261.393 223.304 260.76C223.128 260.127 222.932 259.424 222.717 258.651L221.549 254.452C221.328 253.656 221.128 252.936 220.949 252.291C220.769 251.646 220.584 250.981 220.394 250.296L222.721 249.579C222.912 250.265 223.097 250.93 223.276 251.575C223.455 252.219 223.656 252.94 223.877 253.735L225.045 257.935C225.26 258.708 225.455 259.411 225.631 260.044C225.807 260.677 225.989 261.33 226.176 262.004L223.849 262.72ZM216.32 265.037C216.133 264.364 215.951 263.71 215.775 263.077C215.599 262.444 215.404 261.741 215.189 260.968L214.021 256.769C213.799 255.973 213.599 255.253 213.42 254.608C213.241 253.963 213.056 253.298 212.865 252.613L215.192 251.896C215.383 252.582 215.568 253.247 215.747 253.892C215.927 254.536 216.127 255.257 216.348 256.052L217.516 260.252C217.731 261.025 217.926 261.728 218.102 262.361C218.278 262.994 218.46 263.647 218.648 264.321L216.32 265.037ZM216.51 259.285L215.94 257.237L222.55 255.203L223.119 257.251L216.51 259.285Z" fill="#88AD40"/>
<path d="M234.329 259.732C233.285 260.053 232.329 260.161 231.461 260.056C230.598 259.95 229.832 259.675 229.163 259.231C228.5 258.786 227.937 258.215 227.473 257.519C227.016 256.821 226.667 256.042 226.428 255.183C226.094 253.98 226.02 252.82 226.207 251.704C226.392 250.581 226.853 249.597 227.589 248.753C228.329 247.901 229.359 247.272 230.679 246.865C231.684 246.556 232.611 246.451 233.459 246.549C234.308 246.647 235.068 246.914 235.741 247.351C236.414 247.787 236.985 248.355 237.456 249.055C237.926 249.755 238.286 250.553 238.535 251.447C238.877 252.679 238.951 253.851 238.757 254.964C238.563 256.076 238.097 257.052 237.359 257.891C236.62 258.724 235.61 259.337 234.329 259.732ZM233.723 257.714C234.341 257.524 234.844 257.243 235.233 256.871C235.619 256.494 235.904 256.053 236.088 255.549C236.275 255.037 236.367 254.495 236.364 253.922C236.366 253.347 236.286 252.77 236.124 252.189C235.952 251.567 235.711 251.014 235.402 250.529C235.093 250.044 234.729 249.648 234.308 249.343C233.891 249.03 233.426 248.832 232.912 248.751C232.401 248.662 231.854 248.708 231.268 248.888C230.666 249.073 230.169 249.352 229.775 249.726C229.381 250.099 229.087 250.54 228.893 251.047C228.704 251.553 228.606 252.097 228.6 252.679C228.593 253.255 228.671 253.84 228.836 254.432C229.001 255.025 229.231 255.562 229.527 256.045C229.823 256.528 230.18 256.928 230.599 257.247C231.017 257.566 231.488 257.771 232.011 257.863C232.534 257.954 233.104 257.905 233.723 257.714Z" fill="#88AD40"/>
</svg>
