<svg width="30" height="30" viewBox="0 0 30 30" fill="none" xmlns="http://www.w3.org/2000/svg">
<path fill-rule="evenodd" clip-rule="evenodd" d="M2.81246 5.34959C2.66034 5.34959 2.53703 5.4729 2.53703 5.62502V8.65813C2.83772 8.608 3.13246 8.52374 3.41543 8.40654C3.90381 8.20424 4.34757 7.90773 4.72137 7.53393C5.09517 7.16014 5.39168 6.71637 5.59397 6.22799C5.71118 5.94502 5.79543 5.65028 5.84557 5.34959H2.81246ZM2.81246 4.02545C1.92904 4.02545 1.21289 4.7416 1.21289 5.62502V18.75C1.21289 19.6334 1.92904 20.3496 2.81246 20.3496H27.1875C28.0709 20.3496 28.787 19.6334 28.787 18.75V5.62502C28.787 4.7416 28.0709 4.02545 27.1875 4.02545H2.81246ZM7.1834 5.34959C7.12416 5.82463 7.00128 6.29058 6.81732 6.73471C6.54848 7.38375 6.15443 7.97348 5.65768 8.47024C5.16092 8.96699 4.57119 9.36104 3.92215 9.62988C3.47802 9.81384 3.01207 9.93672 2.53703 9.99596V14.3791C3.01207 14.4383 3.47802 14.5612 3.92215 14.7452C4.57119 15.014 5.16092 15.4081 5.65768 15.9048C6.15443 16.4016 6.54848 16.9913 6.81732 17.6403C7.00128 18.0845 7.12416 18.5504 7.1834 19.0255H22.8165C22.963 17.8507 23.4963 16.7507 24.3422 15.9048C25.1882 15.0589 26.2882 14.5255 27.4629 14.3791V9.99598C26.2882 9.8495 25.1882 9.31614 24.3422 8.47024C23.4963 7.62433 22.963 6.52431 22.8165 5.34959H7.1834ZM24.1543 5.34959C24.2914 6.17165 24.6815 6.93691 25.2786 7.53393C25.8756 8.13096 26.6408 8.52108 27.4629 8.65815V5.62502C27.4629 5.4729 27.3396 5.34959 27.1875 5.34959H24.1543ZM27.4629 15.7169C26.6408 15.854 25.8756 16.2441 25.2786 16.8411C24.6815 17.4381 24.2914 18.2034 24.1543 19.0255H27.1875C27.3396 19.0255 27.4629 18.9021 27.4629 18.75V15.7169ZM5.84557 19.0255C5.79543 18.7248 5.71118 18.43 5.59397 18.1471C5.39168 17.6587 5.09517 17.2149 4.72137 16.8411C4.34757 16.4673 3.90381 16.1708 3.41543 15.9685C3.13246 15.8513 2.83772 15.767 2.53703 15.7169V18.75C2.53703 18.9021 2.66034 19.0255 2.81246 19.0255H5.84557ZM15 8.16209C12.7768 8.16209 10.9745 9.96434 10.9745 12.1875C10.9745 14.4107 12.7768 16.213 15 16.213C17.2231 16.213 19.0254 14.4107 19.0254 12.1875C19.0254 9.96434 17.2231 8.16209 15 8.16209ZM9.65039 12.1875C9.65039 9.23304 12.0455 6.83795 15 6.83795C17.9544 6.83795 20.3495 9.23304 20.3495 12.1875C20.3495 15.142 17.9544 17.5371 15 17.5371C12.0455 17.5371 9.65039 15.142 9.65039 12.1875ZM3.08789 22.5C3.08789 22.1344 3.38431 21.838 3.74996 21.838H26.25C26.6156 21.838 26.912 22.1344 26.912 22.5C26.912 22.8657 26.6156 23.1621 26.25 23.1621H3.74996C3.38431 23.1621 3.08789 22.8657 3.08789 22.5ZM4.96289 25.3125C4.96289 24.9469 5.25931 24.6505 5.62496 24.6505H24.375C24.7406 24.6505 25.037 24.9469 25.037 25.3125C25.037 25.6782 24.7406 25.9746 24.375 25.9746H5.62496C5.25931 25.9746 4.96289 25.6782 4.96289 25.3125Z" fill="#5DD6DE"/>
</svg>
