<svg width="30" height="30" viewBox="0 0 30 30" fill="none" xmlns="http://www.w3.org/2000/svg">
<path fill-rule="evenodd" clip-rule="evenodd" d="M1 7C1 5.89543 1.89543 5 3 5H27C28.1046 5 29 5.89543 29 7V23C29 24.1046 28.1046 25 27 25H3C1.89543 25 1 24.1046 1 23V7ZM27 7H3V23H27V7Z" fill="#5DD6DE"/>
<path fill-rule="evenodd" clip-rule="evenodd" d="M19 20C19 19.4477 19.4477 19 20 19H24C24.5523 19 25 19.4477 25 20C25 20.5523 24.5523 21 24 21H20C19.4477 21 19 20.5523 19 20Z" fill="#5DD6DE"/>
<path fill-rule="evenodd" clip-rule="evenodd" d="M13 20C13 19.4477 13.4477 19 14 19H16C16.5523 19 17 19.4477 17 20C17 20.5523 16.5523 21 16 21H14C13.4477 21 13 20.5523 13 20Z" fill="#5DD6DE"/>
<path fill-rule="evenodd" clip-rule="evenodd" d="M1 11.1123C1 10.56 1.44772 10.1123 2 10.1123H28C28.5523 10.1123 29 10.56 29 11.1123C29 11.6646 28.5523 12.1123 28 12.1123H2C1.44772 12.1123 1 11.6646 1 11.1123Z" fill="#5DD6DE"/>
</svg>
