<svg width="32" height="32" viewBox="0 0 32 32" fill="none" xmlns="http://www.w3.org/2000/svg">
<path d="M9.313 4C8.559 4 7.906 4.367 7.313 4.875C6.719 5.383 6.172 6.066 5.688 6.938C4.718 8.684 4 11.133 4 14.188C4 15.754 4.363 17.368 5.094 18.656C5.254 18.938 5.516 19.125 5.719 19.375C5.176 20.039 4.281 21.281 4.281 21.281L5.72 22.72C5.72 22.72 6.712 21.353 7.345 20.595C7.747 20.767 8.126 21.001 8.595 21.001C10.31 21.001 12.099 20.251 13.751 19.313C14.282 19.72 14.88 20.001 15.501 20.001C17.556 20.001 19.118 18.794 20.22 17.72C20.54 17.407 20.755 17.177 21.001 16.907C20.997 17.181 20.989 17.431 21.064 17.751C21.122 17.993 21.189 18.294 21.439 18.564C21.689 18.833 22.138 19.001 22.501 19.001C23.231 19.001 23.653 18.665 24.095 18.345C24.536 18.025 24.955 17.642 25.407 17.282C26.316 16.563 27.286 16 28 16V14C26.414 14 25.176 14.938 24.187 15.719C23.719 16.089 23.297 16.414 22.969 16.656V16.531C22.98 16.168 23.035 15.761 22.969 15.313C22.9297 15.0406 22.822 14.7826 22.656 14.563C22.449 14.27 21.984 14 21.594 14C21.031 14 20.824 14.242 20.625 14.406C20.425 14.57 20.277 14.738 20.094 14.937C19.727 15.336 19.289 15.817 18.812 16.281C17.972 17.101 16.984 17.723 15.906 17.875C16.621 17.301 17.34 16.73 17.844 16.094C18.508 15.258 19 14.406 19 13.406C19 12.844 18.93 12.074 18.5 11.344C18.07 10.614 17.145 10 16 10C14.77 10 13.648 10.605 12.969 11.563C12.289 12.52 12 13.746 12 15.187C12 16.168 12.223 16.98 12.531 17.687C11.141 18.419 9.7 19 8.594 19C10.285 16.465 12 13.012 12 8.812C12 7.942 12.008 6.914 11.719 5.969C11.574 5.496 11.344 5.016 10.938 4.625C10.53 4.235 9.93 4 9.312 4H9.313ZM9.313 6C9.493 6 9.5 6.035 9.563 6.094C9.625 6.152 9.699 6.297 9.781 6.562C9.941 7.09 10 7.98 10 8.812C10 12.355 8.484 15.457 6.969 17.782C6.934 17.722 6.879 17.719 6.844 17.656C6.324 16.746 6 15.422 6 14.188C6 11.441 6.656 9.312 7.438 7.906C7.828 7.203 8.23 6.688 8.594 6.375C8.957 6.062 9.266 6 9.313 6ZM16 12C16.555 12 16.637 12.133 16.781 12.375C16.926 12.617 17 13.066 17 13.406C17 13.656 16.79 14.238 16.281 14.875C15.84 15.43 15.168 16.004 14.438 16.563C14.262 16.16 14 15.867 14 15.188C14 14.028 14.246 13.18 14.594 12.688C14.941 12.195 15.332 12 16 12ZM4 26V28H28V26H4Z" fill="#5DD6DE"/>
</svg>
