<svg width="30" height="30" viewBox="0 0 30 30" fill="none" xmlns="http://www.w3.org/2000/svg">
<path fill-rule="evenodd" clip-rule="evenodd" d="M4.58579 2.58579C4.96086 2.21071 5.46957 2 6 2H18C18.2652 2 18.5196 2.10536 18.7071 2.29289L25.7071 9.29289C25.8946 9.48043 26 9.73478 26 10V26C26 26.5304 25.7893 27.0391 25.4142 27.4142C25.0391 27.7893 24.5304 28 24 28H6C5.46957 28 4.96086 27.7893 4.58579 27.4142C4.21071 27.0391 4 26.5304 4 26V4C4 3.46957 4.21071 2.96086 4.58579 2.58579ZM17.5858 4L6 4L6 26H24V10.4142L17.5858 4Z" fill="#5DD6DE"/>
<path fill-rule="evenodd" clip-rule="evenodd" d="M18 2C18.5523 2 19 2.44772 19 3V9H25C25.5523 9 26 9.44772 26 10C26 10.5523 25.5523 11 25 11H18C17.4477 11 17 10.5523 17 10V3C17 2.44772 17.4477 2 18 2Z" fill="#5DD6DE"/>
</svg>
