<svg width="30" height="22" viewBox="0 0 30 22" fill="none" xmlns="http://www.w3.org/2000/svg">
<path fill-rule="evenodd" clip-rule="evenodd" d="M0 2.14286C0 0.95939 0.95939 0 2.14286 0H27.8571C29.0406 0 30 0.959389 30 2.14286V19.2857C30 20.4692 29.0406 21.4286 27.8571 21.4286H2.14286C0.959389 21.4286 0 20.4692 0 19.2857V2.14286ZM2.14286 7.62033V19.2857H27.8571V7.62033H2.14286ZM27.8571 5.47747H2.14286V2.14286H27.8571V5.47747ZM12.8571 16.0714C12.8571 15.4797 13.3368 15 13.9286 15H16.0714C16.6632 15 17.1429 15.4797 17.1429 16.0714C17.1429 16.6632 16.6632 17.1429 16.0714 17.1429H13.9286C13.3368 17.1429 12.8571 16.6632 12.8571 16.0714ZM19.2857 16.0714C19.2857 15.4797 19.7654 15 20.3571 15H24.6429C25.2346 15 25.7143 15.4797 25.7143 16.0714C25.7143 16.6632 25.2346 17.1429 24.6429 17.1429H20.3571C19.7654 17.1429 19.2857 16.6632 19.2857 16.0714Z" fill="#5DD6DE"/>
</svg>
