<svg width="38" height="38" viewBox="0 0 38 38" fill="none" xmlns="http://www.w3.org/2000/svg">
<path d="M19 20.1875C21.6234 20.1875 23.75 18.0609 23.75 15.4375C23.75 12.8141 21.6234 10.6875 19 10.6875C16.3766 10.6875 14.25 12.8141 14.25 15.4375C14.25 18.0609 16.3766 20.1875 19 20.1875Z" stroke="#5DD6DE" stroke-width="2" stroke-linecap="round" stroke-linejoin="round"/>
<path d="M30.875 15.4375C30.875 26.125 19 34.4375 19 34.4375C19 34.4375 7.125 26.125 7.125 15.4375C7.125 12.2881 8.37611 9.2676 10.6031 7.04061C12.8301 4.81361 15.8506 3.5625 19 3.5625C22.1494 3.5625 25.1699 4.81361 27.3969 7.04061C29.6239 9.2676 30.875 12.2881 30.875 15.4375V15.4375Z" stroke="#5DD6DE" stroke-width="2" stroke-linecap="round" stroke-linejoin="round"/>
</svg>
