<svg width="38" height="38" viewBox="0 0 38 38" fill="none" xmlns="http://www.w3.org/2000/svg">
<path d="M13.7295 18.525C14.9515 21.0484 16.992 23.0837 19.5186 24.2992C19.7049 24.3875 19.9111 24.4256 20.1167 24.41C20.3223 24.3944 20.5203 24.3255 20.6912 24.2101L24.4021 21.7312C24.5661 21.62 24.7556 21.5522 24.9528 21.534C25.1501 21.5158 25.3488 21.5479 25.5303 21.6273L32.4771 24.6109C32.7146 24.7097 32.9129 24.8839 33.0417 25.1065C33.1704 25.3291 33.2224 25.5879 33.1896 25.843C32.9695 27.5615 32.1306 29.1409 30.8302 30.2857C29.5297 31.4304 27.8566 32.0621 26.124 32.0625C20.77 32.0625 15.6352 29.9356 11.8493 26.1497C8.06342 22.3638 5.93652 17.229 5.93652 11.875C5.93691 10.1424 6.56859 8.46936 7.71336 7.16886C8.85813 5.86836 10.4375 5.02954 12.1561 4.80936C12.4111 4.7766 12.6699 4.82859 12.8925 4.95734C13.1151 5.08608 13.2893 5.28444 13.3881 5.52186L16.3717 12.4836C16.4493 12.6622 16.4817 12.8572 16.4662 13.0513C16.4507 13.2455 16.3876 13.4328 16.2826 13.5969L13.8037 17.3672C13.6933 17.5377 13.6286 17.7337 13.6156 17.9364C13.6026 18.1391 13.6418 18.3418 13.7295 18.525V18.525Z" stroke="#5DD6DE" stroke-width="2" stroke-linecap="round" stroke-linejoin="round"/>
</svg>
