<svg width="38" height="38" viewBox="0 0 38 38" fill="none" xmlns="http://www.w3.org/2000/svg">
<path d="M25.0906 21.6411C24.7573 21.4723 23.1339 20.6802 22.8305 20.5671C22.527 20.459 22.3068 20.4025 22.0857 20.7358C21.8695 21.0609 21.2328 21.8048 21.0383 22.0218C20.8438 22.2387 20.6526 22.2554 20.3242 22.1082C19.9909 21.9395 18.9261 21.5929 17.6617 20.459C16.6742 19.5804 16.0167 18.4981 15.8214 18.1648C15.6268 17.8356 15.7997 17.6494 15.9643 17.4848C16.1156 17.3335 16.2977 17.1041 16.4664 16.9046C16.6268 16.7051 16.6784 16.5713 16.7956 16.3552C16.9036 16.1216 16.8479 15.9395 16.7657 15.7749C16.6834 15.6104 16.0209 13.9786 15.744 13.3286C15.4797 12.6835 15.2029 12.7658 14.9992 12.7658C14.8089 12.7484 14.5878 12.7484 14.3675 12.7484C14.1472 12.7484 13.7873 12.8307 13.4839 13.1465C13.1805 13.4799 12.3235 14.2762 12.3235 15.8872C12.3235 17.5023 13.5096 19.065 13.6742 19.2986C13.843 19.5147 16.0076 22.8397 19.3284 24.2687C20.1206 24.602 20.7357 24.8015 21.2162 24.9661C22.0083 25.2171 22.7315 25.1822 23.3026 25.0999C23.9344 24.996 25.2594 24.2986 25.537 23.5197C25.8188 22.7358 25.8188 22.0866 25.7365 21.9395C25.6542 21.7882 25.4381 21.7059 25.1048 21.5588L25.0906 21.6411ZM19.0682 29.8064H19.0508C17.0849 29.8064 15.1414 29.2736 13.444 28.2778L13.0458 28.04L8.88956 29.1223L10.0068 25.0783L9.73826 24.6627C8.64057 22.9173 8.05822 20.8974 8.05831 18.8356C8.05831 12.8007 12.9984 7.87807 19.0765 7.87807C22.0208 7.87807 24.7831 9.0252 26.8612 11.1033C27.8863 12.1163 28.6995 13.3232 29.2533 14.6538C29.807 15.9844 30.0902 17.4119 30.0864 18.8531C30.0781 24.8838 25.1422 29.8064 19.0724 29.8064H19.0682ZM28.4414 9.52311C25.9127 7.0809 22.5877 5.7002 19.0508 5.7002C11.7557 5.7002 5.81559 11.6145 5.81144 18.883C5.81144 21.2038 6.41742 23.4682 7.57784 25.4723L5.69922 32.3002L12.7216 30.469C14.667 31.5178 16.8415 32.0695 19.0516 32.0749H19.0557C26.355 32.0749 32.2951 26.1606 32.2992 18.8871C32.2992 15.3676 30.9268 12.0551 28.4248 9.56551L28.4414 9.52311Z" fill="#43D854"/>
</svg>
