<svg width="651" height="481" viewBox="0 0 651 481" fill="none" xmlns="http://www.w3.org/2000/svg">
<path d="M579.263 339.88C489.634 416.739 444.333 460.276 326.375 474.373C243.741 484.251 128.65 487.936 77.6506 449.872C-20.2933 376.772 31.9917 246.515 164.364 173.886C303.123 97.7532 302.43 -1.03052 432.667 0.00812251C528.019 0.769237 597.334 63.3976 617.768 88.6191C665.786 147.883 668.892 263.022 579.263 339.88Z" fill="#F9F9F9"/>
<path d="M273.43 85.6484H539.851C550.152 85.6484 552.966 89.1945 552.834 99.3492L549.087 393.041C548.909 406.639 540.91 417.484 524.534 417.313L275.382 412.787C269.596 412.787 260.316 404.566 260.319 394.626L260.443 97.8583C260.448 87.8357 266.261 85.6484 273.43 85.6484Z" fill="#43B2B5"/>
<path d="M278.915 93.4727H534.74C541.716 93.4727 547.335 101.385 547.208 111.032L543.609 385.532C543.44 398.453 535.757 408.768 526.416 408.607L278.639 404.307C271.811 404.188 266.321 396.494 266.326 387.05L266.445 110.715C266.449 101.187 272.031 93.4727 278.915 93.4727Z" fill="#ECF7F4"/>
<path d="M547.21 134.591H266.717V96.7877C266.717 95.68 267.157 94.6178 267.94 93.8345C268.723 93.0513 269.786 92.6113 270.893 92.6113H543.271C544.316 92.6118 545.317 93.0269 546.056 93.7656C546.795 94.5043 547.21 95.5061 547.21 96.5507V134.591Z" fill="#5DD6DE"/>
<path d="M515.964 116.699L370.443 115.32C367.013 115.286 364.252 113.021 364.252 110.237V105.384C364.252 103.235 366.397 101.495 369.044 101.495H517.015C519.625 101.495 521.69 103.293 521.491 105.405L520.793 113.105C520.6 115.147 518.488 116.722 515.964 116.699Z" fill="white"/>
<path d="M340.468 115.571C338.97 115.571 337.505 115.127 336.26 114.294C335.014 113.462 334.043 112.279 333.469 110.894C332.896 109.51 332.746 107.987 333.038 106.517C333.33 105.048 334.052 103.698 335.111 102.638C336.171 101.579 337.521 100.857 338.99 100.565C340.46 100.273 341.983 100.423 343.368 100.996C344.752 101.569 345.935 102.54 346.767 103.786C347.6 105.032 348.044 106.497 348.044 107.995C348.041 110.003 347.242 111.929 345.822 113.349C344.402 114.769 342.477 115.568 340.468 115.571ZM340.468 101.509C339.186 101.509 337.932 101.889 336.866 102.602C335.8 103.314 334.968 104.327 334.478 105.512C333.987 106.696 333.858 108 334.108 109.258C334.358 110.516 334.976 111.671 335.883 112.578C336.789 113.485 337.945 114.103 339.202 114.353C340.46 114.604 341.764 114.475 342.949 113.985C344.134 113.494 345.147 112.663 345.859 111.597C346.572 110.531 346.953 109.278 346.953 107.995C346.953 106.275 346.27 104.625 345.054 103.408C343.838 102.191 342.189 101.506 340.468 101.504V101.509Z" fill="white"/>
<path d="M316.132 116.137C314.633 116.137 313.168 115.693 311.923 114.86C310.677 114.028 309.706 112.844 309.132 111.46C308.559 110.076 308.409 108.553 308.701 107.083C308.994 105.614 309.715 104.264 310.775 103.204C311.834 102.145 313.184 101.423 314.654 101.131C316.123 100.839 317.646 100.989 319.031 101.562C320.415 102.135 321.598 103.106 322.431 104.352C323.263 105.598 323.707 107.063 323.707 108.561C323.704 110.569 322.905 112.495 321.485 113.915C320.065 115.335 318.14 116.134 316.132 116.137ZM316.132 102.073C314.849 102.073 313.595 102.454 312.529 103.166C311.462 103.879 310.631 104.891 310.141 106.076C309.65 107.261 309.521 108.565 309.772 109.823C310.022 111.081 310.639 112.236 311.546 113.143C312.453 114.05 313.609 114.668 314.866 114.918C316.124 115.168 317.428 115.04 318.613 114.549C319.798 114.058 320.811 113.227 321.523 112.16C322.236 111.094 322.616 109.84 322.616 108.558C322.614 106.839 321.93 105.191 320.714 103.975C319.499 102.759 317.851 102.075 316.132 102.073Z" fill="white"/>
<path d="M292.739 116.137C291.241 116.137 289.776 115.693 288.53 114.86C287.284 114.028 286.313 112.844 285.74 111.46C285.166 110.076 285.016 108.553 285.309 107.083C285.601 105.614 286.323 104.264 287.382 103.204C288.441 102.145 289.791 101.423 291.261 101.131C292.731 100.839 294.254 100.989 295.638 101.562C297.022 102.135 298.206 103.106 299.038 104.352C299.87 105.598 300.315 107.063 300.315 108.561C300.312 110.569 299.513 112.495 298.093 113.915C296.672 115.335 294.747 116.134 292.739 116.137ZM292.739 102.073C291.456 102.073 290.203 102.454 289.136 103.166C288.07 103.879 287.239 104.891 286.748 106.076C286.257 107.261 286.129 108.565 286.379 109.823C286.629 111.081 287.247 112.236 288.154 113.143C289.061 114.05 290.216 114.668 291.474 114.918C292.732 115.168 294.036 115.04 295.22 114.549C296.405 114.058 297.418 113.227 298.131 112.16C298.843 111.094 299.223 109.84 299.223 108.558C299.222 106.839 298.538 105.19 297.322 103.975C296.107 102.759 294.458 102.075 292.739 102.073Z" fill="white"/>
<path d="M482.074 342.005H284.246C283.771 342.005 283.387 342.389 283.387 342.864V353.913C283.387 354.388 283.771 354.772 284.246 354.772H482.074C482.548 354.772 482.933 354.388 482.933 353.913V342.864C482.933 342.389 482.548 342.005 482.074 342.005Z" fill="white"/>
<path d="M504.748 315.189H284.149C283.62 315.189 283.191 315.582 283.191 316.066V327.349C283.191 327.834 283.62 328.227 284.149 328.227H504.748C505.277 328.227 505.706 327.834 505.706 327.349V316.066C505.706 315.582 505.277 315.189 504.748 315.189Z" fill="white"/>
<path d="M504.748 284.768H284.149C283.62 284.768 283.191 285.16 283.191 285.645V296.928C283.191 297.413 283.62 297.805 284.149 297.805H504.748C505.277 297.805 505.706 297.413 505.706 296.928V285.645C505.706 285.16 505.277 284.768 504.748 284.768Z" fill="white"/>
<path d="M431.604 364.508H284.497C283.884 364.508 283.387 365.006 283.387 365.619V376.165C283.387 376.779 283.884 377.276 284.497 377.276H431.604C432.218 377.276 432.715 376.779 432.715 376.165V365.619C432.715 365.006 432.218 364.508 431.604 364.508Z" fill="white"/>
<path d="M594.763 316.773C594.763 316.773 612.07 326.36 613.504 342.585C614.939 358.81 613.623 426.158 578.918 442.735C544.212 459.311 498.277 455.489 480.693 453.678C463.109 451.866 453.359 439.916 451.181 431.687C449.003 423.458 445.486 392.809 463.984 382.923C482.482 373.038 501.91 357.89 521.324 343.14C540.737 328.389 574.003 304.319 594.763 316.773Z" fill="#56CDD5"/>
<path d="M469.435 388.517C469.435 388.517 474.11 388.763 474.679 398.373C474.679 398.373 463.847 408.083 449.211 410.394C448.113 410.567 450.747 402.896 451.145 401.852C453.031 396.913 458.966 393.728 469.435 388.517Z" fill="#C5FFFD"/>
<path d="M522.041 377.217H517.352C515.746 377.218 514.157 376.897 512.678 376.271C511.2 375.646 509.862 374.729 508.744 373.576C500.98 365.564 481.573 346.703 466.234 341.5C465.025 341.098 463.711 341.155 462.542 341.661C461.372 342.166 460.43 343.084 459.895 344.24C456.692 351.073 452.2 366.968 462.84 391.039C464.018 393.705 467.362 394.838 469.787 393.218C470.459 392.777 470.98 392.141 471.281 391.395L470.111 363.267C470.111 363.267 495.917 385.833 500.403 390.193C504.889 394.553 527.69 391.9 522.041 377.217Z" fill="#141721"/>
<path d="M426.744 447.368C430.875 443.749 437.456 439.687 446.957 438.523L450.171 440.488C450.171 440.488 448.122 443.511 444.379 446.704C440.938 448.701 435.627 451.407 431.221 451.994C426.94 452.564 426.309 449.977 426.744 447.368Z" fill="#C5FFFD"/>
<path d="M451.147 401.857C453.692 402.681 454.813 406.286 461.27 403.902C465.985 402.164 470.45 399.811 474.55 396.905C474.603 397.371 474.648 397.856 474.679 398.374C474.679 398.374 463.259 409.236 448.628 411.547C448.376 411.586 448.118 411.558 447.88 411.466C447.643 411.374 447.434 411.22 447.274 411.021C447.115 410.822 447.01 410.585 446.972 410.333C446.933 410.081 446.962 409.823 447.055 409.586C448.107 406.856 449.481 404.261 451.147 401.857Z" fill="#43B2B5"/>
<path d="M423.633 450.459C424.602 449.363 425.641 448.331 426.744 447.368C426.308 449.977 426.94 452.564 431.221 451.994C435.627 451.407 440.938 448.701 444.379 446.704C440.067 450.38 433.507 454.279 425.225 454.054C423.386 454.004 422.417 451.841 423.633 450.459Z" fill="#43B2B5"/>
<path d="M521.68 384.349L475.527 384.848C475.527 384.848 449.167 406.658 444.386 439.914C444.386 439.914 443.591 442.359 448.356 442.779C448.356 442.779 464.294 432.369 474.686 413.967C487.428 391.401 512.672 401.555 512.672 401.555C520.966 395.575 532.686 394.358 541.516 392.368L521.68 384.349Z" fill="#232734"/>
<path d="M517.928 383.946C517.928 383.946 523.579 368.585 524.793 353.661C524.793 353.661 520.66 350.106 518.074 348.574C517.672 348.335 517.373 347.955 517.238 347.507C517.104 347.059 517.142 346.577 517.346 346.156C519.244 342.22 530.734 326.767 531.595 326.552C536.269 325.385 555.451 316.264 568.966 334.744C574.769 342.676 567.815 367.091 541.509 392.376L536.082 393.414L517.928 383.946Z" fill="#FCD95F"/>
<path d="M548.867 313.507L552.302 324.964C552.38 325.219 552.376 325.492 552.289 325.745C552.202 325.997 552.037 326.215 551.818 326.367C550.164 327.495 545.843 329.752 539.913 327.563C539.581 327.437 539.291 327.22 539.078 326.936C538.865 326.652 538.738 326.313 538.71 325.959L537.904 315.978L548.867 313.507Z" fill="url(#paint0_linear_536_2958)"/>
<path d="M528.746 304.23C528.746 304.23 530.434 316.106 534.997 319.758C539.56 323.411 548.448 320.659 551.45 311.699L545.468 296.386L528.746 304.23Z" fill="url(#paint1_linear_536_2958)"/>
<path d="M546.143 306.304C546.061 306.33 545.975 306.339 545.891 306.329C545.806 306.319 545.724 306.29 545.652 306.246C545.579 306.201 545.517 306.141 545.47 306.07C545.423 305.998 545.391 305.918 545.379 305.833C545.217 304.737 544.803 302.568 543.97 301.09C543.97 301.09 544.405 299.531 540.032 301.884C535.659 304.238 529.09 307.697 525.224 305.638C521.453 303.63 517.633 293.527 527.598 295.4C527.686 295.417 527.777 295.414 527.864 295.39C527.951 295.367 528.031 295.323 528.099 295.264C528.167 295.204 528.22 295.13 528.254 295.047C528.288 294.964 528.303 294.874 528.297 294.784C528.175 293.122 528.339 289.304 532.208 288.077C535.828 286.929 537.811 288.561 538.626 289.55C538.682 289.618 538.753 289.673 538.833 289.71C538.912 289.747 539 289.765 539.088 289.764C539.176 289.762 539.262 289.741 539.341 289.702C539.42 289.662 539.488 289.606 539.542 289.536C540.627 288.119 543.572 285.106 547.908 287.016C551.478 288.59 552.034 290.79 551.974 292.16C551.969 292.261 551.99 292.362 552.035 292.452C552.081 292.543 552.149 292.62 552.233 292.677C552.317 292.733 552.415 292.767 552.516 292.774C552.617 292.782 552.718 292.763 552.809 292.719C553.904 292.216 555.662 291.954 557.348 294.065C559.678 296.984 556.349 299.515 555.35 300.179C555.269 300.232 555.203 300.303 555.156 300.387C555.11 300.472 555.085 300.566 555.084 300.662C555.074 302.181 554.837 308.802 551.518 312.537C551.451 312.611 551.367 312.667 551.272 312.699C551.178 312.732 551.077 312.74 550.979 312.723C550.881 312.706 550.788 312.664 550.71 312.602C550.632 312.539 550.572 312.458 550.533 312.366L547.977 306.278C547.92 306.142 547.813 306.032 547.679 305.971C547.545 305.909 547.392 305.9 547.252 305.945L546.143 306.304Z" fill="#232734"/>
<path d="M546.089 307.543C546.089 307.543 547.649 301.188 550.019 303.251C552.388 305.314 549.401 309.86 546.685 310.722L546.089 307.543Z" fill="url(#paint2_linear_536_2958)"/>
<path d="M546.089 307.543C546.089 307.543 547.649 301.188 550.019 303.251C552.388 305.314 549.401 309.86 546.685 310.722L546.089 307.543Z" fill="url(#paint3_linear_536_2958)"/>
<path d="M524.792 354.02C524.696 354.02 524.604 353.981 524.536 353.913C524.468 353.845 524.43 353.753 524.43 353.657C524.407 346.718 527.075 337.538 527.102 337.448C527.116 337.402 527.138 337.36 527.168 337.323C527.198 337.285 527.235 337.255 527.277 337.232C527.318 337.209 527.364 337.195 527.412 337.19C527.459 337.184 527.507 337.189 527.553 337.202C527.598 337.216 527.641 337.238 527.678 337.268C527.715 337.298 527.746 337.335 527.769 337.377C527.792 337.418 527.806 337.464 527.811 337.512C527.816 337.559 527.812 337.607 527.799 337.653C527.773 337.743 525.133 346.823 525.155 353.655C525.155 353.703 525.146 353.75 525.128 353.794C525.11 353.838 525.084 353.878 525.05 353.912C525.017 353.946 524.977 353.973 524.933 353.991C524.889 354.01 524.842 354.019 524.794 354.02H524.792Z" fill="#E5BB35"/>
<path d="M539.702 357.385C539.621 357.385 539.541 357.358 539.477 357.308C539.401 357.248 539.353 357.16 539.341 357.065C539.33 356.969 539.357 356.873 539.417 356.797C539.488 356.707 546.601 347.662 549.034 341.502C549.051 341.458 549.077 341.417 549.11 341.383C549.143 341.349 549.183 341.321 549.227 341.302C549.27 341.283 549.317 341.273 549.365 341.272C549.413 341.271 549.46 341.28 549.504 341.297C549.549 341.315 549.589 341.341 549.623 341.374C549.658 341.407 549.685 341.446 549.704 341.49C549.723 341.534 549.733 341.581 549.734 341.629C549.735 341.676 549.727 341.724 549.709 341.768C547.238 348.03 540.059 357.156 539.986 357.242C539.953 357.286 539.91 357.322 539.861 357.346C539.812 357.371 539.757 357.385 539.702 357.385Z" fill="#E5BB35"/>
<path d="M549.756 371.346L548.396 369.423C548.34 369.344 548.318 369.247 548.334 369.152C548.351 369.057 548.404 368.972 548.483 368.917C548.561 368.861 548.659 368.839 548.754 368.855C548.849 368.872 548.933 368.925 548.989 369.004L550.008 370.445C560.019 365.994 566.212 354.023 566.273 353.902C566.291 353.854 566.318 353.811 566.354 353.774C566.39 353.737 566.433 353.709 566.48 353.69C566.527 353.671 566.578 353.663 566.629 353.665C566.68 353.667 566.73 353.68 566.776 353.703C566.822 353.726 566.862 353.758 566.894 353.797C566.927 353.837 566.95 353.883 566.964 353.932C566.977 353.981 566.98 354.033 566.972 354.083C566.964 354.133 566.946 354.182 566.918 354.224C566.855 354.35 560.432 366.768 550.024 371.223L549.756 371.346Z" fill="#E5BB35"/>
<path d="M518.475 347.034C518.475 347.034 510.899 368.869 496.118 352.25L494.711 351.627L484.121 344.388L485.301 348.579C485.623 349.723 486.201 350.778 486.991 351.666C487.782 352.554 488.764 353.25 489.863 353.703L491.257 354.276C493.912 359.794 499.602 368.156 508.362 369.742C521.51 372.123 528.253 354.359 528.253 354.359L518.475 347.034Z" fill="url(#paint4_linear_536_2958)"/>
<path d="M478.84 338.814L478.097 339.832C478.011 339.95 477.95 340.083 477.917 340.224C477.884 340.365 477.88 340.512 477.904 340.655C477.929 340.798 477.982 340.934 478.061 341.056C478.139 341.178 478.241 341.283 478.361 341.365L495.044 352.763C495.277 352.917 495.56 352.976 495.835 352.927C496.111 352.878 496.356 352.725 496.521 352.499C496.686 352.273 496.757 351.993 496.72 351.716C496.683 351.439 496.541 351.187 496.322 351.012L480.381 338.601C480.266 338.512 480.135 338.446 479.995 338.409C479.855 338.371 479.709 338.362 479.565 338.382C479.422 338.402 479.283 338.45 479.159 338.524C479.034 338.598 478.926 338.697 478.84 338.814Z" fill="#232734"/>
<path d="M493.902 349.329C493.692 349.146 506.797 342.732 511.728 343.319C516.531 343.891 522.183 347.48 527.452 351.734C532.196 355.566 537.076 358.037 541.654 357.845C541.654 357.845 549.488 366.365 547.752 371.504C547.752 371.504 539.048 373.559 531.633 366.226C524.573 359.254 516.775 350.367 512.387 348.749C512.207 348.683 512.013 348.66 511.822 348.681C511.631 348.702 511.448 348.767 511.286 348.872C509.968 349.711 505.854 351.726 500.469 348.506C500.461 348.506 496.078 351.233 493.902 349.329Z" fill="url(#paint5_linear_536_2958)"/>
<circle cx="9" cy="412" r="7.5" stroke="#FCD960" stroke-width="3"/>
<circle cx="143" cy="282" r="7.5" stroke="#FCD960" stroke-width="3"/>
<circle cx="609" cy="168" r="7.5" stroke="#FCD960" stroke-width="3"/>
<path d="M401.797 217.2L389.195 204.644L384.994 208.829L401.797 225.571L437.802 189.696L433.601 185.511L401.797 217.2Z" fill="#5DD6DE"/>
<path fill-rule="evenodd" clip-rule="evenodd" d="M411.398 252.663C437.591 252.663 458.825 231.43 458.825 205.237C458.825 179.045 437.591 157.811 411.398 157.811C385.205 157.811 363.972 179.045 363.972 205.237C363.972 231.43 385.205 252.663 411.398 252.663ZM411.398 259.561C441.401 259.561 465.723 235.24 465.723 205.237C465.723 175.235 441.401 150.913 411.398 150.913C381.395 150.913 357.073 175.235 357.073 205.237C357.073 235.24 381.395 259.561 411.398 259.561Z" fill="#5DD6DE"/>
<defs>
<linearGradient id="paint0_linear_536_2958" x1="4982.41" y1="34304.1" x2="4307.25" y2="32154.9" gradientUnits="userSpaceOnUse">
<stop stop-color="#FEEBBA"/>
<stop offset="1" stop-color="#FFC49A"/>
</linearGradient>
<linearGradient id="paint1_linear_536_2958" x1="7510.3" y1="56900.6" x2="6331.46" y2="53360.9" gradientUnits="userSpaceOnUse">
<stop stop-color="#FEEBBA"/>
<stop offset="1" stop-color="#FFCEAB"/>
</linearGradient>
<linearGradient id="paint2_linear_536_2958" x1="1802.07" y1="18303.3" x2="1305.57" y2="17308.1" gradientUnits="userSpaceOnUse">
<stop stop-color="#FEBBBA"/>
<stop offset="1" stop-color="#FF928E"/>
</linearGradient>
<linearGradient id="paint3_linear_536_2958" x1="2019.34" y1="18194.9" x2="1522.84" y2="17199.7" gradientUnits="userSpaceOnUse">
<stop stop-color="#FEEBBA"/>
<stop offset="1" stop-color="#FFCEAB"/>
</linearGradient>
<linearGradient id="paint4_linear_536_2958" x1="14055.1" y1="58389.7" x2="13367.8" y2="54478.1" gradientUnits="userSpaceOnUse">
<stop stop-color="#FEEBBA"/>
<stop offset="1" stop-color="#EEB48B"/>
</linearGradient>
<linearGradient id="paint5_linear_536_2958" x1="17131.3" y1="65002.6" x2="16432.1" y2="60622.4" gradientUnits="userSpaceOnUse">
<stop stop-color="#FEEBBA"/>
<stop offset="1" stop-color="#FFC49A"/>
</linearGradient>
</defs>
</svg>
