<svg width="78" height="78" viewBox="0 0 78 78" fill="none" xmlns="http://www.w3.org/2000/svg">
<g clip-path="url(#clip0_389_2442)">
<path d="M75.969 43.6389C83.8553 27.4145 52.0624 20.476 42.7753 15.4774C33.4882 10.4789 30.4205 -2.67276 14.1403 4.41495C-2.13991 11.5027 8.55142 63.1392 26.5153 53.9148C44.4791 44.6904 68.0826 59.8633 75.969 43.6389Z" fill="#ECF6F4"/>
<path d="M62.3688 39.3724C63.4188 37.9716 64 36.2553 64 34.4696C64 31.6365 62.4313 28.9548 59.9062 27.4593C59.2562 27.0744 58.5161 26.8718 57.7625 26.8725H42.775L43.15 19.1176C43.2375 17.2436 42.5813 15.4642 41.3063 14.1076C40.6805 13.4389 39.9256 12.9069 39.0882 12.5444C38.2508 12.1819 37.3486 11.9966 36.4375 12C33.1875 12 30.3125 14.2085 29.45 17.3698L24.0812 36.9936H16C14.8937 36.9936 14 37.8959 14 39.0128V61.9808C14 63.0977 14.8937 64 16 64H53.5812C54.1562 64 54.7188 63.8864 55.2375 63.6593C58.2125 62.3784 60.1312 59.4442 60.1312 56.1883C60.1312 55.3933 60.0187 54.6109 59.7938 53.8537C60.8438 52.4529 61.425 50.7366 61.425 48.9509C61.425 48.1558 61.3125 47.3734 61.0875 46.6162C62.1375 45.2154 62.7188 43.4991 62.7188 41.7134C62.7062 40.9184 62.5938 40.1296 62.3688 39.3724ZM18.5 59.4569V41.5367H23.5625V59.4569H18.5ZM58.275 37.1829L56.9062 38.3818L57.775 39.9845C58.0612 40.5124 58.2096 41.1053 58.2062 41.7071C58.2062 42.7482 57.7563 43.7389 56.9813 44.4204L55.6125 45.6192L56.4813 47.222C56.7675 47.7499 56.9159 48.3427 56.9125 48.9446C56.9125 49.9857 56.4625 50.9764 55.6875 51.6578L54.3187 52.8567L55.1875 54.4594C55.4737 54.9874 55.6221 55.5802 55.6188 56.182C55.6188 57.5954 54.7938 58.87 53.5187 59.4506H27.5625V41.3348L33.7812 18.5876C33.9416 18.0046 34.2858 17.4902 34.7618 17.1224C35.2377 16.7546 35.8194 16.5535 36.4188 16.5495C36.8938 16.5495 37.3625 16.6883 37.7375 16.9723C38.3562 17.4392 38.6875 18.1459 38.65 18.8968L38.05 31.4156H57.7C58.8125 32.1034 59.5 33.2644 59.5 34.4696C59.5 35.5108 59.05 36.4951 58.275 37.1829Z" fill="#5DD6DE"/>
</g>
<defs>
<clipPath id="clip0_389_2442">
<rect width="78" height="78" fill="white"/>
</clipPath>
</defs>
</svg>
