<svg width="130" height="130" viewBox="0 0 130 130" fill="none" xmlns="http://www.w3.org/2000/svg">
<path d="M105.755 60.5735L93.9736 56.4775L93.1727 58.7662L104.954 62.8621L105.755 60.5735Z" fill="#F5EBDF"/>
<path d="M51.6521 44.2493L39.8965 48.3203L40.6946 50.6099L52.4502 46.5389L51.6521 44.2493Z" fill="#F5EBDF"/>
<path d="M75.4525 103.3C102.942 103.3 125.227 100.89 125.227 97.9173C125.227 94.9448 102.942 92.5352 75.4525 92.5352C47.9627 92.5352 25.6777 94.9448 25.6777 97.9173C25.6777 100.89 47.9627 103.3 75.4525 103.3Z" fill="#E8E8E8"/>
<path d="M36.0815 97.2773L113.445 97.2773V59.5798L36.0815 59.5798V97.2773Z" fill="#9DE4E9"/>
<path d="M36.0818 97.2773H61.9688L61.9688 59.5798H36.0818V97.2773Z" fill="#ECF6F4"/>
<path d="M58.3837 62.201H115.879L101.622 35.0146H47.8369L58.3837 62.201Z" fill="#43B2B5"/>
<path d="M47.8373 35.0156L31.0771 62.5294L61.9686 62.202L47.8373 35.0156Z" fill="#232735"/>
<path d="M36.082 62.5062L49.1393 41.4121L59.806 62.2019C52.8182 65.0002 44.7223 64.5532 36.082 62.5062Z" fill="#ECF6F4"/>
<path d="M61.9686 62.202H59.8064L47.8373 38.8745L33.3543 62.5055L31.0771 62.5294L47.8373 35.0156L61.9686 62.202Z" fill="#5DD6DE"/>
<path d="M43.4991 97.0977H52.1758V83.3198H43.4991V97.0977Z" fill="#9DE4E9"/>
<path d="M66.8889 73.334H74.9707V65.8982H66.8889V73.334Z" fill="#5DD6DE"/>
<path d="M43.4993 73.334H51.5811V65.8982H43.4993V73.334Z" fill="#9DE4E9"/>
<path d="M84.2296 73.334H91.5898V65.8982H84.2296V73.334Z" fill="#5DD6DE"/>
<path d="M100.907 73.334H107.687V65.8982H100.907V73.334Z" fill="#5DD6DE"/>
<path d="M66.8889 90.6143H74.9707V83.1785H66.8889V90.6143Z" fill="#5DD6DE"/>
<path d="M84.2286 90.6143H91.5889V83.1785H84.2286V90.6143Z" fill="#5DD6DE"/>
<path d="M100.746 90.6143H108.106V83.1785H100.746V90.6143Z" fill="#5DD6DE"/>
<path fill-rule="evenodd" clip-rule="evenodd" d="M113.445 65.0146C113.559 65.0146 113.651 65.1065 113.651 65.2198V97.2786C113.651 97.3919 113.559 97.4837 113.445 97.4837H106.888C106.774 97.4837 106.682 97.3919 106.682 97.2786C106.682 97.1653 106.774 97.0735 106.888 97.0735H113.238V65.2198C113.238 65.1065 113.331 65.0146 113.445 65.0146Z" fill="#232735"/>
<path fill-rule="evenodd" clip-rule="evenodd" d="M61.9681 63.9658C62.082 63.9658 62.1744 64.0577 62.1744 64.1709V92.0319C62.1744 92.1452 62.082 92.2371 61.9681 92.2371C61.8541 92.2371 61.7617 92.1452 61.7617 92.0319V64.1709C61.7617 64.0577 61.8541 63.9658 61.9681 63.9658Z" fill="#232735"/>
<path d="M86.3984 50.6667V50.6659C86.3984 49.7162 85.626 48.9463 84.6732 48.9463H82.8056C81.8528 48.9463 81.0804 49.7162 81.0804 50.6659V50.6667C81.0804 51.6164 81.8528 52.3862 82.8056 52.3862H84.6732C85.626 52.3862 86.3984 51.6164 86.3984 50.6667Z" fill="#FBB400"/>
<path d="M86.6963 45.5426V45.5418C86.6963 44.5921 85.9239 43.8223 84.971 43.8223H83.1035C82.1506 43.8223 81.3782 44.5921 81.3782 45.5418V45.5426C81.3782 46.4923 82.1506 47.2622 83.1035 47.2622H84.971C85.9239 47.2622 86.6963 46.4923 86.6963 45.5426Z" fill="#FBB400"/>
<path d="M83.3426 52.347V31.0805C83.3406 30.3812 83.061 29.7111 82.5649 29.2166C82.0687 28.722 81.3964 28.4434 80.6947 28.4414C79.9931 28.4434 79.3207 28.722 78.8246 29.2166C78.3284 29.7111 78.0488 30.3812 78.0469 31.0805V52.347C78.0488 53.0463 78.3284 53.7165 78.8246 54.211C79.3207 54.7055 79.9931 54.9842 80.6947 54.9861C81.3963 54.9839 82.0685 54.7052 82.5646 54.2107C83.0607 53.7163 83.3404 53.0463 83.3426 52.347Z" fill="#FBB400"/>
<path d="M91.2479 31.3597C92.9131 25.6434 89.614 19.6642 83.8793 18.0047C78.1447 16.3452 72.1459 19.6338 70.4808 25.3501C68.8157 31.0663 72.1147 37.0455 77.8494 38.705C83.5841 40.3645 89.5828 37.0759 91.2479 31.3597Z" fill="#FCD960"/>
<path d="M87.7396 29.6308C88.5876 25.874 86.2196 22.1433 82.4504 21.2981C78.6812 20.4529 74.9382 22.8131 74.0902 26.5699C73.2422 30.3266 75.6102 34.0573 79.3794 34.9025C83.1486 35.7478 86.8916 33.3875 87.7396 29.6308Z" fill="#FBB400"/>
<path fill-rule="evenodd" clip-rule="evenodd" d="M73.9984 21.7198C73.8569 22.2674 73.6128 22.8958 73.1999 23.267C73.1599 23.3042 73.1296 23.3506 73.1115 23.4022C73.0935 23.4537 73.0884 23.5089 73.0965 23.5629C73.1047 23.6169 73.1259 23.6681 73.1583 23.7121C73.1907 23.756 73.2334 23.7915 73.2826 23.8154C73.8042 24.0688 74.2712 24.4209 74.6579 24.8521C74.6978 24.8999 74.7503 24.9358 74.8095 24.9558C74.8687 24.9757 74.9322 24.979 74.9932 24.9652C75.0541 24.9513 75.1099 24.921 75.1546 24.8774C75.1993 24.8339 75.231 24.7789 75.2462 24.7185C75.3793 24.1865 75.6294 23.6907 75.9785 23.267C76.0109 23.2274 76.0339 23.1811 76.0456 23.1314C76.0573 23.0817 76.0575 23.03 76.0462 22.9802C76.0349 22.9304 76.0123 22.8839 75.9802 22.8441C75.9481 22.8043 75.9073 22.7724 75.861 22.7507C75.3465 22.5033 74.9153 22.1122 74.6198 21.6249C74.5852 21.5671 74.5342 21.5209 74.4731 21.4923C74.4121 21.4636 74.3438 21.4537 74.2771 21.4639C74.2104 21.474 74.1482 21.5038 74.0985 21.5494C74.0489 21.595 74.014 21.6543 73.9984 21.7198Z" fill="white"/>
<path d="M21.9082 70.318L22.4791 71.3192C22.5932 71.5192 22.7756 71.6717 22.993 71.7489L23.8734 72.0623C23.9445 72.0875 24.0206 72.0951 24.0953 72.0846C24.1699 72.0741 24.2409 72.0456 24.3022 72.0018C24.3634 71.9579 24.4131 71.8999 24.4469 71.8328C24.4808 71.7656 24.4978 71.6912 24.4965 71.6161L23.7079 70.398C23.5167 70.1176 23.2325 69.9132 22.9053 69.8207L22.336 69.6475L21.9082 70.318Z" fill="#C95836"/>
<path d="M20.0941 103.754C25.6419 103.699 30.1344 103.155 30.1282 102.539C30.122 101.923 25.6196 101.469 20.0717 101.524C14.5238 101.579 10.0314 102.123 10.0376 102.739C10.0437 103.355 14.5462 103.809 20.0941 103.754Z" fill="#EFE5DA"/>
<path fill-rule="evenodd" clip-rule="evenodd" d="M22.9247 101.336L24.3868 101.011L24.1576 99.0551L22.4473 98.999L22.9247 101.336Z" fill="#C95836"/>
<path fill-rule="evenodd" clip-rule="evenodd" d="M19.3984 71.2926C22.441 74.7564 22.4501 73.6802 22.4501 73.6802C22.4501 73.6802 24.3375 85.3509 24.3027 85.7641L25.0789 99.0331C25.1161 99.6591 25.3453 100.233 24.7769 100.276L23.6019 100.386C22.5419 96.4278 18.8498 93.3054 19.9379 87.2379L16.2971 77.4962C11.8528 70.1751 19.3984 71.2926 19.3984 71.2926Z" fill="#5DD6DE"/>
<path fill-rule="evenodd" clip-rule="evenodd" d="M23.7271 100.374L22.2179 100.291C21.3184 100.374 21.8438 99.8269 21.6924 99.337C20.5745 95.714 18.9279 92.853 19.9357 87.235L16.2949 77.4933C17.1911 77.3283 18.0806 77.7885 18.3983 78.5861C19.4227 81.1666 23.234 98.0826 23.7271 100.374Z" fill="#43B2B5"/>
<path fill-rule="evenodd" clip-rule="evenodd" d="M16.8553 72.3564L15.8623 87.8267L14.7064 101.088L13.3229 100.805C12.7734 96.0789 10.0544 92.6481 11.7507 87.0317L11.1963 76.4207L14.1975 72.7465L16.8553 72.3564Z" fill="#C95836"/>
<path fill-rule="evenodd" clip-rule="evenodd" d="M16.8553 72.3564L15.888 87.4952L15.572 99.9956C15.5609 100.161 15.4849 100.316 15.3603 100.427C15.2357 100.538 15.0725 100.595 14.9059 100.587L12.464 100.542C12.3401 100.542 12.2205 100.496 12.1286 100.414C12.0368 100.331 11.9793 100.217 11.9676 100.094C11.9146 99.1131 11.9502 96.2274 11.8476 95.6575C11.4545 93.5008 10.8753 91.9825 11.2576 89.3459C11.5959 87.0971 11.6515 84.815 11.4231 82.5526L10.4814 73.7008L14.2546 72.7383L16.8553 72.3564Z" fill="#5DD6DE"/>
<path fill-rule="evenodd" clip-rule="evenodd" d="M14.5164 100.797C14.5164 100.797 15.1114 101.892 15.3067 102.567C15.324 102.624 15.3262 102.684 15.313 102.742C15.2998 102.8 15.2717 102.854 15.2314 102.897C15.1898 102.942 15.1383 102.977 15.0808 102.999C15.0233 103.021 14.9615 103.029 14.9004 103.023L14.1234 102.954C14.0042 102.944 13.891 102.897 13.799 102.821C13.7453 102.774 13.6799 102.719 13.6104 102.661C13.296 102.396 13.3166 102.12 13.3348 101.729C13.3442 101.441 13.3367 101.152 13.3125 100.864C13.8371 100.417 14.5164 100.797 14.5164 100.797Z" fill="#232735"/>
<path fill-rule="evenodd" clip-rule="evenodd" d="M11.0403 74.0566C11.0403 74.0566 16.5139 73.7036 17.9495 73.6962L11.013 71.8975C11.013 71.8975 10.9468 73.4174 11.0403 74.0566Z" fill="#728F3B"/>
<path fill-rule="evenodd" clip-rule="evenodd" d="M21.1357 69.6373C21.1357 69.6373 23.7257 67.0196 25.2995 64.9776C26.937 62.8531 28.8178 66.0432 27.4815 67.0518C26.9312 67.4642 22.6351 70.7326 22.6351 70.7326L21.1357 69.6373Z" fill="#C95836"/>
<path fill-rule="evenodd" clip-rule="evenodd" d="M19.4485 56.7405L16.9877 56.0708L16.0411 56.0361L12.3713 57.02C11.7674 57.2686 11.2776 57.7318 10.9969 58.3198C10.7162 58.9079 10.6646 59.5788 10.8521 60.2027L11.3014 64.2438C10.9605 67.8207 10.9869 70.9357 10.963 73.8758C10.9615 74.1334 11.0502 74.3835 11.2138 74.5829C11.3773 74.7823 11.6055 74.9187 11.8591 74.9686C15.4585 75.663 21.3285 76.2304 22.9404 74.1942C23.0819 67.7811 21.662 61.0439 19.4485 56.7405Z" fill="#ECF6F4"/>
<path fill-rule="evenodd" clip-rule="evenodd" d="M17.4948 75.6038C17.4948 75.6038 10.7609 68.8864 11.4229 62.1689L10.7924 67.6699C10.7924 67.6699 10.276 71.2987 10.0898 74.3708C10.0932 74.3708 12.6996 75.8281 17.4948 75.6038Z" fill="#9DE4E9"/>
<path d="M22.142 62.0654C22.142 62.0654 21.0282 59.9903 20.708 59.4658" stroke="#E3BDA8" stroke-width="2.65" stroke-linecap="round" stroke-linejoin="round"/>
<path fill-rule="evenodd" clip-rule="evenodd" d="M19.3301 58.2848C22.5803 58.1199 25.2447 61.121 27.6278 65.0204C27.8223 65.3379 25.7511 67.2001 25.4764 66.8694C23.5311 64.5066 20.9353 62.4538 20.9353 62.4538L19.3301 58.2848Z" fill="#C95836"/>
<path fill-rule="evenodd" clip-rule="evenodd" d="M18.3037 56.4277C21.7683 57.0702 22.3136 57.3127 23.4737 58.596C24.4459 59.6681 25.5001 60.9877 26.5063 62.0087C26.7752 62.2808 24.3739 63.4553 24.1381 63.8008C22.1216 66.755 18.8316 59.8899 18.8316 59.8899L18.3037 56.4277Z" fill="#ECF6F4"/>
<path fill-rule="evenodd" clip-rule="evenodd" d="M12.8753 58.5658C13.6432 63.9661 13.5372 61.6173 7.35946 66.1021C7.02268 66.3496 6.70825 65.0514 6.25894 65.1859C5.66152 65.3648 5.26599 65.5982 5.24779 65.4176C5.06078 63.8671 12.1256 58.4141 12.1256 58.4141L12.8753 58.5658Z" fill="#C95836"/>
<path fill-rule="evenodd" clip-rule="evenodd" d="M12.5667 57.0703C11.9343 57.2832 11.3408 57.5968 10.8092 57.999C10.2995 58.3825 9.37105 59.2146 8.34666 59.7556C7.97017 59.9544 7.10548 60.5655 7.08562 60.9977C6.97226 63.7819 9.58453 65.0924 9.58453 65.0924L14.8803 61.5214L12.5667 57.0703Z" fill="#ECF6F4"/>
<path fill-rule="evenodd" clip-rule="evenodd" d="M12.2215 70.643C12.214 70.2224 9.35766 66.4485 7.60676 65.547C6.76358 65.1124 6.24146 64.5681 5.79297 64.6877C4.84885 64.9392 4.6817 66.5689 5.65231 67.3507C6.24146 67.8257 10.7445 70.9251 10.7445 70.9251L12.2215 70.643Z" fill="#C95836"/>
<path d="M11.606 70.1797L10.5742 70.6984C10.368 70.8016 10.206 70.9756 10.1183 71.1883L9.75999 72.0485C9.73126 72.1178 9.71976 72.193 9.72647 72.2677C9.73319 72.3424 9.75791 72.4143 9.79855 72.4774C9.83918 72.5405 9.89452 72.5929 9.95984 72.6301C10.0252 72.6673 10.0985 72.6882 10.1737 72.691L11.4339 71.9669C11.7253 71.7909 11.945 71.5181 12.0545 71.1966L12.2556 70.6382L11.606 70.1797Z" fill="#C95836"/>
<path fill-rule="evenodd" clip-rule="evenodd" d="M24.3397 100.778L25.4981 101.618C25.7257 101.825 26.966 102.228 26.966 102.228C27.0893 102.485 26.8477 102.621 26.6425 102.655L22.9835 102.579C22.9835 102.579 22.1386 102.404 22.8883 100.78C23.5519 101.074 24.1667 101.283 24.3397 100.778Z" fill="#232735"/>
<path fill-rule="evenodd" clip-rule="evenodd" d="M18.4366 54.1765C18.4366 54.1765 19.3468 53.2808 18.3001 52.2252C17.2533 51.1695 16.9662 53.5241 16.9985 53.5563C17.0308 53.5885 18.4366 54.1765 18.4366 54.1765Z" fill="#572A22"/>
<path fill-rule="evenodd" clip-rule="evenodd" d="M15.1152 54.1606C15.1152 54.1606 15.2054 55.3829 16.1231 55.4513C17.0407 55.5198 17.1715 52.8848 17.1715 52.8848L15.1152 54.1606Z" fill="#572A22"/>
<path fill-rule="evenodd" clip-rule="evenodd" d="M17.9704 54.903C17.9704 54.903 17.8232 56.2168 17.7007 57.3055C17.6809 57.4517 17.62 57.5895 17.5252 57.7028C17.4303 57.8162 17.3053 57.9006 17.1645 57.9463C17.0135 57.998 16.8523 58.0135 16.6941 57.9914C16.536 57.9693 16.3853 57.9103 16.2543 57.8193L16.0061 57.6436C15.6461 57.3887 15.474 56.9789 15.565 56.5888L16.227 53.7715L17.9704 54.903Z" fill="#C95836"/>
<path fill-rule="evenodd" clip-rule="evenodd" d="M17.9627 55.7483L17.7931 56.4806L17.0352 55.7441L17.9627 55.7483Z" fill="#633C1D"/>
<path fill-rule="evenodd" clip-rule="evenodd" d="M15.7653 53.2951C15.7401 53.1116 15.7886 52.9256 15.9003 52.7776C16.0121 52.6296 16.178 52.5316 16.3619 52.505L17.6859 52.3228C18.0673 52.27 18.3594 52.552 18.4695 52.9232C18.5994 53.3611 18.6556 54.2988 18.6143 54.985C18.5911 55.3718 18.342 55.7594 17.9606 55.8097C17.5543 55.8658 16.2833 55.6448 16.0674 54.9264C15.9019 54.3813 15.8398 53.8543 15.7637 53.2926L15.7653 53.2951Z" fill="#C95836"/>
<path fill-rule="evenodd" clip-rule="evenodd" d="M14.9134 54.3876C14.9134 54.3876 14.7429 52.9031 15.3346 52.3563C16.1289 51.6248 17.1831 51.238 18.3002 52.2243C18.3002 52.2243 18.9224 52.621 16.8828 52.8396C16.6238 52.8676 16.9655 54.1097 16.6345 54.2086C16.1902 54.3423 15.6267 54.4157 14.9134 54.3876Z" fill="#572A22"/>
<path d="M16.2196 55.1739C16.4549 55.0582 16.5313 54.7336 16.3903 54.449C16.2493 54.1643 15.9443 54.0273 15.7091 54.143C15.4739 54.2587 15.3975 54.5833 15.5385 54.868C15.6794 55.1527 15.9844 55.2897 16.2196 55.1739Z" fill="#C95836"/>
<path fill-rule="evenodd" clip-rule="evenodd" d="M18.2594 54.6562L17.6504 54.7758C17.6504 54.7758 17.753 55.1965 18.0385 55.1057C18.3239 55.015 18.2594 54.6562 18.2594 54.6562Z" fill="white"/>
</svg>
