<svg width="584" height="469" viewBox="0 0 584 469" fill="none" xmlns="http://www.w3.org/2000/svg">
<g clip-path="url(#clip0_580_3011)">
<path d="M73.1846 41.7229C-45.2827 124.65 20.8397 324.343 181.682 369.504C230.173 383.112 300.875 393.474 357.256 378.65C476.447 347.317 545.938 325.31 582.545 251.478C616.482 183.05 544.694 65.1339 389.043 113.665C275.272 149.139 179.305 -32.5486 73.1846 41.7229Z" fill="#F9F9F9"/>
<path d="M302.101 427.67C383.704 427.67 449.857 422.487 449.857 416.094C449.857 409.7 383.704 404.517 302.101 404.517C220.497 404.517 154.344 409.7 154.344 416.094C154.344 422.487 220.497 427.67 302.101 427.67Z" fill="#E8E8E8"/>
<path d="M391.629 414.063H198.573C196.171 414.063 193.792 413.589 191.573 412.668C189.353 411.746 187.336 410.396 185.638 408.693C183.939 406.99 182.591 404.968 181.672 402.743C180.753 400.518 180.279 398.133 180.279 395.724V128.818C180.28 123.955 182.207 119.291 185.638 115.852C189.068 112.414 193.72 110.482 198.57 110.482H391.626C396.477 110.482 401.129 112.414 404.559 115.852C407.989 119.291 409.916 123.955 409.917 128.818V395.724C409.917 400.587 407.99 405.252 404.561 408.691C401.131 412.13 396.48 414.062 391.629 414.063Z" fill="#43B2B5"/>
<path d="M390.252 409.418L220.389 384.86L253.887 140.057L423.751 164.615L390.252 409.418Z" fill="#9DE4E9"/>
<path d="M375.703 139.598H204.082V393.382H375.703V139.598Z" fill="#ECF6F4"/>
<path d="M346.936 271.876H227.002C226.062 271.873 225.163 271.498 224.498 270.832C223.834 270.166 223.46 269.264 223.457 268.322C223.46 267.381 223.834 266.478 224.498 265.812C225.163 265.147 226.062 264.771 227.002 264.768H346.936C347.875 264.771 348.775 265.147 349.439 265.812C350.103 266.478 350.478 267.381 350.481 268.322C350.478 269.264 350.103 270.166 349.439 270.832C348.775 271.498 347.875 271.873 346.936 271.876Z" fill="white"/>
<path d="M346.936 304.206H227.002C226.062 304.203 225.163 303.828 224.498 303.162C223.834 302.496 223.46 301.594 223.457 300.652C223.46 299.711 223.834 298.809 224.498 298.143C225.163 297.477 226.062 297.102 227.002 297.099H346.936C347.875 297.102 348.775 297.477 349.439 298.143C350.103 298.809 350.478 299.711 350.481 300.652C350.478 301.594 350.103 302.496 349.439 303.162C348.775 303.828 347.875 304.203 346.936 304.206Z" fill="white"/>
<path d="M347.577 231.264H291.722C290.783 231.261 289.883 230.885 289.219 230.219C288.555 229.554 288.181 228.651 288.178 227.71C288.181 226.768 288.556 225.866 289.22 225.201C289.884 224.535 290.783 224.159 291.722 224.156H347.577C348.518 224.156 349.42 224.53 350.086 225.196C350.752 225.862 351.128 226.766 351.13 227.71C351.128 228.653 350.752 229.557 350.086 230.223C349.42 230.889 348.518 231.264 347.577 231.264Z" fill="white"/>
<path d="M347.577 196.664H291.722C290.781 196.661 289.879 196.284 289.214 195.615C288.55 194.946 288.177 194.04 288.178 193.096C288.181 192.155 288.556 191.253 289.22 190.587C289.884 189.922 290.783 189.546 291.722 189.542H347.577C348.516 189.545 349.416 189.921 350.079 190.587C350.743 191.253 351.117 192.155 351.119 193.096C351.12 194.04 350.748 194.946 350.084 195.615C349.42 196.284 348.518 196.661 347.577 196.664Z" fill="white"/>
<path d="M327.692 125.968H318.18C318.173 123.471 317.18 121.078 315.419 119.312C313.658 117.546 311.271 116.551 308.78 116.543H272.917C270.427 116.551 268.04 117.546 266.279 119.312C264.518 121.078 263.525 123.471 263.517 125.968H254.006C251.515 125.976 249.128 126.971 247.367 128.737C245.606 130.503 244.613 132.896 244.605 135.393C244.613 137.89 245.606 140.283 247.367 142.049C249.128 143.815 251.515 144.81 254.006 144.817H327.692C330.183 144.81 332.57 143.815 334.331 142.049C336.092 140.283 337.085 137.89 337.092 135.393C337.085 132.896 336.092 130.503 334.331 128.737C332.57 126.971 330.183 125.976 327.692 125.968Z" fill="#232735"/>
<path d="M298.479 361.43C314.305 367.615 326.642 325.395 326.642 325.395C326.642 325.395 318.328 353.36 321.279 357.394C324.231 361.427 329.594 357.932 338.445 355.242C347.297 352.552 347.832 357.932 347.832 357.932L355.075 354.168" stroke="#232735" stroke-width="5.91" stroke-linecap="round" stroke-linejoin="round"/>
<path d="M442.531 421.846C462.19 421.846 478.128 420.628 478.128 419.125C478.128 417.623 462.19 416.405 442.531 416.405C422.871 416.405 406.934 417.623 406.934 419.125C406.934 420.628 422.871 421.846 442.531 421.846Z" fill="#EFE5DA"/>
<path d="M423.197 402.63L431.059 403.853L429.66 413.591C429.656 413.638 429.636 413.681 429.602 413.712C429.568 413.744 429.524 413.762 429.478 413.762C427.896 413.863 426.311 413.951 424.722 414.026C424.258 414.049 423.748 414.057 423.365 413.799L423.197 402.63Z" fill="#C95836"/>
<path d="M452.028 327.35C449.689 324.798 440.865 323.606 440.295 327.07C439.108 334.284 438.185 379.539 436.249 409.816C430.548 410.139 427.398 407.962 418.462 407.62C420.552 374.942 416.554 343.024 418.837 307.328C427.848 308.204 433.88 307.466 442.896 308.341C443.848 308.434 447.843 310.164 448.57 310.807C449.44 311.575 449.644 312.868 449.723 314.055C450.011 318.7 454.221 323.398 452.028 327.35Z" fill="#9DE4E9"/>
<path d="M434.821 325.547C433.635 332.761 432.714 378.019 430.776 408.293C426.548 408.531 430.932 410.15 436.634 409.827C438.57 379.534 439.493 334.284 440.679 327.081C441.25 323.605 435.238 323.014 434.821 325.547Z" fill="#5DD6DE"/>
<path d="M461.853 403.151C461.825 403.185 461.797 403.219 461.452 403.564C461.539 407.387 460.767 408.837 460.851 412.66C459.214 412.781 458.434 415.26 456.794 415.35C456.333 415.375 456.845 413.249 456.447 412.952L453.121 402.666L461.853 403.151Z" fill="#C95836"/>
<path d="M438.311 306.823C441.59 340.326 444.871 373.845 449.353 407.886C453.11 406.203 455.569 410.164 461.548 408.007C463.576 407.278 465.784 408.369 465.784 408.369C466.343 407.782 465.884 401.71 465.901 400.857C466.147 386.383 464.365 378.451 462.452 362.597C461.576 339.855 462.242 324.34 460.012 305.752C451.958 305.802 446.508 306.975 438.47 307.23L438.118 307.247C438.003 307.334 437.894 307.421 438.311 306.823Z" fill="#9DE4E9"/>
<path d="M437.513 323.97H431.529" stroke="#5DD6DE" stroke-width="2.75" stroke-linecap="round" stroke-linejoin="round"/>
<path d="M385.905 273.859L381.613 273.966C380.745 273.982 379.897 273.696 379.216 273.155L376.418 270.956C376.192 270.791 376.01 270.573 375.888 270.321C375.766 270.07 375.706 269.792 375.716 269.512C375.725 269.232 375.803 268.958 375.942 268.715C376.081 268.472 376.277 268.267 376.513 268.118L381.929 268.289C383.212 268.363 384.432 268.872 385.39 269.731L387.105 271.209L385.905 273.859Z" fill="#C95836"/>
<path fill-rule="evenodd" clip-rule="evenodd" d="M382.184 272.199C382.184 272.199 392.21 284.412 398.86 291.649C405.784 299.18 411.45 286.897 406.098 283.447C403.893 282.028 386.671 270.853 386.671 270.853L382.184 272.199Z" fill="#C95836"/>
<path fill-rule="evenodd" clip-rule="evenodd" d="M432.817 246.801C432.817 246.801 430.02 243.421 433.816 240.349C437.612 237.278 437.92 245.258 437.797 245.35C437.674 245.443 432.817 246.801 432.817 246.801Z" fill="#572A22"/>
<path fill-rule="evenodd" clip-rule="evenodd" d="M443.942 248.194C443.942 248.194 443.299 252.228 440.208 252.054C437.116 251.88 437.41 243.05 437.41 243.05L443.942 248.194Z" fill="#572A22"/>
<path fill-rule="evenodd" clip-rule="evenodd" d="M434.18 249.421C434.18 249.421 434.309 253.861 434.415 257.555C434.447 258.061 434.615 258.549 434.902 258.967C435.189 259.385 435.583 259.717 436.043 259.928C436.522 260.165 437.051 260.287 437.585 260.282C438.12 260.277 438.646 260.146 439.121 259.9C439.426 259.737 439.722 259.577 440.002 259.423C440.606 259.125 441.101 258.644 441.419 258.049C441.736 257.454 441.86 256.774 441.773 256.105C441.266 252.68 440.352 246.436 440.352 246.436L434.166 249.435L434.18 249.421Z" fill="#C95836"/>
<path fill-rule="evenodd" clip-rule="evenodd" d="M433.975 252.242L434.338 254.758L437.08 252.635L433.975 252.242Z" fill="#633C1D"/>
<path fill-rule="evenodd" clip-rule="evenodd" d="M442.005 245.03C442.132 244.412 442.019 243.769 441.689 243.231C441.359 242.694 440.836 242.303 440.228 242.139L435.842 240.952C434.58 240.613 433.525 241.42 433.044 242.61C432.484 244.012 432.04 247.112 431.989 249.415C431.958 250.713 432.683 252.113 433.948 252.455C435.293 252.817 439.61 252.632 440.53 250.34C441.233 248.596 441.588 246.879 441.999 245.03H442.005Z" fill="#C95836"/>
<path fill-rule="evenodd" clip-rule="evenodd" d="M444.555 249.041C444.555 249.041 445.536 244.164 443.715 242.091C441.259 239.308 437.84 237.561 433.823 240.357C433.823 240.357 431.632 241.409 438.397 243.028C439.256 243.232 437.77 247.218 438.847 247.692C440.667 248.447 442.596 248.903 444.56 249.041H444.555Z" fill="#572A22"/>
<path d="M442.37 250.275C442.882 249.363 442.663 248.267 441.881 247.825C441.099 247.383 440.05 247.764 439.538 248.675C439.026 249.586 439.245 250.683 440.028 251.124C440.81 251.566 441.859 251.186 442.37 250.275Z" fill="#C95836"/>
<path fill-rule="evenodd" clip-rule="evenodd" d="M421.265 258.253L432.067 256.402L441.408 255.541L450.36 258.029C454.414 259.903 457.864 260.315 458.029 264.831L459.484 283.473C462.821 293.602 462.972 301.144 462.69 311.657C445.979 318.291 420.574 317.354 415.068 309.798C415.452 288.746 415.096 281.041 421.265 258.253Z" fill="white"/>
<path d="M432.155 256.402C432.155 256.402 429.109 265.684 435.451 265.939C441.793 266.194 444.557 256.551 444.557 256.551L439.801 254.615L432.155 256.402Z" fill="#C95836"/>
<path d="M421.497 258.25C421.497 258.25 417.535 258.811 407.841 272.761L401.088 278.497L388.728 271.327L385.844 277.703L399.379 293.248C399.379 293.248 404.507 296.614 407.318 293.529C410.13 290.443 419.348 280.082 419.348 280.082C419.348 280.082 424.89 259.981 421.497 258.25Z" fill="white"/>
<path d="M416.518 284.434C416.61 283.826 417.181 279.497 418.342 276.168" stroke="#8B939C" stroke-width="2.75" stroke-linecap="round" stroke-linejoin="round"/>
<path d="M456.985 261.633C456.985 261.633 448.455 267.743 450.83 273.902C450.83 273.902 460.303 298.866 462.546 302.535C465.554 307.464 467.288 297.012 467.288 297.012L478.649 288.942L470.033 291.551L469.641 277.807L456.985 261.633Z" fill="white"/>
<path d="M456.248 289.474L454.08 278.176" stroke="#8B939C" stroke-width="2.75" stroke-linecap="round" stroke-linejoin="round"/>
<path fill-rule="evenodd" clip-rule="evenodd" d="M456.215 412.447C456.215 412.447 455.233 416.466 455.273 418.954C455.29 419.191 455.358 419.42 455.47 419.629C455.582 419.837 455.737 420.019 455.924 420.163C456.306 420.49 456.797 420.66 457.298 420.637L460.118 420.416C460.52 420.399 460.899 420.226 461.176 419.933L461.699 419.356C462.574 418.388 462.183 417.364 461.671 415.925C461.315 414.878 461.017 413.813 460.778 412.733C458.305 411.064 456.215 412.447 456.215 412.447Z" fill="#232735"/>
<path d="M469.224 305.126L451.549 305.898C450.642 305.937 450.15 305.25 450.43 304.375L459.732 276.917C459.908 276.464 460.206 276.068 460.593 275.774C460.98 275.48 461.44 275.299 461.923 275.251L479.595 274.482C480.502 274.443 480.994 275.127 480.714 276.005L471.412 303.46C471.237 303.914 470.939 304.309 470.553 304.603C470.167 304.897 469.707 305.079 469.224 305.126Z" fill="#232735"/>
<path d="M475.224 294.499L477.969 292.07C478.523 291.574 478.883 290.897 478.984 290.159L479.418 287.127C479.456 286.889 479.436 286.645 479.362 286.415C479.287 286.186 479.159 285.977 478.988 285.807C478.818 285.637 478.609 285.509 478.38 285.436C478.151 285.362 477.907 285.344 477.669 285.383L474.391 288.642C473.633 289.433 473.171 290.461 473.081 291.553L473.003 292.339C472.972 292.675 473.047 293.012 473.219 293.303C473.391 293.593 473.65 293.821 473.96 293.954L475.224 294.499Z" fill="#C95836"/>
<path fill-rule="evenodd" clip-rule="evenodd" d="M423.458 411.824L419.41 415.148C418.467 415.99 413.442 417.605 413.442 417.605C412.905 418.64 413.851 419.187 414.665 419.325L429.316 419.016C429.316 419.016 432.726 418.312 429.99 411.779C427.277 412.957 424.071 413.849 423.458 411.824Z" fill="#232735"/>
<path d="M244.67 220.08C245.789 217.458 249.498 217.427 250.564 220.03C250.857 220.735 251.287 221.374 251.828 221.911C252.37 222.448 253.012 222.873 253.717 223.16C254.423 223.447 255.179 223.59 255.94 223.583C256.702 223.575 257.454 223.416 258.154 223.115L259.687 222.47C261.115 221.884 262.254 220.757 262.856 219.333C263.459 217.91 263.476 216.305 262.905 214.869C261.836 212.266 264.488 209.626 267.101 210.687C268.539 211.259 270.143 211.244 271.571 210.645C272.998 210.047 274.135 208.912 274.738 207.483L275.385 205.957C275.686 205.259 275.844 204.508 275.852 203.747C275.859 202.987 275.714 202.233 275.426 201.529C275.138 200.825 274.712 200.187 274.174 199.65C273.636 199.114 272.997 198.691 272.293 198.407C269.675 197.346 269.706 193.638 272.341 192.541C273.768 191.955 274.906 190.827 275.508 189.404C276.11 187.98 276.127 186.376 275.555 184.94L274.934 183.422C274.641 182.718 274.211 182.078 273.67 181.541C273.129 181.004 272.487 180.58 271.781 180.293C271.075 180.006 270.32 179.862 269.558 179.87C268.797 179.877 268.044 180.036 267.344 180.337C266.769 180.589 266.131 180.662 265.514 180.546C264.897 180.43 264.328 180.131 263.883 179.688C263.437 179.244 263.135 178.677 263.015 178.059C262.894 177.441 262.962 176.801 263.209 176.222C263.51 175.524 263.669 174.773 263.676 174.013C263.683 173.252 263.538 172.498 263.25 171.795C262.962 171.091 262.537 170.453 261.999 169.917C261.461 169.381 260.821 168.958 260.118 168.674L258.591 168.057C257.152 167.486 255.548 167.501 254.121 168.099C252.694 168.698 251.557 169.832 250.953 171.26C249.834 173.883 246.124 173.914 245.056 171.308C244.761 170.604 244.331 169.967 243.789 169.431C243.248 168.895 242.606 168.472 241.9 168.187C241.195 167.901 240.44 167.759 239.68 167.767C238.919 167.776 238.167 167.935 237.468 168.236L235.952 168.879C234.525 169.465 233.387 170.593 232.785 172.016C232.183 173.44 232.166 175.044 232.738 176.48C233.804 179.086 231.154 181.725 228.541 180.665C227.103 180.094 225.499 180.108 224.071 180.706C222.644 181.304 221.506 182.438 220.901 183.866L220.255 185.394C219.954 186.092 219.796 186.844 219.789 187.604C219.783 188.365 219.928 189.119 220.216 189.822C220.504 190.525 220.93 191.164 221.468 191.699C222.006 192.235 222.645 192.658 223.349 192.942C225.965 194.003 225.937 197.711 223.301 198.81C221.874 199.397 220.736 200.524 220.134 201.948C219.532 203.372 219.515 204.976 220.087 206.412L220.708 207.929C221.001 208.634 221.431 209.273 221.972 209.81C222.513 210.347 223.155 210.771 223.86 211.058C224.565 211.345 225.321 211.489 226.082 211.481C226.843 211.474 227.595 211.315 228.295 211.015C228.87 210.762 229.508 210.689 230.125 210.804C230.743 210.92 231.311 211.218 231.757 211.662C232.203 212.105 232.506 212.672 232.626 213.29C232.747 213.908 232.679 214.548 232.433 215.127C232.131 215.824 231.972 216.574 231.964 217.334C231.956 218.094 232.1 218.847 232.386 219.551C232.673 220.254 233.097 220.893 233.634 221.429C234.17 221.966 234.808 222.389 235.51 222.675L237.035 223.292C238.474 223.861 240.078 223.844 241.504 223.244C242.93 222.644 244.066 221.509 244.67 220.08ZM234.497 190.275C237.614 182.909 246.102 179.35 253.454 182.329C255.199 183.035 256.786 184.084 258.121 185.414C259.456 186.745 260.512 188.329 261.228 190.075C261.943 191.82 262.303 193.692 262.286 195.579C262.27 197.466 261.877 199.33 261.131 201.063C258.014 208.431 249.526 212.002 242.171 209.009C240.426 208.303 238.839 207.254 237.504 205.923C236.169 204.593 235.113 203.008 234.398 201.263C233.683 199.517 233.324 197.646 233.341 195.759C233.358 193.872 233.751 192.007 234.497 190.275Z" fill="#FCD960"/>
<path d="M253.431 210.218C261.405 206.738 265.055 197.437 261.585 189.443C258.115 181.449 248.838 177.789 240.865 181.268C232.891 184.747 229.241 194.048 232.711 202.043C236.181 210.037 245.458 213.697 253.431 210.218Z" fill="#FBB400"/>
</g>
<circle cx="21" cy="276" r="7.5" stroke="#FCD960" stroke-width="3"/>
<circle cx="493" cy="56" r="7.5" stroke="#FCD960" stroke-width="3"/>
<circle cx="82" cy="105" r="7.5" stroke="#FCD960" stroke-width="3"/>
<defs>
<clipPath id="clip0_580_3011">
<rect width="584" height="469" fill="white"/>
</clipPath>
</defs>
</svg>
