<svg xmlns="http://www.w3.org/2000/svg" width="22" height="22">
  <path d="M7.15 4.71c-.34 0-.67.14-.9.37-.25.24-.38.56-.38.9v2.5c0 .34.13.66.37.9.24.23.57.36.91.36h7.7c.34 0 .67-.13.9-.37.25-.23.38-.55.38-.88V5.97c0-.33-.13-.65-.37-.89a1.3 1.3 0 0 0-.91-.37h-7.7Zm0 1.26h7.7V8.5h-7.7V5.97Zm2.57 6.29c0-.34.13-.66.37-.9a1.3 1.3 0 0 1 1.82 0 1.24 1.24 0 0 1 0 1.79 1.3 1.3 0 0 1-1.82 0 1.24 1.24 0 0 1-.37-.9Zm1.28 2.2c-.34 0-.67.13-.9.37a1.24 1.24 0 0 0 0 1.77 1.3 1.3 0 0 0 1.8 0 1.24 1.24 0 0 0 0-1.77 1.3 1.3 0 0 0-.9-.37Zm2.57-2.2c0-.34.13-.66.37-.9a1.3 1.3 0 0 1 1.82 0 1.24 1.24 0 0 1 0 1.79 1.3 1.3 0 0 1-1.82 0 1.24 1.24 0 0 1-.37-.9Zm1.28 2.2c-.34 0-.67.13-.9.37a1.24 1.24 0 0 0 0 1.77 1.3 1.3 0 0 0 1.8 0 1.24 1.24 0 0 0 0-1.77 1.3 1.3 0 0 0-.9-.37Zm-8.98-2.2c0-.34.13-.66.37-.9a1.3 1.3 0 0 1 1.82 0 1.24 1.24 0 0 1 0 1.79 1.3 1.3 0 0 1-1.82 0 1.24 1.24 0 0 1-.37-.9Zm1.28 2.2c-.34 0-.67.13-.9.37a1.24 1.24 0 0 0 0 1.77 1.3 1.3 0 0 0 1.8 0 1.24 1.24 0 0 0 0-1.77 1.3 1.3 0 0 0-.9-.37ZM6.51 2.2c-.85 0-1.67.33-2.27.92-.6.59-.94 1.39-.94 2.22v11.32c0 .83.34 1.63.94 2.22.6.59 1.42.92 2.27.92h8.98c.85 0 1.67-.33 2.27-.92.6-.59.94-1.39.94-2.22V5.34c0-.83-.34-1.63-.94-2.22a3.24 3.24 0 0 0-2.27-.92H6.51ZM4.58 5.34c0-.5.2-.98.57-1.33.36-.35.85-.55 1.36-.55h8.98c.51 0 1 .2 1.36.55.36.35.57.83.57 1.33v11.32c0 .5-.2.98-.57 1.33-.36.35-.85.55-1.36.55H6.51c-.51 0-1-.2-1.36-.55a1.87 1.87 0 0 1-.57-1.33V5.34Z"/>
</svg>
