<svg xmlns="http://www.w3.org/2000/svg" width="36" height="35">
  <path d="M32.37 10c.2-.68 0-1.18-1-1.18H28.1c-.84 0-1.22.43-1.43.9 0 0-1.68 3.97-4.05 6.54-.76.75-1.11.98-1.53.98-.2 0-.5-.23-.5-.91V10c0-.82-.25-1.18-.95-1.18h-5.17c-.52 0-.83.38-.83.74 0 .77 1.18.94 1.3 3.11v4.71c0 1.03-.19 1.22-.6 1.22-1.12 0-3.83-3.98-5.44-8.53-.32-.89-.63-1.25-1.47-1.25h-3.3c-.93 0-1.12.43-1.12.9 0 .85 1.11 5.05 5.2 10.6 2.71 3.8 6.54 5.86 10.02 5.86 2.1 0 2.35-.46 2.35-1.25v-2.86c0-.92.2-1.1.86-1.1.49 0 1.32.24 3.27 2.07 2.23 2.16 2.6 3.14 3.86 3.14h3.28c.94 0 1.41-.46 1.14-1.36-.3-.9-1.36-2.2-2.77-3.75-.77-.88-1.92-1.83-2.27-2.3-.48-.61-.34-.88 0-1.42 0 0 4.01-5.49 4.43-7.35Z"/>
</svg>
