<svg xmlns="http://www.w3.org/2000/svg" width="22" height="22">
  <path d="M14.53 12.53c-.2-.1-1.14-.56-1.31-.62-.18-.07-.3-.1-.43.1-.13.18-.5.61-.61.74-.11.13-.22.13-.41.05-.2-.1-.81-.3-1.54-.96a5.73 5.73 0 0 1-1.07-1.32c-.11-.2-.01-.3.08-.4.09-.08.2-.22.3-.33.09-.12.12-.2.18-.32.07-.14.03-.24-.01-.34-.05-.1-.43-1.04-.6-1.41-.15-.38-.3-.33-.43-.33h-.36a.72.72 0 0 0-.51.22c-.18.2-.68.66-.68 1.59s.7 1.84.79 1.97c.1.13 1.35 2.05 3.27 2.88.46.2.82.3 1.1.4.45.15.87.13 1.2.08.37-.06 1.13-.46 1.3-.91.16-.46.16-.83.11-.92-.05-.09-.17-.13-.37-.22v.05Zm-3.49 4.73h-.01c-1.14 0-2.26-.31-3.25-.89l-.23-.14-2.4.63.64-2.34-.15-.24a6.34 6.34 0 0 1 5.4-9.72 6.33 6.33 0 0 1 5.9 3.92 6.37 6.37 0 0 1-5.9 8.77ZM16.47 5.5a7.8 7.8 0 0 0-5.44-2.21 7.66 7.66 0 0 0-6.64 11.45L3.3 18.7l4.07-1.06a7.66 7.66 0 0 0 11.33-6.7c0-2.04-.8-3.96-2.24-5.4V5.5Z"/>
</svg>
