<svg width="30" height="30" viewBox="0 0 30 30" fill="none" xmlns="http://www.w3.org/2000/svg">
<path fill-rule="evenodd" clip-rule="evenodd" d="M19.2276 3.15518C19.4722 3.05275 19.7348 3 20 3C20.2652 3 20.5278 3.05275 20.7724 3.15518C21.0156 3.25702 21.2363 3.40594 21.4217 3.59336L26.9925 9.16407C27.1799 9.3495 27.3288 9.57017 27.4306 9.81339C27.5331 10.058 27.5858 10.3206 27.5858 10.5858C27.5858 10.8511 27.5331 11.1136 27.4306 11.3583C27.3288 11.6015 27.1799 11.8221 26.9925 12.0075L11.7071 27.2929C11.5196 27.4805 11.2652 27.5858 11 27.5858H5C4.46957 27.5858 3.96086 27.3751 3.58579 27C3.21071 26.625 3 26.1163 3 25.5858V19.9998M5 20V25.5858H10.5858L25.5858 10.5858L25.5804 10.5805L20 5.00002L19.9946 5.00546L5 20Z" fill="#5DD6DE"/>
<path fill-rule="evenodd" clip-rule="evenodd" d="M10 26.5859C10 26.0337 10.4477 25.5859 11 25.5859H26C26.5523 25.5859 27 26.0337 27 26.5859C27 27.1382 26.5523 27.5859 26 27.5859H11C10.4477 27.5859 10 27.1382 10 26.5859Z" fill="#5DD6DE"/>
<path fill-rule="evenodd" clip-rule="evenodd" d="M15.5 7.08618C15.8905 6.69566 16.3168 6.48842 16.7073 6.87894L23.7073 13.8789C24.0979 14.2695 24.0979 14.9026 23.7073 15.2932C23.3168 15.6837 22.6836 15.6837 22.2931 15.2932L15.2931 8.29315C14.9026 7.90263 15.1095 7.47671 15.5 7.08618Z" fill="#5DD6DE"/>
</svg>
