<svg xmlns="http://www.w3.org/2000/svg" width="620" height="242">
  <path d="M108 238v-67l1-7V24l33-10a4537 4537 0 0 1-36 51l-38 54a8772 8772 0 0 0-31 44l-2-13h84l5-1h65v38H0v-30a5772 5772 0 0 0 48-67l29-41 15-22 16-22h44v233h-44ZM311 242c-17 0-32-3-44-9s-22-15-30-26-14-24-17-38a199 199 0 0 1 4-111c7-18 18-32 32-43 14-10 32-15 54-15 16 0 31 3 43 9s22 14 30 25 14 23 17 38a194 194 0 0 1-4 113c-7 18-18 32-32 42a89 89 0 0 1-53 15Zm-1-38c12 0 22-3 29-10 8-8 13-18 16-30 4-13 5-27 5-43 0-17-1-32-5-44-3-13-9-22-16-29-8-7-17-10-29-10-11 0-21 3-28 10-8 7-13 17-17 30-3 12-5 27-5 43s2 31 5 43c3 13 9 23 16 30s17 10 29 10ZM539 238v-67l1-7V24l32-10a4486 4486 0 0 1-35 51l-39 54a8799 8799 0 0 0-30 44l-2-13h84l5-1h65v38H431v-30a5746 5746 0 0 0 48-67l29-41 15-22 16-22h44v233h-44Z"/>
</svg>
