<svg xmlns="http://www.w3.org/2000/svg" width="144" height="12">
  <path d="M0 11.3 4.8.5h1.7l4.8 10.8h-2L8.2 8.7H3L2 11.3H0ZM3.8 7h3.7L5.6 2.7 3.8 7ZM24.7 11.6l-1.3-1.1c-1 .7-2 1-3.3 1-1.7 0-3-.5-4-1.6-1.1-1.1-1.6-2.4-1.6-4 0-1.5.5-2.8 1.6-4 1-1 2.4-1.5 4-1.5 1.7 0 3 .5 4 1.6 1.1 1 1.7 2.4 1.7 4 0 1.2-.4 2.3-1.2 3.2l1.3 1-1.2 1.4ZM20 9.8c.7 0 1.3-.2 1.9-.5L20 7.7l1.2-1.4 2 1.7c.3-.6.5-1.3.5-2 0-1.1-.4-2-1-2.8A3.5 3.5 0 0 0 20 2.1c-1 0-2 .4-2.6 1.1-.7.7-1 1.6-1 2.7 0 1 .3 2 1 2.7.7.8 1.5 1.2 2.6 1.2ZM35.4 11.5c-1.4 0-2.5-.4-3.3-1.2-.8-.8-1.3-2-1.3-3.6V.5h2v6.2c0 1 .2 1.7.7 2.2.4.6 1.1.8 2 .8.8 0 1.5-.2 2-.7.5-.5.7-1.3.7-2.3V.5h1.9v6.2c0 1.5-.4 2.7-1.2 3.5-.9.9-2 1.3-3.5 1.3ZM46.4 11.3V.5h1.9v10.8h-2ZM54.7 11.3V.5h1.9v9h5.7v1.8h-7.6ZM65.6 11.3 70.3.5h1.8L77 11.3h-2l-1.1-2.6h-5.1l-1.2 2.6h-2ZM69.3 7h3.8l-1.9-4.3L69.3 7ZM81.3 11.3V.5h2l3.3 5.1 3.3-5h2v10.7h-2V3.6l-3.3 5h-.1l-3.4-5v7.7h-1.8ZM97.6 11.3V.5h8v1.7h-6V5h5.4v1.7h-5.5v3h6.2v1.6h-8ZM111 11.3V.5h4c1.7 0 3 .6 4.1 1.6a5 5 0 0 1 1.6 3.8c0 1.6-.5 2.9-1.6 3.9-1 1-2.4 1.5-4.1 1.5h-4Zm1.8-1.7h2.1c1.2 0 2-.3 2.8-1 .6-.7 1-1.6 1-2.7 0-1-.4-1.9-1-2.6-.7-.7-1.6-1-2.8-1h-2v7.3ZM125.9 11.3V.5h1.9v10.8h-2ZM132.4 11.3 137.2.5h1.8l4.7 10.8h-2l-1-2.6h-5.2l-1 2.6h-2Zm3.8-4.3h3.7l-1.8-4.3-2 4.3Z"/>
</svg>
