<svg width="62" height="62" viewBox="0 0 62 62" fill="none" xmlns="http://www.w3.org/2000/svg">
<path fill-rule="evenodd" clip-rule="evenodd" d="M48.4369 46.5001C46.8953 46.5001 45.4168 45.8877 44.3268 44.7976C43.2367 43.7076 42.6243 42.2292 42.6243 40.6876C42.6243 39.146 43.2367 37.6676 44.3268 36.5775C45.4168 35.4875 46.8953 34.8751 48.4369 34.8751C49.9784 34.8751 51.4569 35.4875 52.5469 36.5775C53.637 37.6676 54.2494 39.146 54.2494 40.6876C54.2494 42.2292 53.637 43.7076 52.5469 44.7976C51.4569 45.8877 49.9784 46.5001 48.4369 46.5001ZM48.4369 49.0834C46.2101 49.0834 44.0746 48.1989 42.5001 46.6243C40.9256 45.0498 40.041 42.9143 40.041 40.6876C40.041 38.4609 40.9256 36.3254 42.5001 34.7508C44.0746 33.1763 46.2101 32.2917 48.4369 32.2917C50.6636 32.2917 52.7991 33.1763 54.3736 34.7508C55.9481 36.3254 56.8327 38.4609 56.8327 40.6876C56.8327 42.9143 55.9481 45.0498 54.3736 46.6243C52.7991 48.1989 50.6636 49.0834 48.4369 49.0834Z" fill="#5DD6DE"/>
<path fill-rule="evenodd" clip-rule="evenodd" d="M37.3376 13.6659C37.2341 13.4423 37.0688 13.253 36.8612 13.1202C36.6536 12.9875 36.4124 12.9169 36.166 12.9167H29.7077V15.5001H35.3406L47.2653 41.2301C47.4157 41.5302 47.677 41.76 47.9939 41.8707C48.3107 41.9815 48.6583 41.9646 48.9629 41.8235C49.2675 41.6825 49.5052 41.4284 49.6257 41.1151C49.7462 40.8018 49.74 40.4539 49.6084 40.1451L37.3376 13.6659ZM13.5618 46.5001C12.0203 46.5001 10.5418 45.8877 9.45179 44.7976C8.36174 43.7076 7.74935 42.2292 7.74935 40.6876C7.74935 39.146 8.36174 37.6676 9.45179 36.5775C10.5418 35.4875 12.0203 34.8751 13.5618 34.8751C15.1034 34.8751 16.5819 35.4875 17.6719 36.5775C18.762 37.6676 19.3743 39.146 19.3743 40.6876C19.3743 42.2292 18.762 43.7076 17.6719 44.7976C16.5819 45.8877 15.1034 46.5001 13.5618 46.5001ZM13.5618 49.0834C11.3351 49.0834 9.19962 48.1989 7.6251 46.6243C6.05057 45.0498 5.16602 42.9143 5.16602 40.6876C5.16602 38.4609 6.05057 36.3254 7.6251 34.7508C9.19962 33.1763 11.3351 32.2918 13.5618 32.2918C15.7886 32.2918 17.9241 33.1763 19.4986 34.7508C21.0731 36.3254 21.9577 38.4609 21.9577 40.6876C21.9577 42.9143 21.0731 45.0498 19.4986 46.6243C17.9241 48.1989 15.7886 49.0834 13.5618 49.0834Z" fill="#5DD6DE"/>
<path fill-rule="evenodd" clip-rule="evenodd" d="M27.7695 40.6876C27.7695 41.0301 27.6334 41.3587 27.3912 41.6009C27.149 41.8432 26.8204 41.9792 26.4779 41.9792H13.5612C13.2186 41.9792 12.8901 41.8432 12.6479 41.6009C12.4056 41.3587 12.2695 41.0301 12.2695 40.6876C12.2695 40.345 12.4056 40.0165 12.6479 39.7742C12.8901 39.532 13.2186 39.3959 13.5612 39.3959H26.4779C26.8204 39.3959 27.149 39.532 27.3912 39.7742C27.6334 40.0165 27.7695 40.345 27.7695 40.6876ZM40.0404 20.6667H29.6851C28.4183 20.6665 27.16 20.8733 25.9599 21.279L20.2507 23.21C20.06 23.2746 19.8869 23.383 19.7455 23.5264C19.604 23.6698 19.4981 23.8442 19.4361 24.0359C19.3741 24.2275 19.3577 24.431 19.3884 24.6301C19.4191 24.8292 19.4959 25.0183 19.6127 25.1824L25.2107 33.0409C25.3301 33.2086 25.4878 33.3453 25.6707 33.4396C25.8536 33.534 26.0564 33.5833 26.2622 33.5834H36.8112C37.1275 33.5832 37.4326 33.4669 37.6689 33.2566L43.4814 28.09L41.766 26.1602L36.3204 31.0001H26.9287L22.7256 25.101L26.7879 23.7267C27.7212 23.411 28.6998 23.25 29.6851 23.2501H40.0404V20.6667Z" fill="#5DD6DE"/>
<path fill-rule="evenodd" clip-rule="evenodd" d="M7.74935 25.8335H20.7732V23.2502H6.45768C6.11511 23.2502 5.78657 23.3862 5.54434 23.6285C5.3021 23.8707 5.16602 24.1993 5.16602 24.5418V29.0627C5.16591 29.3823 5.28431 29.6906 5.49831 29.928C5.71232 30.1653 6.00673 30.315 6.32464 30.3479L25.0538 32.2854L25.3199 29.715L7.74935 27.8976V25.8335ZM37.4577 31.0002H28.416C27.3883 31.0002 26.4027 31.4084 25.676 32.1351C24.9493 32.8618 24.541 33.8475 24.541 34.8752V38.7502C24.541 39.7779 24.9493 40.7635 25.676 41.4902C26.4027 42.2169 27.3883 42.6252 28.416 42.6252H33.5827C34.6104 42.6252 35.596 42.2169 36.3227 41.4902C37.0494 40.7635 37.4577 39.7779 37.4577 38.7502V31.0002ZM34.8743 33.5835V38.7502C34.8743 39.0927 34.7383 39.4213 34.496 39.6635C34.2538 39.9057 33.9253 40.0418 33.5827 40.0418H28.416C28.0734 40.0418 27.7449 39.9057 27.5027 39.6635C27.2604 39.4213 27.1243 39.0927 27.1243 38.7502V34.8752C27.1243 34.5326 27.2604 34.2041 27.5027 33.9618C27.7449 33.7196 28.0734 33.5835 28.416 33.5835H34.8743ZM46.9876 18.524C46.8662 18.3854 46.7167 18.2745 46.5489 18.1985C46.3812 18.1226 46.1991 18.0833 46.015 18.0835H37.4577V20.6668H45.4286L48.8192 24.5418H41.3327V27.1252H51.666C51.9143 27.1254 52.1574 27.054 52.3662 26.9196C52.575 26.7852 52.7407 26.5935 52.8433 26.3674C52.9459 26.1412 52.9812 25.8903 52.9449 25.6447C52.9086 25.399 52.8023 25.1691 52.6386 24.9823L46.9876 18.524Z" fill="#5DD6DE"/>
</svg>
