<svg width="62" height="62" viewBox="0 0 62 62" fill="none" xmlns="http://www.w3.org/2000/svg">
<path d="M52.3126 42.9002V19.1C53.6347 18.7612 54.8437 18.0785 55.8167 17.1214C56.7897 16.1642 57.492 14.9666 57.8525 13.6502C58.213 12.3338 58.2187 10.9455 57.869 9.62616C57.5194 8.30684 56.8268 7.10353 55.8617 6.13843C54.8966 5.17332 53.6933 4.48079 52.374 4.13115C51.0547 3.7815 49.6663 3.7872 48.3499 4.14766C47.0335 4.50812 45.836 5.21051 44.8788 6.1835C43.9216 7.15649 43.239 8.36544 42.9002 9.68758H19.1C18.7612 8.36544 18.0785 7.15649 17.1214 6.1835C16.1642 5.21051 14.9666 4.50812 13.6502 4.14766C12.3338 3.7872 10.9455 3.7815 9.62616 4.13115C8.30684 4.48079 7.10353 5.17332 6.13843 6.13843C5.17332 7.10353 4.48079 8.30684 4.13115 9.62616C3.7815 10.9455 3.7872 12.3338 4.14766 13.6502C4.50812 14.9666 5.21051 16.1642 6.1835 17.1214C7.15649 18.0785 8.36544 18.7612 9.68758 19.1V42.9002C8.36544 43.239 7.15649 43.9216 6.1835 44.8788C5.21051 45.836 4.50812 47.0335 4.14766 48.3499C3.7872 49.6663 3.7815 51.0547 4.13115 52.374C4.48079 53.6933 5.17332 54.8966 6.13843 55.8617C7.10353 56.8268 8.30684 57.5194 9.62616 57.869C10.9455 58.2187 12.3338 58.213 13.6502 57.8525C14.9666 57.492 16.1642 56.7897 17.1214 55.8167C18.0785 54.8437 18.7612 53.6347 19.1 52.3126H42.9002C43.239 53.6347 43.9216 54.8437 44.8788 55.8167C45.836 56.7897 47.0335 57.492 48.3499 57.8525C49.6663 58.213 51.0547 58.2187 52.374 57.869C53.6933 57.5194 54.8966 56.8268 55.8617 55.8617C56.8268 54.8966 57.5194 53.6933 57.869 52.374C58.2187 51.0547 58.213 49.6663 57.8525 48.3499C57.492 47.0335 56.7897 45.836 55.8167 44.8788C54.8437 43.9216 53.6347 43.239 52.3126 42.9002ZM50.3751 7.75008C51.1415 7.75008 51.8907 7.97735 52.5279 8.40314C53.1652 8.82893 53.6618 9.43412 53.9551 10.1422C54.2484 10.8502 54.3251 11.6294 54.1756 12.3811C54.0261 13.1327 53.6571 13.8232 53.1151 14.3651C52.5732 14.9071 51.8827 15.2761 51.1311 15.4256C50.3794 15.5751 49.6002 15.4984 48.8922 15.2051C48.1841 14.9118 47.5789 14.4152 47.1531 13.7779C46.7273 13.1407 46.5001 12.3915 46.5001 11.6251C46.5011 10.5977 46.9097 9.61266 47.6362 8.88618C48.3627 8.1597 49.3477 7.75111 50.3751 7.75008ZM7.75008 11.6251C7.75008 10.8587 7.97735 10.1095 8.40314 9.47225C8.82893 8.83501 9.43412 8.33834 10.1422 8.04505C10.8502 7.75176 11.6294 7.67502 12.3811 7.82454C13.1327 7.97406 13.8232 8.34312 14.3651 8.88504C14.9071 9.42697 15.2761 10.1174 15.4256 10.8691C15.5751 11.6208 15.4984 12.3999 15.2051 13.108C14.9118 13.816 14.4152 14.4212 13.7779 14.847C13.1407 15.2728 12.3915 15.5001 11.6251 15.5001C10.5977 15.4991 9.61266 15.0905 8.88618 14.364C8.1597 13.6375 7.75111 12.6525 7.75008 11.6251ZM11.6251 54.2501C10.8587 54.2501 10.1095 54.0228 9.47225 53.597C8.83501 53.1712 8.33834 52.566 8.04505 51.858C7.75176 51.1499 7.67502 50.3708 7.82454 49.6191C7.97406 48.8674 8.34312 48.177 8.88504 47.635C9.42697 47.0931 10.1174 46.7241 10.8691 46.5745C11.6208 46.425 12.3999 46.5018 13.108 46.795C13.816 47.0883 14.4212 47.585 14.847 48.2222C15.2728 48.8595 15.5001 49.6087 15.5001 50.3751C15.4991 51.4025 15.0905 52.3875 14.364 53.114C13.6375 53.8405 12.6525 54.2491 11.6251 54.2501ZM42.9002 48.4376H19.1C18.7529 47.1055 18.0568 45.8901 17.0834 44.9167C16.1101 43.9434 14.8947 43.2473 13.5626 42.9002V19.1C14.8946 18.7527 16.1099 18.0565 17.0832 17.0832C18.0565 16.1099 18.7527 14.8946 19.1 13.5626H42.9002C43.2473 14.8947 43.9434 16.1101 44.9167 17.0834C45.8901 18.0568 47.1055 18.7529 48.4376 19.1V42.9002C47.1054 43.2471 45.8899 43.9431 44.9165 44.9165C43.9431 45.8899 43.2471 47.1054 42.9002 48.4376ZM50.3751 54.2501C49.6087 54.2501 48.8595 54.0228 48.2222 53.597C47.585 53.1712 47.0883 52.566 46.795 51.858C46.5018 51.1499 46.425 50.3708 46.5745 49.6191C46.7241 48.8674 47.0931 48.177 47.635 47.635C48.177 47.0931 48.8674 46.7241 49.6191 46.5745C50.3708 46.425 51.1499 46.5018 51.858 46.795C52.566 47.0883 53.1712 47.585 53.597 48.2222C54.0228 48.8595 54.2501 49.6087 54.2501 50.3751C54.2485 51.4023 53.8398 52.3871 53.1134 53.1134C52.3871 53.8398 51.4023 54.2485 50.3751 54.2501Z" fill="#5DD6DE"/>
</svg>
