<svg width="639" height="446" viewBox="0 0 639 446" fill="none" xmlns="http://www.w3.org/2000/svg">
<g clip-path="url(#clip0_389_3809)">
<path d="M22.0474 317.52C22.0474 317.52 -16.9712 236.529 30.7968 189.213C78.5649 141.896 133.584 195.432 180.742 158.745C227.9 122.058 212.175 32.7839 337.246 19.5367C462.317 6.28939 474.794 164.754 525.859 165.934C525.859 165.934 631.646 166.226 639.471 278.832C647.295 391.437 443.703 427.802 345.564 287.377C247.425 146.951 135.321 505.154 22.0474 317.52Z" fill="#F9F9F9"/>
<path d="M336.722 427.948C456.139 427.948 552.945 418.934 552.945 407.814C552.945 396.695 456.139 387.681 336.722 387.681C217.305 387.681 120.499 396.695 120.499 407.814C120.499 418.934 217.305 427.948 336.722 427.948Z" fill="#E8E8E8"/>
<path d="M604.252 141.632L447.982 105.649L404.159 296.061L560.428 332.044L604.252 141.632Z" fill="#ECF6F4"/>
<path d="M563.479 195.145L461.255 171.606L458.963 181.563L561.187 205.101L563.479 195.145Z" fill="#9DE4E9"/>
<path d="M569.131 161.22L468.958 138.154L466.666 148.111L566.839 171.177L569.131 161.22Z" fill="#9DE4E9"/>
<path d="M555.384 230.329L453.16 206.79L450.869 216.747L553.092 240.286L555.384 230.329Z" fill="#9DE4E9"/>
<path d="M546.706 267.605L444.482 244.067L442.191 254.023L544.415 277.562L546.706 267.605Z" fill="#9DE4E9"/>
<path d="M221.833 408.153H499.717C503.979 408.153 508.066 406.461 511.079 403.45C514.093 400.438 515.786 396.353 515.787 392.093V222.97C515.787 219.248 515.053 215.562 513.628 212.123C512.203 208.684 510.114 205.559 507.481 202.927C504.847 200.295 501.721 198.207 498.281 196.783C494.84 195.359 491.153 194.626 487.429 194.626H228.763C223.59 194.626 218.469 195.644 213.69 197.622C208.912 199.6 204.57 202.499 200.912 206.155C197.255 209.811 194.354 214.151 192.374 218.928C190.395 223.704 189.377 228.824 189.377 233.994V375.726C189.38 384.328 192.801 392.577 198.887 398.658C204.974 404.739 213.228 408.155 221.833 408.153Z" fill="#43B2B5"/>
<path d="M415.276 161.716V196.989H396.374V164.866H312.74V196.989H291.461V161.716C291.461 155.911 293.768 150.344 297.874 146.24C301.98 142.135 307.55 139.829 313.357 139.829H393.38C399.187 139.829 404.757 142.135 408.863 146.24C412.969 150.344 415.276 155.911 415.276 161.716Z" fill="#43B2B5"/>
<path d="M487.429 194.626H471.023V408.159H499.718C503.979 408.159 508.067 406.467 511.08 403.454C514.094 400.442 515.787 396.356 515.787 392.096V222.97C515.787 219.248 515.053 215.562 513.628 212.123C512.203 208.684 510.114 205.559 507.481 202.927C504.848 200.295 501.722 198.207 498.281 196.783C494.841 195.359 491.153 194.626 487.429 194.626Z" fill="#232735"/>
<path d="M493.261 246.923L515.787 222.97C515.787 219.248 515.053 215.562 513.628 212.123C512.203 208.684 510.114 205.559 507.481 202.927C504.847 200.295 501.721 198.207 498.281 196.783C494.84 195.359 491.153 194.626 487.429 194.626H228.763C223.59 194.626 218.469 195.644 213.69 197.622C208.912 199.6 204.57 202.499 200.912 206.155C197.255 209.811 194.354 214.151 192.374 218.928C190.395 223.704 189.377 228.824 189.377 233.994L195.956 241.521C273.993 330.785 412.035 333.292 493.261 246.923Z" fill="#9DE4E9"/>
<path d="M371.079 284.694H291.681C284.754 284.694 279.139 290.307 279.139 297.231V311.279C279.139 318.203 284.754 323.816 291.681 323.816H371.079C378.006 323.816 383.621 318.203 383.621 311.279V297.231C383.621 290.307 378.006 284.694 371.079 284.694Z" fill="white"/>
<path d="M354.092 314.21H306.065C303.424 314.21 300.891 313.161 299.023 311.294C297.155 309.427 296.105 306.894 296.105 304.254C296.105 301.613 297.155 299.081 299.023 297.214C300.891 295.347 303.424 294.298 306.065 294.298H354.103C356.744 294.298 359.277 295.347 361.145 297.214C363.013 299.081 364.062 301.613 364.062 304.254C364.062 305.562 363.804 306.858 363.303 308.066C362.802 309.275 362.067 310.373 361.141 311.298C360.215 312.222 359.116 312.955 357.907 313.455C356.697 313.955 355.401 314.211 354.092 314.21Z" fill="#FBB400"/>
<path fill-rule="evenodd" clip-rule="evenodd" d="M178.469 281.107C179.732 281.694 181.157 283.835 181.793 285.065C182.717 286.853 182.848 289.138 181.758 290.83C180.495 292.784 177.942 293.524 175.617 293.441C173.6 293.367 171.631 292.801 169.884 291.791C167.4 290.353 165.499 288.092 163.897 285.711C159.457 279.11 155.66 268.957 157.94 260.947C164.517 263.578 165.211 264.264 167.12 266.669C169.029 269.074 170.137 272.008 171.315 274.834C172.493 277.661 173.336 279.543 174.567 281.35C175.143 280.979 175.803 280.763 176.486 280.72C177.169 280.678 177.852 280.811 178.469 281.107Z" fill="white"/>
<path d="M156.801 410.353H156.82C157.225 410.348 157.611 410.182 157.894 409.893C158.177 409.604 158.333 409.214 158.329 408.81L157.295 323.498C157.29 323.097 157.128 322.714 156.842 322.433C156.557 322.151 156.172 321.993 155.771 321.993H155.752C155.552 321.995 155.353 322.037 155.169 322.115C154.985 322.194 154.818 322.308 154.678 322.452C154.537 322.595 154.427 322.764 154.352 322.95C154.278 323.136 154.241 323.335 154.243 323.536L155.277 408.844C155.282 409.246 155.444 409.629 155.73 409.911C156.015 410.193 156.4 410.352 156.801 410.353Z" fill="#232735"/>
<path d="M171.799 314.367H141.151C136.095 314.367 131.997 318.464 131.997 323.517C131.997 328.57 136.095 332.667 141.151 332.667H171.799C176.855 332.667 180.953 328.57 180.953 323.517C180.953 318.464 176.855 314.367 171.799 314.367Z" fill="#232735"/>
<path d="M179.496 408.69H179.603C180.007 408.661 180.382 408.473 180.648 408.168C180.913 407.863 181.046 407.465 181.018 407.061L178.589 372.576L175.651 328.396C175.614 328.001 175.423 327.635 175.12 327.378C174.817 327.121 174.426 326.992 174.029 327.018C173.633 327.044 173.262 327.224 172.996 327.52C172.73 327.815 172.59 328.202 172.605 328.599L175.542 372.784L177.974 407.275C178.002 407.659 178.174 408.019 178.457 408.282C178.739 408.544 179.111 408.69 179.496 408.69Z" fill="#232735"/>
<path d="M138.804 368.516H138.828L173.808 367.982C174.202 367.963 174.573 367.793 174.844 367.507C175.115 367.221 175.264 366.841 175.262 366.447C175.259 366.053 175.104 365.675 174.829 365.393C174.554 365.11 174.181 364.945 173.787 364.932H173.763L138.783 365.465C138.389 365.484 138.018 365.655 137.747 365.941C137.476 366.227 137.326 366.607 137.329 367.001C137.332 367.395 137.487 367.773 137.762 368.055C138.037 368.338 138.41 368.503 138.804 368.516Z" fill="#232735"/>
<path d="M135.537 408.895C135.925 408.895 136.299 408.747 136.581 408.481C136.864 408.215 137.034 407.852 137.057 407.465L141.989 326.298C142.013 325.895 141.876 325.498 141.607 325.195C141.339 324.892 140.961 324.708 140.558 324.684C140.358 324.671 140.159 324.699 139.97 324.764C139.782 324.829 139.608 324.931 139.459 325.064C139.31 325.197 139.189 325.358 139.102 325.537C139.016 325.717 138.966 325.912 138.955 326.112L134.026 407.278C134.002 407.682 134.139 408.078 134.408 408.381C134.676 408.684 135.053 408.868 135.457 408.893L135.537 408.895Z" fill="#232735"/>
<path d="M177.566 345.687C176.783 349.896 175.696 354.042 174.314 358.093C173.977 359.081 173.617 360.098 173.692 361.152C173.692 361.216 173.692 361.283 173.71 361.347C173.85 362.351 174.372 363.262 175.169 363.889C175.965 364.516 176.974 364.81 177.983 364.71C178.289 364.704 178.589 364.627 178.86 364.485C179.131 364.343 179.366 364.139 179.545 363.891C182.618 359.724 185.395 353.158 188.45 348.944C185.074 347.146 181.374 346.039 177.566 345.687Z" fill="#C95836"/>
<path d="M174.514 395.875C176.521 398.924 178.305 402.113 179.854 405.417C180.231 406.218 180.612 407.064 181.275 407.662L181.4 407.769C181.734 408.031 182.117 408.225 182.526 408.34C182.935 408.454 183.362 408.487 183.784 408.436C184.206 408.385 184.613 408.251 184.983 408.042C185.353 407.833 185.678 407.554 185.94 407.219C186.12 407.028 186.255 406.799 186.334 406.548C186.412 406.297 186.433 406.032 186.393 405.772C185.785 401.363 183.592 395.672 182.944 391.241C179.851 392.205 176.984 393.781 174.514 395.875Z" fill="#C95836"/>
<path fill-rule="evenodd" clip-rule="evenodd" d="M180.378 361.891L181.275 368.5C181.44 369.765 183.285 374.303 183.285 374.303C182.989 375.451 181.859 375.24 181.117 374.802L172.821 366.053C172.821 366.053 168.901 362.033 174.212 358.833C175.534 361.547 178.476 363.036 180.378 361.891Z" fill="#232735"/>
<path fill-rule="evenodd" clip-rule="evenodd" d="M147.83 243.525C146.666 243.146 145.579 244.326 144.914 245.348C143.579 247.433 143.718 249.787 142.511 251.923C141.248 254.077 139.894 256.994 141.456 259.151C144.928 262.621 147.942 259.989 150.385 259.436C152.255 259.097 152.42 260.181 154.276 260.616C157.24 261.596 161 259.815 161.344 256.044C161.584 253.404 159.08 251.952 157.977 250.46C156.909 249.029 156.938 248.186 156.006 246.667C154.396 243.218 149.419 240.979 147.83 243.525Z" fill="#663A24"/>
<path fill-rule="evenodd" clip-rule="evenodd" d="M152.303 350.913C159.046 367.905 164.127 385.628 172.947 401.627C182.827 402.468 182.634 395.937 188.127 394.954C178.581 372.792 170.858 349.89 165.032 326.474C163.457 320.138 162.02 313.761 160.226 307.481C159.289 304.208 158.015 300.65 155.03 299.009C152.426 297.578 149.112 298.04 146.485 299.444C143.857 300.848 139.072 301.416 136.466 303.368C136.343 303.784 137.622 313.892 152.303 350.913Z" fill="#9DE4E9"/>
<path fill-rule="evenodd" clip-rule="evenodd" d="M161.408 301.852C172.617 303.158 183.495 306.491 193.512 311.687C196.679 313.332 199.99 315.448 201.082 318.841C202.211 322.353 200.615 326.103 199.05 329.445C194.348 339.495 186.067 357.076 186.198 357.167C181.966 354.973 177.365 356.099 173.133 353.895C175.83 343.944 178.786 333.529 186.217 326.258C176.649 324.81 166.999 323.972 157.325 323.749C155.323 315.815 153.955 307.734 153.234 299.583C156.529 300.597 159.827 301.611 163.058 302.69C162.885 302.516 162.706 302.345 161.408 301.852Z" fill="#9DE4E9"/>
<path fill-rule="evenodd" clip-rule="evenodd" d="M147.606 257.698C144.295 258.982 140.931 260.29 138.111 262.436C135.291 264.582 133.008 267.716 132.717 271.244C132.559 273.171 132.984 275.096 133.417 276.98C135.355 285.522 130.578 290.377 132.517 298.913C132.912 300.658 134.426 313.406 136.052 314.154C151.566 321.294 168.808 305.372 174.193 305.124C175.809 305.049 175.192 302.684 174.049 301.542C169.51 297.004 166.826 286.768 166.816 282.884C166.816 277.749 165.307 279.252 165.294 274.116C165.294 271.93 165.275 269.693 164.527 267.638C163.358 264.414 160.493 262.033 157.347 260.669C154.201 259.305 150.752 258.817 147.339 258.072C147.454 258.165 147.59 258.251 147.606 257.698Z" fill="white"/>
<path fill-rule="evenodd" clip-rule="evenodd" d="M180.444 289.688C180.93 289.447 181.389 289.154 181.811 288.813L194.882 271.463L189.993 269.483L177.87 280.279L175.493 282.588C171.929 286.045 175.987 291.882 180.444 289.688Z" fill="#C95836"/>
<path fill-rule="evenodd" clip-rule="evenodd" d="M185.904 402.289L191.279 406.239C192.307 407 196.849 408.831 196.849 408.831C197.469 409.843 196.531 410.507 195.701 410.734L183.634 410.614C183.634 410.614 178.027 410.636 179.413 404.595C182.288 405.521 185.413 404.451 185.904 402.289Z" fill="#232735"/>
<path fill-rule="evenodd" clip-rule="evenodd" d="M144.269 258.99C147.155 263.36 152.317 270.451 152.317 270.451C152.674 266.773 153.582 263.169 155.008 259.759C152.09 258.336 150.309 255.969 147.676 255.235C147.721 255.299 146.653 257.848 144.269 258.99Z" fill="#C95836"/>
<path d="M191.016 272.776L195.951 273.665C196.938 273.836 197.954 273.647 198.813 273.131L202.306 271.063C202.587 270.896 202.823 270.663 202.995 270.385C203.167 270.107 203.269 269.791 203.293 269.465C203.317 269.139 203.261 268.812 203.131 268.512C203.001 268.212 202.8 267.948 202.546 267.742L196.287 266.998C194.817 266.854 193.343 267.232 192.124 268.065L189.964 269.488L191.016 272.776Z" fill="#C95836"/>
<path fill-rule="evenodd" clip-rule="evenodd" d="M137.895 296.233C136.277 297.64 135.096 299.27 134.536 300.976C134.139 302.221 134.116 303.556 134.472 304.814C134.827 306.072 135.543 307.198 136.533 308.052L151.788 321.382L154.13 316.649L144.25 303.779L137.895 296.233Z" fill="#C95836"/>
<path fill-rule="evenodd" clip-rule="evenodd" d="M139.328 261.582C131.4 265.281 131.87 270.342 130.784 276.23C129.697 282.119 130.14 288.167 130.586 294.135C130.784 296.77 130.701 299.74 132.471 301.699C134.546 304 139.948 302.869 142.105 300.658C143.956 298.771 143.195 297.092 143.304 294.453C143.769 283.298 143.924 272.253 139.328 261.582Z" fill="white"/>
<path d="M150.856 317.477L149.636 322.244C149.394 323.197 149.502 324.204 149.941 325.084L151.716 328.642C151.859 328.929 152.07 329.178 152.33 329.365C152.59 329.553 152.892 329.675 153.21 329.721C153.528 329.767 153.852 329.735 154.154 329.628C154.457 329.521 154.729 329.342 154.947 329.106L156.125 323.034C156.37 321.606 156.104 320.138 155.374 318.886L154.13 316.674L150.856 317.477Z" fill="#C95836"/>
<path fill-rule="evenodd" clip-rule="evenodd" d="M138.921 276.183C139.123 276.088 139.364 276.175 139.459 276.376L140.61 278.813C140.639 278.874 140.652 278.941 140.648 279.009L140.245 278.985C140.648 279.009 140.648 279.009 140.648 279.009L140.645 279.053L140.638 279.182C140.631 279.295 140.622 279.462 140.611 279.674C140.588 280.099 140.556 280.708 140.523 281.442C140.455 282.911 140.378 284.881 140.34 286.888C140.301 288.897 140.302 290.935 140.388 292.542C140.431 293.347 140.495 294.033 140.584 294.55C140.629 294.809 140.678 295.014 140.73 295.167C140.755 295.243 140.78 295.299 140.801 295.339C140.824 295.381 140.837 295.395 140.837 295.395C140.996 295.551 140.999 295.806 140.843 295.965C140.687 296.124 140.431 296.127 140.271 295.971C140.125 295.827 140.031 295.622 139.964 295.426C139.894 295.218 139.836 294.967 139.788 294.687C139.691 294.125 139.625 293.403 139.581 292.585C139.493 290.949 139.493 288.888 139.532 286.873C139.57 284.856 139.648 282.879 139.715 281.405C139.749 280.669 139.781 280.058 139.804 279.631C139.815 279.418 139.824 279.25 139.831 279.136L139.835 279.064L138.728 276.72C138.633 276.518 138.719 276.278 138.921 276.183Z" fill="#8B939C"/>
<path fill-rule="evenodd" clip-rule="evenodd" d="M162.637 314.848C162.683 315.066 162.542 315.28 162.324 315.325C162.114 315.369 161.897 315.642 161.888 315.989C161.889 315.995 161.892 316.012 161.9 316.044C161.913 316.097 161.934 316.17 161.964 316.263C162.022 316.448 162.109 316.696 162.218 316.993C162.412 317.527 162.672 318.206 162.955 318.945C162.986 319.027 163.018 319.11 163.05 319.193C163.684 320.852 164.411 322.767 164.742 323.936C164.803 324.15 164.679 324.373 164.464 324.434C164.249 324.494 164.026 324.37 163.965 324.155C163.645 323.029 162.934 321.154 162.295 319.481C162.263 319.397 162.231 319.314 162.199 319.231C161.917 318.494 161.655 317.809 161.458 317.269C161.349 316.969 161.257 316.709 161.193 316.506C161.161 316.406 161.134 316.315 161.115 316.238C161.099 316.173 161.078 316.08 161.079 315.994C161.086 315.408 161.448 314.684 162.159 314.536C162.378 314.49 162.592 314.63 162.637 314.848Z" fill="#1567C6"/>
<path fill-rule="evenodd" clip-rule="evenodd" d="M163.348 275.525C163.57 275.549 163.73 275.747 163.707 275.968L163.594 277.04L167.824 288.743C167.9 288.952 167.791 289.183 167.581 289.259C167.371 289.335 167.14 289.226 167.064 289.016L162.802 277.227C162.782 277.17 162.774 277.108 162.781 277.048L162.903 275.884C162.927 275.663 163.126 275.502 163.348 275.525Z" fill="#8B939C"/>
<path fill-rule="evenodd" clip-rule="evenodd" d="M152.036 258.579C152.779 260.621 153.815 262.543 155.112 264.286C155.293 264.535 155.537 264.731 155.818 264.854C156.1 264.977 156.41 265.022 156.715 264.986C157.02 264.949 157.31 264.831 157.555 264.645C157.799 264.458 157.989 264.21 158.106 263.926C158.327 263.376 158.573 262.831 158.792 262.281C159.439 260.699 159.439 258.926 158.792 257.343C156.722 252.446 152.156 258.574 152.036 258.579Z" fill="#663A24"/>
<path fill-rule="evenodd" clip-rule="evenodd" d="M153.436 253.524L152.333 260.877C152.269 261.311 152.091 261.72 151.817 262.063C151.543 262.406 151.183 262.67 150.774 262.828C150.365 262.984 149.923 263.028 149.492 262.954C149.061 262.88 148.658 262.692 148.325 262.409L147.679 261.875C147.219 261.485 146.878 260.972 146.697 260.396C146.515 259.821 146.5 259.205 146.654 258.622L148.87 250.008L153.439 253.524H153.436Z" fill="#C95836"/>
<path fill-rule="evenodd" clip-rule="evenodd" d="M153.291 255.742L152.744 258.125L150.781 255.702L153.291 255.742Z" fill="#873B24"/>
<path fill-rule="evenodd" clip-rule="evenodd" d="M146.831 249.088C146.656 248.546 146.703 247.956 146.961 247.448C147.219 246.94 147.667 246.555 148.208 246.376L152.118 245.113C153.239 244.75 154.272 245.447 154.804 246.512C155.431 247.772 156.104 250.583 156.347 252.683C156.483 253.866 155.941 255.174 154.817 255.537C153.621 255.924 149.661 255.929 148.625 253.874C147.824 252.309 147.365 250.759 146.831 249.088Z" fill="#C95836"/>
<path fill-rule="evenodd" clip-rule="evenodd" d="M145.365 250.58C146.826 251.303 147.905 250.769 148.922 250.046C149.43 249.685 149.848 249.212 150.145 248.665C150.442 248.117 150.609 247.508 150.634 246.886C151.114 247.356 151.702 247.701 152.347 247.891C152.992 248.08 153.673 248.109 154.332 247.975C154.935 247.844 155.574 247.494 155.71 246.891C155.886 246.09 155.104 245.423 154.375 245.052C153 244.313 151.446 243.977 149.889 244.08C149.114 244.138 148.36 244.356 147.674 244.721C146.988 245.085 146.386 245.588 145.905 246.197C144.978 247.441 144.732 249.208 145.424 250.585C145.424 250.609 145.424 250.622 145.365 250.58Z" fill="#663A24"/>
<path fill-rule="evenodd" clip-rule="evenodd" d="M146.3 253.628C146.893 254.402 147.889 254.629 148.521 254.135C149.154 253.641 149.186 252.608 148.594 251.834C148.001 251.06 146.991 250.833 146.369 251.327C145.747 251.821 145.704 252.854 146.3 253.628Z" fill="#C95836"/>
<path fill-rule="evenodd" clip-rule="evenodd" d="M155.297 251.96L153.428 252.571C153.428 252.571 153.89 253.849 154.747 253.446C155.604 253.043 155.297 251.96 155.297 251.96Z" fill="white"/>
<circle cx="67" cy="207" r="7.5" stroke="#FCD960" stroke-width="3"/>
<circle cx="582" cy="43" r="7.5" stroke="#FCD960" stroke-width="3"/>
<circle cx="133" cy="92" r="7.5" stroke="#FCD960" stroke-width="3"/>
</g>
<defs>
<clipPath id="clip0_389_3809">
<rect width="639" height="446" fill="white"/>
</clipPath>
</defs>
</svg>
