<svg width="669" height="546" viewBox="0 0 669 546" fill="none" xmlns="http://www.w3.org/2000/svg">
<path d="M455.432 3.18647C285.66 -13.6007 98.5187 66.4183 38.006 200.716C-22.5067 335.014 206.657 522.472 328.243 413.915C520.602 242.167 519.306 265.627 604.472 304.238C689.638 342.848 625.203 19.9737 455.432 3.18647Z" fill="#F5FFFF"/>
<path d="M310.407 538.166C429.853 538.166 526.684 531.402 526.684 523.058C526.684 514.714 429.853 507.949 310.407 507.949C190.961 507.949 94.1309 514.714 94.1309 523.058C94.1309 531.402 190.961 538.166 310.407 538.166Z" fill="#CDE4E6"/>
<path d="M451.262 86.7607H246.364C234.289 86.7607 224.5 96.5299 224.5 108.581V497.604C224.5 509.655 234.289 519.424 246.364 519.424H451.262C463.337 519.424 473.125 509.655 473.125 497.604V108.581C473.125 96.5299 463.337 86.7607 451.262 86.7607Z" fill="#E9FDFE"/>
<path d="M450.081 522.311H247.546C240.669 522.303 234.076 519.573 229.213 514.721C224.351 509.868 221.615 503.288 221.607 496.425V109.759C221.615 102.897 224.351 96.3173 229.213 91.465C234.076 86.6128 240.669 83.8838 247.546 83.877H450.081C456.957 83.8838 463.55 86.6128 468.413 91.465C473.276 96.3173 476.011 102.897 476.019 109.759V496.425C476.011 503.288 473.276 509.868 468.413 514.721C463.551 519.573 456.958 522.303 450.081 522.311ZM247.546 89.6479C242.203 89.6538 237.08 91.7746 233.303 95.5449C229.525 99.3152 227.4 104.427 227.394 109.759V496.425C227.4 501.758 229.525 506.87 233.302 510.641C237.08 514.412 242.202 516.533 247.546 516.54H450.081C455.424 516.533 460.546 514.412 464.324 510.641C468.102 506.87 470.227 501.758 470.233 496.425V109.759C470.227 104.427 468.102 99.3152 464.324 95.5449C460.546 91.7746 455.424 89.6538 450.081 89.6479H247.546Z" fill="#43B2B5"/>
<path d="M248.152 328.329C247.096 331.165 245.266 334.454 243.342 335.273C241.165 336.201 240.256 337.51 240.256 337.51L238.49 336.492L236.387 335.273C236.387 335.273 236.437 335.041 236.54 334.662C236.643 334.284 236.799 333.758 237.013 333.174C237.203 332.906 237.325 332.597 237.368 332.272C237.411 331.947 237.374 331.617 237.261 331.309C236.866 330.27 236.946 328.667 237.619 327.686C238.293 326.705 238.943 324.301 239.349 324.371C240.335 324.541 238.867 327.85 239.288 328.482C239.374 328.646 239.52 328.771 239.695 328.831C239.871 328.891 240.063 328.881 240.232 328.805H240.25C243.006 327.595 246.352 321.074 247.831 321.955C248.39 322.248 248.605 327.111 248.152 328.329Z" fill="#C95836"/>
<path d="M238.615 332.269L242.069 334.692C242.187 334.774 242.333 334.806 242.474 334.781C242.616 334.757 242.742 334.677 242.825 334.56L251.675 321.996C251.757 321.878 251.79 321.732 251.765 321.591C251.74 321.45 251.66 321.324 251.543 321.241L248.089 318.819C248.03 318.778 247.965 318.748 247.895 318.733C247.825 318.717 247.753 318.716 247.683 318.728C247.613 318.74 247.546 318.766 247.486 318.804C247.425 318.843 247.373 318.892 247.333 318.951L238.489 331.515C238.406 331.632 238.372 331.777 238.396 331.918C238.42 332.059 238.499 332.186 238.615 332.269Z" fill="#5DD6DE"/>
<path d="M241.778 334.495L243.803 335.916C243.848 335.948 243.899 335.972 243.953 335.984C244.007 335.997 244.063 335.999 244.118 335.989C244.173 335.98 244.225 335.96 244.272 335.93C244.319 335.9 244.359 335.862 244.391 335.816L253.376 323.044C253.409 322.999 253.433 322.948 253.446 322.894C253.459 322.84 253.46 322.784 253.451 322.729C253.442 322.674 253.421 322.622 253.391 322.575C253.361 322.528 253.322 322.488 253.276 322.457L251.252 321.035C251.207 321.003 251.156 320.98 251.102 320.967C251.048 320.954 250.992 320.953 250.937 320.962C250.882 320.971 250.83 320.991 250.783 321.021C250.736 321.051 250.695 321.09 250.664 321.135L241.678 333.908C241.645 333.952 241.622 334.003 241.609 334.057C241.596 334.111 241.594 334.168 241.604 334.222C241.613 334.277 241.633 334.33 241.663 334.376C241.693 334.423 241.732 334.463 241.778 334.495Z" fill="#43B2B5"/>
<path d="M189.061 314.235C189.061 314.235 206.637 344.83 213.015 350.459L236.396 333.062C236.396 333.062 239.788 334.101 241.274 337.499C241.274 337.499 227.076 366.367 213.095 367.591C199.114 368.816 179.496 332.992 179.496 332.992L189.061 314.235Z" fill="white"/>
<path d="M149.287 522.326H139.131C137.854 521.633 136.715 520.047 136.354 517.684C135.859 514.419 132.191 512.636 131.399 509.967C130.608 507.298 134.671 503.54 134.671 503.54L135.35 502.659L136.056 501.752L142.797 503.335C142.797 503.335 142.965 504.938 143.065 506.978C143.152 508.532 143.162 510.089 143.094 511.644C142.897 515.206 144.091 519.04 147.263 519.733C149.608 520.25 149.502 521.639 149.287 522.326Z" fill="#232735"/>
<path d="M208.228 522.326H185.003C183.885 520.966 184.297 515.948 184.464 514.307C184.5 513.978 184.523 513.784 184.523 513.784C184.523 513.784 192.467 507.454 193.544 512.316C193.576 512.469 193.617 512.61 193.661 512.765C195.035 517.299 201.19 519.36 204.744 519.933C207.057 520.291 207.91 521.492 208.228 522.326Z" fill="#232735"/>
<path d="M203.798 392.951C203.798 392.951 202.595 407.946 201.18 425.968C199.256 450.453 196.943 480.528 196.714 486.224C196.319 496.119 194.731 511.945 194.731 511.945C194.731 511.945 190.965 515.704 183.433 514.118C183.433 514.118 176.719 491.527 174.801 467.627C174.771 467.233 174.739 466.84 174.71 466.452C172.927 442.12 170.152 390.881 170.152 390.881L203.798 392.951Z" fill="#9DE4E9"/>
<path d="M203.798 392.951C203.798 392.951 202.595 407.946 201.18 425.968L174.801 467.627C174.771 467.233 174.739 466.84 174.71 466.452C172.927 442.12 170.152 390.881 170.152 390.881L203.798 392.951Z" fill="#5DD6DE"/>
<path d="M198.3 394.731C198.3 394.731 176.596 449.035 162.321 474.551C148.046 500.066 143.588 507.192 143.588 507.192C143.588 507.192 135.412 503.927 134.668 501.702C134.668 501.702 140.128 452.436 149.673 440.424C155.074 433.638 161.417 413.273 161.715 406.149C162.012 399.026 163.648 384.933 163.648 384.933L198.3 394.731Z" fill="#9DE4E9"/>
<path d="M192.885 315.569C184.403 318.24 169.725 311.029 169.725 311.029C169.725 311.029 177.545 305.157 177.136 292.995L183.694 298.28L188.177 301.851C188.114 303.796 187.945 305.737 187.671 307.664C187.542 308.639 188.642 310.785 189.595 311.992C192.152 315.248 192.885 315.569 192.885 315.569Z" fill="#C95836"/>
<path d="M188.178 301.85C188.115 303.796 187.946 305.737 187.672 307.664C182.736 306.818 177.137 298.856 177.137 298.856C179.265 298.196 181.509 297.996 183.721 298.268L188.178 301.85Z" fill="#572A22"/>
<path d="M190.756 301.651C190.756 301.651 176.746 303.973 175.431 295.244C174.116 286.515 171.421 280.933 180.312 279.095C189.203 277.257 191.445 280.299 192.592 283.112C193.74 285.924 194.357 300.82 190.756 301.651Z" fill="#C95836"/>
<path d="M204.737 394.199C204.492 394.413 204.179 394.534 203.854 394.54C200.668 394.496 191.379 396.261 183.521 395.456C176.896 394.822 171.029 392.863 164.733 390.045C163.897 389.672 161.97 388.647 162.014 387.713C162.044 386.692 162.144 385.212 162.273 383.344C162.718 376.858 163.494 365.698 162.738 352.826C162.6 350.43 162.529 348.051 162.52 345.711C162.456 328.265 165.922 312.92 172.888 307.726C173.477 307.3 177.137 309.082 180.491 310.733C183.317 312.123 186.534 312.512 189.611 311.837L192.553 314.42C196.122 317.73 200.02 322.222 201.712 329.046C203.16 334.853 204.007 345.324 204.475 356.176C204.687 361.094 204.857 366.053 204.901 370.76V370.927C204.942 371.394 204.942 371.905 204.942 372.369C205.119 384.451 204.948 394.029 204.737 394.199Z" fill="white"/>
<path d="M162.266 383.344C162.71 376.858 163.487 365.698 162.73 352.826C162.592 350.43 162.522 348.051 162.513 345.711C165.414 338.685 167.785 333.591 167.785 333.591H175.099C175.099 333.591 180.462 370.143 162.266 383.344Z" fill="#9DE4E9"/>
<path d="M124.8 424.77L155.987 429.207C157.943 429.479 159.928 428.967 161.508 427.783C163.088 426.599 164.134 424.84 164.419 422.888L166.346 409.4C166.618 407.447 166.106 405.466 164.92 403.889C163.734 402.312 161.972 401.267 160.017 400.981L128.831 396.545C126.874 396.273 124.889 396.785 123.309 397.969C121.73 399.153 120.683 400.912 120.399 402.864L118.472 416.352C118.199 418.305 118.712 420.286 119.898 421.863C121.083 423.44 122.846 424.485 124.8 424.77Z" fill="#43B2B5"/>
<path d="M161.782 405.004C161.341 403.898 160.643 402.912 159.744 402.129C158.846 401.346 157.774 400.787 156.616 400.5C156.379 400.441 156.14 400.394 155.898 400.359L149.684 399.478L150.102 396.566C150.194 395.919 150.024 395.262 149.631 394.739C149.238 394.217 148.653 393.872 148.004 393.779L146.383 393.547L139.855 392.631L138.678 392.467C138.03 392.375 137.372 392.544 136.849 392.936C136.326 393.328 135.979 393.911 135.886 394.557L135.471 397.47L124.75 395.943C122.786 395.67 120.794 396.183 119.208 397.371C117.622 398.558 116.571 400.324 116.286 402.282L114.332 415.918C114.057 417.878 114.571 419.866 115.762 421.449C116.952 423.031 118.722 424.079 120.684 424.362L151.82 428.793C152.358 428.871 152.903 428.888 153.444 428.843C154.283 428.779 155.105 428.573 155.875 428.232C157.042 427.722 158.06 426.924 158.832 425.912C159.604 424.901 160.105 423.71 160.288 422.451L162.238 408.804C162.423 407.519 162.266 406.209 161.782 405.004ZM137.419 394.76C137.447 394.566 137.536 394.387 137.674 394.247C137.812 394.108 137.99 394.016 138.184 393.985C138.275 393.971 138.369 393.971 138.46 393.985L139.846 394.181L144.98 394.913L147.778 395.312C148.019 395.347 148.237 395.476 148.384 395.67C148.531 395.865 148.594 396.11 148.56 396.351L148.146 399.264L137.004 397.675L137.419 394.76Z" fill="#5DD6DE"/>
<path d="M148.518 384.601C148.518 384.601 146.88 386.78 146.815 387.649C146.374 393.545 149.074 394.361 142.084 397.632C142.084 397.632 139.098 398.768 139.048 396.458C138.998 394.147 141.107 394.109 140.731 390.879C140.283 387.147 140.331 387.112 142.79 385.162L144.417 382.479L148.518 384.601Z" fill="#C95836"/>
<path d="M144.342 386.269C146.155 386.577 147.997 386.676 149.832 386.562C149.832 386.562 157.65 362.456 158.659 360.254C159.668 358.052 181.884 331.991 181.884 331.991L172.628 308.874C172.628 308.874 148.597 348.935 146.149 354.564C142.115 363.866 140.715 384.721 140.715 384.721C141.81 385.471 143.043 385.996 144.342 386.269Z" fill="white"/>
<path d="M175.421 294.405C175.421 294.405 176.859 294.164 176.627 292.188C176.395 290.212 176.398 287.628 178.01 288.109C179.622 288.591 179.699 289.871 180.363 289.125C181.028 288.38 181.037 285.208 185.827 284.988C190.617 284.768 192.564 286.433 194.794 285.455C197.025 284.477 197.148 281.112 197.148 281.112C197.148 281.112 196.513 282.313 195.556 282.695C195.556 282.695 199.272 277.621 194.968 274.145C190.664 270.668 186.277 272.941 183.788 273.094C178.301 273.426 174.759 273.751 172.964 277.351C171.169 280.951 171.902 290.94 175.421 294.405Z" fill="#232735"/>
<path d="M145.936 387.193C145.936 387.193 147.513 388.835 147.613 389.516C147.931 391.709 148.666 392.655 148.299 392.895C147.534 393.389 146.533 391.768 146.039 390.312C145.545 388.855 145.936 387.193 145.936 387.193Z" fill="#C95836"/>
<path d="M376.34 352.43C378.213 352.441 380.07 352.08 381.801 351.367C383.533 350.654 385.104 349.605 386.425 348.279L405.536 329.214C406.85 327.896 407.587 326.113 407.587 324.254C407.587 322.395 406.85 320.612 405.536 319.294L377.328 291.153C376.006 289.843 374.219 289.107 372.356 289.107C370.493 289.107 368.705 289.843 367.384 291.153L356.101 302.339C348.289 300.261 341.053 296.436 334.944 291.153C329.663 285.049 325.83 277.834 323.731 270.047L334.944 258.791C336.257 257.473 336.995 255.689 336.995 253.831C336.995 251.972 336.257 250.189 334.944 248.871L306.735 220.73C305.414 219.42 303.627 218.684 301.764 218.684C299.9 218.684 298.113 219.42 296.792 220.73L277.751 239.866C276.422 241.183 275.37 242.751 274.656 244.478C273.942 246.206 273.579 248.058 273.59 249.926C274.23 276.958 285.057 302.756 303.914 322.179C323.384 340.99 349.244 351.792 376.34 352.43ZM301.799 235.715L320.064 253.936L310.967 263.012C310.105 263.817 309.46 264.825 309.09 265.944C308.72 267.062 308.638 268.255 308.851 269.414C311.487 281.165 317.068 292.058 325.071 301.073C334.1 309.067 345.022 314.636 356.806 317.254C357.949 317.492 359.135 317.444 360.255 317.112C361.375 316.781 362.395 316.177 363.223 315.354L372.321 306.068L390.586 324.289L376.481 338.36C353.094 337.759 330.78 328.448 313.929 312.259C297.659 295.441 288.298 273.15 287.694 249.786L301.799 235.715ZM400.529 275.042H414.634C414.816 266.677 413.3 258.362 410.175 250.597C407.05 242.833 402.382 235.78 396.451 229.864C390.52 223.947 383.451 219.29 375.667 216.173C367.884 213.055 359.549 211.542 351.164 211.725V225.795C357.708 225.569 364.228 226.689 370.32 229.084C376.411 231.479 381.944 235.098 386.574 239.717C391.204 244.336 394.832 249.855 397.233 255.932C399.634 262.009 400.756 268.514 400.529 275.042Z" fill="#5DD6DE"/>
<path d="M351.162 253.937C365.972 253.937 372.319 260.269 372.319 275.043H386.423C386.423 252.389 373.87 239.866 351.162 239.866V253.937Z" fill="#5DD6DE"/>
<rect x="262.688" y="445.864" width="171.922" height="35.687" rx="17.8435" fill="#9DE4E9"/>
<rect x="317.146" y="104.442" width="63.0024" height="6.39169" rx="3.19585" fill="#43B2B5"/>
</svg>
