<svg width="78" height="78" viewBox="0 0 78 78" fill="none" xmlns="http://www.w3.org/2000/svg">
<path d="M78 39.9233C78 55.3873 62.5 64.9233 43.5 71.9233C24.5 78.9232 1 57.8872 1 42.4233C1 26.9593 17.5 45.9234 38.5 27.4233C59.5 8.92318 78 24.4594 78 39.9233Z" fill="#ECF6F4"/>
<path d="M29 11C13.6082 11 1 23.4444 1 39C1 54.3918 13.4444 67 29 67C44.3918 67 57 54.5555 57 39C57 23.4444 44.3918 11 29 11ZM29 64.7076C14.7544 64.7076 3.29239 53.2456 3.29239 39C3.29239 24.7544 14.7544 13.2924 29 13.2924C43.2456 13.2924 54.7076 24.7544 54.7076 39C54.8713 53.0819 43.2456 64.7076 29 64.7076Z" fill="#5DD6DE"/>
<path d="M28.9998 59.7951C29.9823 59.7951 30.4735 59.1401 30.6372 58.3214C30.801 58.6489 31.1285 58.9764 31.456 59.1401C31.7834 59.1401 32.2747 59.1402 32.6022 58.9764C32.9296 58.8127 33.2571 58.4852 33.4209 58.1577C33.5846 57.8302 33.5846 57.339 33.4209 57.0115C33.9121 57.6665 34.5671 57.8302 35.3858 57.5027C36.3682 57.0115 36.6957 56.3565 36.2045 55.3741C35.0583 52.5904 33.9121 49.9706 32.7659 47.1869C32.6022 46.8594 32.6022 46.6957 32.4384 46.3682C32.2747 46.2045 32.2747 46.0407 32.1109 45.877C32.1109 45.7133 31.9472 45.7132 31.7834 45.5495C33.5846 45.7132 34.4033 46.3682 34.8946 46.6957C35.0583 46.8594 35.0583 46.8594 35.5495 46.6957C35.7133 46.6957 36.0408 46.6957 36.2045 46.6957C36.3682 46.8594 36.6957 47.0232 36.8595 47.0232C37.5144 47.5144 38.1694 48.0056 38.8244 48.4969C39.1519 48.8244 39.4794 49.1518 39.4794 49.6431C39.4794 49.9706 38.4969 50.7893 38.3331 51.1168C37.6782 51.7717 38.6606 52.7542 39.9706 52.7542C39.6431 52.4267 39.4794 52.0992 39.6431 51.7717C39.8068 51.7717 39.9706 51.7717 40.2981 51.608C40.6256 51.4442 40.4618 50.6255 40.6255 50.4618C41.1168 49.9706 42.4267 49.9706 43.4092 49.9706C43.7367 49.9706 44.2279 49.8068 44.0641 49.3156C44.5554 49.3156 44.7191 49.8068 44.7191 50.1343C45.2103 49.8068 45.5378 48.6606 43.9004 48.3331C44.2279 48.0056 44.7191 48.0056 45.0466 48.3331C45.3741 47.8419 44.5554 47.0232 43.2454 47.5144C43.2454 47.5144 42.5905 46.6957 40.953 48.6606C40.7893 48.4969 40.4618 48.3331 40.2981 48.1694C39.6431 47.5144 38.0057 45.877 38.0057 45.877C38.0057 44.8945 37.8419 43.0934 36.6957 42.1109C36.2045 41.6197 35.7133 41.4559 34.5671 41.1285C34.5671 41.1285 35.0583 40.3097 35.222 39.9823C36.2045 40.9647 38.1694 41.2922 38.1694 39.6548C39.8068 41.2922 41.2805 40.3097 41.2805 39.3273C41.2805 39.8185 41.4443 40.3097 41.608 40.801C41.7717 41.2922 42.5905 43.4209 44.3916 43.4209C44.3916 44.0758 44.3916 46.532 46.684 47.0232C46.8478 47.0232 46.8478 47.0232 47.0115 47.1869C47.994 48.3331 51.76 49.4793 52.0875 49.1518C51.76 48.9881 51.2688 48.6606 51.2688 47.3507C51.2688 46.532 51.1051 41.9472 51.1051 35.5612C51.1051 33.2688 50.9413 25.9004 43.5729 24.9179C42.4267 24.7542 41.4443 24.9179 40.4618 25.5729C39.1519 26.5554 38.4969 28.1928 39.3156 29.9939V30.1577C39.6431 30.6489 39.4793 30.9764 39.1519 31.3039C38.4969 31.9589 37.8419 32.2863 37.0232 32.4501C36.532 32.4501 36.0408 32.2864 35.7133 31.9589C34.8946 31.1402 34.4033 30.1577 34.0758 29.0115C33.7484 26.8828 34.2396 25.7366 34.2396 25.5729C34.8946 24.4267 36.0408 23.4442 37.5144 23.4442C38.1694 22.1343 40.1343 22.6255 40.1343 22.6255C40.6255 22.7893 40.7893 22.7893 40.953 23.1168C40.953 23.1168 41.7717 21.8068 40.953 21.3156C40.1343 20.8244 38.3331 20.6606 38.3331 20.6606C38.3331 19.8419 37.0232 19.1869 34.4033 19.6782C31.456 20.1694 30.801 19.0232 30.801 19.0232C30.6372 20.4969 31.7834 21.1518 32.1109 21.4793C30.9647 22.7893 29.3273 25.2454 28.9998 28.684C28.6723 25.2454 27.0349 22.7893 25.8887 21.4793C26.2162 21.3156 27.3624 20.4969 27.1987 19.0232C27.1987 19.0232 26.5437 20.1694 23.5963 19.6782C21.1402 19.1869 19.6665 19.8419 19.6665 20.6606C19.6665 20.6606 17.8653 20.8244 17.0466 21.3156C16.2279 21.8068 17.0466 23.1168 17.0466 23.1168C17.2103 22.953 17.3741 22.7893 17.8653 22.6255C17.8653 22.6255 19.8302 22.1343 20.4852 23.4442C21.9589 23.608 23.1051 24.4267 23.76 25.5729C23.76 25.5729 24.415 26.7191 23.9238 29.0115C23.7601 30.1577 23.1051 31.1402 22.2864 31.9589C21.9589 32.2864 21.4677 32.6138 20.9764 32.4501C20.1577 32.2863 19.5027 31.9589 18.8478 31.3039C18.5203 30.9764 18.3565 30.6489 18.684 30.1577V29.9939C19.5027 28.1928 18.8478 26.5554 17.5378 25.5729C16.5554 24.9179 15.5729 24.7542 14.4267 24.9179C7.22205 25.9004 6.89456 33.2688 6.89456 35.5612C6.89456 41.9472 6.73082 46.532 6.73082 47.3507C6.73082 48.6606 6.23959 48.9881 5.91211 49.1518C6.40334 49.4793 10.1694 48.3331 10.9881 47.1869C10.9881 47.1869 11.1519 47.0232 11.3156 47.0232C13.608 46.532 13.608 44.0758 13.608 43.4209C15.4092 43.4209 16.2279 41.2922 16.3916 40.801C16.5554 40.3097 16.7191 39.8185 16.7191 39.3273C16.7191 40.3097 18.1928 41.1285 19.8302 39.6548C19.8302 41.2922 21.7951 40.9647 22.7776 39.9823C22.9413 40.3097 23.4326 41.1285 23.4326 41.1285C22.2864 41.2922 21.7951 41.6197 21.3039 42.1109C19.994 43.2571 19.994 45.0583 19.994 45.877C19.994 45.877 18.3565 47.5144 17.7016 48.1694C17.5378 48.3331 17.2103 48.4969 17.0466 48.6606C15.2454 46.6957 14.7542 47.5144 14.7542 47.5144C13.4443 47.0232 12.7893 47.8419 12.953 48.3331C13.2805 48.0056 13.7718 48.1694 14.0992 48.3331C12.2981 48.6606 12.7893 49.9706 13.2805 50.1343C13.2805 49.8068 13.4443 49.3156 13.9355 49.3156C13.9355 49.8068 14.263 49.9706 14.5905 49.9706C15.4092 49.9706 16.8829 49.9706 17.3741 50.4618C17.7016 50.6255 17.5378 51.4442 17.7016 51.608C17.8653 51.7717 18.1928 51.7717 18.3565 51.7717C18.3565 52.0992 18.3565 52.263 18.0291 52.7542C19.339 52.9179 20.1577 51.7717 19.6665 51.1168C19.339 50.7893 18.5203 49.9706 18.5203 49.6431C18.5203 49.3156 18.8478 48.8244 19.1753 48.4969C19.8302 48.0056 20.4852 47.5144 21.1402 47.0232C21.3039 46.8594 21.4677 46.6957 21.7951 46.6957C21.9589 46.532 22.2864 46.532 22.4501 46.6957C22.9413 46.8594 22.9413 46.8594 23.1051 46.6957C23.5963 46.3682 24.415 45.7132 26.2162 45.5495C26.0524 45.5495 26.0525 45.7133 25.8887 45.877C25.725 46.0407 25.725 46.2045 25.5612 46.3682C25.3975 46.532 25.3975 46.8594 25.2337 47.1869C24.0875 49.9706 22.9413 52.5904 21.7951 55.3741C21.4677 56.3565 21.7951 57.0115 22.6139 57.5027C23.2688 57.8302 24.0875 57.6665 24.5788 57.0115C24.415 57.5027 24.415 57.8302 24.5788 58.1577C24.7425 58.4852 25.07 58.8127 25.3975 58.9764C25.725 59.1402 26.2162 59.1401 26.5437 59.1401C27.0349 58.9764 27.1987 58.8127 27.3624 58.3214C27.5261 59.1401 28.0174 59.7951 28.9998 59.7951Z" fill="#5DD6DE"/>
</svg>
