<svg width="78" height="78" viewBox="0 0 78 78" fill="none" xmlns="http://www.w3.org/2000/svg">
<path d="M52.7826 0.632694C36.822 -4.51708 43.8046 23.2938 17.8682 28.9583C-8.06818 34.6228 -1.90677 61.2864 12.0589 64.3766C26.0247 67.4669 51.4609 58.1965 70.4147 55.6214C89.3685 53.0463 68.7432 5.78246 52.7826 0.632694Z" fill="#ECF6F4"/>
<path fill-rule="evenodd" clip-rule="evenodd" d="M48.7501 6.5V9.75C48.7501 9.79207 48.7501 9.83476 48.7502 9.878C48.7506 10.5276 48.7511 11.301 48.6616 11.9661C48.5537 12.769 48.2647 13.8797 47.3223 14.8221C46.3798 15.7646 45.2691 16.0536 44.4662 16.1615C43.8011 16.2509 43.0277 16.2505 42.3781 16.2501C42.3349 16.25 42.2922 16.25 42.2501 16.25H35.7501C35.708 16.25 35.6653 16.25 35.6221 16.2501C34.9725 16.2505 34.1991 16.2509 33.534 16.1615C32.7311 16.0536 31.6204 15.7646 30.678 14.8221C29.7355 13.8797 29.4465 12.769 29.3386 11.9661C29.2492 11.301 29.2496 10.5276 29.2501 9.87799C29.2501 9.83476 29.2501 9.79207 29.2501 9.75V6.5H48.7501ZM42.2501 13C43.7822 13 44.5482 13 45.0242 12.524C45.5001 12.0481 45.5001 11.2821 45.5001 9.75H32.5001C32.5001 11.2821 32.5001 12.0481 32.9761 12.524C33.452 13 34.218 13 35.7501 13H42.2501ZM34.3877 9.71761C34.3877 9.71759 34.3895 9.71785 34.3929 9.71847L34.3877 9.71761ZM43.6125 9.71761C43.6125 9.71763 43.6108 9.71794 43.6073 9.71847L43.6125 9.71761Z" fill="#5DD6DE"/>
<path fill-rule="evenodd" clip-rule="evenodd" d="M45.5 9.75H32.5C29.344 9.75 27.3039 9.7569 25.8008 9.95899C24.3911 10.1485 23.9493 10.4545 23.7019 10.7019C23.4545 10.9493 23.1485 11.3911 22.959 12.8008C22.7569 14.3039 22.75 16.344 22.75 19.5V58.5C22.75 61.656 22.7569 63.6961 22.959 65.1992C23.1485 66.6089 23.4545 67.0507 23.7019 67.2981C23.9493 67.5455 24.3911 67.8515 25.8008 68.041C27.3039 68.2431 29.344 68.25 32.5 68.25H45.5C48.656 68.25 50.6961 68.2431 52.1992 68.041C53.6089 67.8515 54.0507 67.5455 54.2981 67.2981C54.5455 67.0507 54.8515 66.6089 55.041 65.1992C55.2431 63.6961 55.25 61.656 55.25 58.5V19.5C55.25 16.344 55.2431 14.3039 55.041 12.8008C54.8515 11.3911 54.5455 10.9493 54.2981 10.7019C54.0507 10.4545 53.6089 10.1485 52.1992 9.95899C50.6961 9.7569 48.656 9.75 45.5 9.75ZM21.4038 8.40381C19.5 10.3076 19.5 13.3717 19.5 19.5V58.5C19.5 64.6283 19.5 67.6924 21.4038 69.5962C23.3076 71.5 26.3717 71.5 32.5 71.5H45.5C51.6283 71.5 54.6924 71.5 56.5962 69.5962C58.5 67.6924 58.5 64.6283 58.5 58.5V19.5C58.5 13.3717 58.5 10.3076 56.5962 8.40381C54.6924 6.5 51.6283 6.5 45.5 6.5H32.5C26.3717 6.5 23.3076 6.5 21.4038 8.40381Z" fill="#5DD6DE"/>
<circle cx="39" cy="58.5" r="3.25" fill="#5DD6DE"/>
</svg>
