<svg width="130" height="130" viewBox="0 0 130 130" fill="none" xmlns="http://www.w3.org/2000/svg">
<path d="M64.5588 104C96.8999 104 123.118 101.559 123.118 98.5492C123.118 95.5389 96.8999 93.0986 64.5588 93.0986C32.2177 93.0986 6 95.5389 6 98.5492C6 101.559 32.2177 104 64.5588 104Z" fill="#E8E8E8"/>
<path d="M33.4443 98.6412H108.702C109.856 98.6412 110.963 98.1832 111.779 97.3678C112.596 96.5525 113.054 95.4466 113.054 94.2934V48.5082C113.054 47.5005 112.856 46.5026 112.47 45.5716C112.084 44.6406 111.518 43.7947 110.805 43.0822C110.092 42.3696 109.245 41.8044 108.313 41.4188C107.382 41.0333 106.383 40.8349 105.374 40.835H35.3209C33.9202 40.8348 32.5331 41.1103 31.2389 41.6458C29.9448 42.1813 28.7688 42.9663 27.7783 43.956C26.7878 44.9457 26.0021 46.1207 25.4661 47.4138C24.93 48.7069 24.6542 50.0929 24.6543 51.4925V89.8624C24.6551 92.1912 25.5815 94.4244 27.2299 96.0707C28.8784 97.717 31.1137 98.6416 33.4443 98.6412Z" fill="#43B2B5"/>
<path d="M85.8341 31.9253V41.4744H80.7148V32.778H58.0646V41.4744H52.3018V31.9253C52.3018 30.3538 52.9265 28.8467 54.0386 27.7355C55.1507 26.6243 56.659 26 58.2317 26H79.9041C81.4769 26 82.9852 26.6243 84.0972 27.7355C85.2093 28.8467 85.8341 30.3538 85.8341 31.9253Z" fill="#43B2B5"/>
<path d="M105.374 40.835H100.931V98.6427H108.702C109.856 98.6427 110.963 98.1845 111.779 97.369C112.595 96.5535 113.054 95.4474 113.054 94.2941V48.5082C113.054 47.5005 112.855 46.5026 112.469 45.5716C112.083 44.6406 111.517 43.7947 110.804 43.0822C110.091 42.3696 109.244 41.8044 108.313 41.4188C107.381 41.0333 106.382 40.8349 105.374 40.835Z" fill="#232735"/>
<path d="M106.954 54.9928L113.054 48.5082C113.054 47.5005 112.856 46.5026 112.47 45.5716C112.084 44.6406 111.518 43.7947 110.805 43.0822C110.092 42.3696 109.245 41.8044 108.313 41.4188C107.382 41.0333 106.383 40.8349 105.374 40.835H35.3209C33.9202 40.8348 32.5331 41.1103 31.2389 41.6458C29.9448 42.1813 28.7688 42.9663 27.7783 43.956C26.7878 44.9457 26.0021 46.1207 25.4661 47.4138C24.93 48.7069 24.6542 50.0929 24.6543 51.4925L26.4362 53.5303C47.5706 77.6961 84.9559 78.3746 106.954 54.9928Z" fill="#9DE4E9"/>
<path d="M73.8638 65.2178H52.3606C50.4846 65.2178 48.9639 66.7373 48.9639 68.6118V72.4148C48.9639 74.2893 50.4846 75.8089 52.3606 75.8089H73.8638C75.7397 75.8089 77.2605 74.2893 77.2605 72.4148V68.6118C77.2605 66.7373 75.7397 65.2178 73.8638 65.2178Z" fill="white"/>
<path d="M69.2628 73.2089H56.256C55.5406 73.2089 54.8545 72.925 54.3486 72.4195C53.8428 71.914 53.5586 71.2285 53.5586 70.5136C53.5586 69.7988 53.8428 69.1133 54.3486 68.6078C54.8545 68.1023 55.5406 67.8184 56.256 67.8184H69.2657C69.9811 67.8184 70.6672 68.1023 71.173 68.6078C71.6789 69.1133 71.9631 69.7988 71.9631 70.5136C71.9631 70.8678 71.8932 71.2186 71.7575 71.5458C71.6217 71.873 71.4228 72.1702 71.172 72.4205C70.9212 72.6708 70.6235 72.8693 70.2959 73.0046C69.9683 73.1399 69.6173 73.2093 69.2628 73.2089Z" fill="#FBB400"/>
<path fill-rule="evenodd" clip-rule="evenodd" d="M21.6997 64.2468C22.0418 64.4058 22.428 64.9853 22.6001 65.3184C22.8503 65.8026 22.8857 66.4211 22.5907 66.8792C22.2486 67.4082 21.5573 67.6083 20.9274 67.5859C20.3811 67.566 19.8481 67.4127 19.3748 67.1394C18.7022 66.7499 18.1873 66.1379 17.7534 65.4933C16.5508 63.7063 15.5225 60.9576 16.1401 58.7891C17.9212 59.5015 18.1092 59.6872 18.6263 60.3383C19.1434 60.9894 19.4435 61.7835 19.7624 62.5487C20.0813 63.314 20.3098 63.8234 20.6432 64.3126C20.799 64.2124 20.9779 64.1537 21.1629 64.1422C21.3479 64.1307 21.5327 64.1667 21.6997 64.2468Z" fill="white"/>
<path d="M15.8315 99.2372H15.8366C15.9461 99.2359 16.0507 99.1912 16.1273 99.1129C16.2039 99.0346 16.2463 98.9291 16.2451 98.8196L15.9653 75.724C15.9639 75.6154 15.9199 75.5117 15.8426 75.4355C15.7653 75.3592 15.661 75.3164 15.5524 75.3164H15.5473C15.493 75.317 15.4394 75.3282 15.3894 75.3495C15.3395 75.3708 15.2943 75.4018 15.2563 75.4406C15.2184 75.4794 15.1884 75.5253 15.1683 75.5756C15.1481 75.626 15.138 75.6798 15.1387 75.7341L15.4186 98.829C15.4199 98.9376 15.464 99.0413 15.5412 99.1177C15.6185 99.1941 15.7228 99.2371 15.8315 99.2372Z" fill="#232735"/>
<path d="M19.8937 73.252H11.5933C10.2241 73.252 9.11426 74.361 9.11426 75.729C9.11426 77.0971 10.2241 78.2061 11.5933 78.2061H19.8937C21.2628 78.2061 22.3727 77.0971 22.3727 75.729C22.3727 74.361 21.2628 73.252 19.8937 73.252Z" fill="#232735"/>
<path d="M21.9791 98.787H22.008C22.1173 98.7792 22.219 98.7284 22.2909 98.6458C22.3627 98.5631 22.3988 98.4554 22.3913 98.3462L21.7332 89.0102L20.9377 77.0498C20.9275 76.9427 20.8759 76.8439 20.7939 76.7742C20.7118 76.7045 20.6059 76.6695 20.4985 76.6767C20.391 76.6838 20.2907 76.7326 20.2186 76.8125C20.1466 76.8924 20.1085 76.9972 20.1126 77.1047L20.9081 89.0666L21.5669 98.404C21.5744 98.5081 21.6211 98.6055 21.6976 98.6765C21.774 98.7476 21.8746 98.7871 21.9791 98.787Z" fill="#232735"/>
<path d="M10.9571 87.9118H10.9636L20.437 87.7673C20.5437 87.7622 20.6442 87.7161 20.7176 87.6386C20.7909 87.5611 20.8315 87.4583 20.8307 87.3516C20.83 87.2449 20.788 87.1427 20.7135 87.0662C20.6391 86.9898 20.5379 86.9451 20.4313 86.9414H20.4247L10.9513 87.0859C10.8447 87.0911 10.7442 87.1372 10.6708 87.2147C10.5974 87.2922 10.5569 87.395 10.5576 87.5017C10.5584 87.6083 10.6004 87.7106 10.6748 87.787C10.7493 87.8635 10.8504 87.9082 10.9571 87.9118Z" fill="#232735"/>
<path d="M10.0731 98.8426C10.1782 98.8426 10.2793 98.8025 10.3558 98.7305C10.4323 98.6586 10.4783 98.5601 10.4846 98.4553L11.8203 76.4819C11.8268 76.3726 11.7897 76.2651 11.717 76.1832C11.6443 76.1012 11.5421 76.0514 11.4327 76.0447C11.3787 76.0414 11.3247 76.0488 11.2736 76.0665C11.2225 76.0841 11.1755 76.1117 11.1351 76.1477C11.0948 76.1836 11.062 76.2272 11.0386 76.2759C11.0152 76.3245 11.0016 76.3774 10.9988 76.4313L9.66382 98.4047C9.65729 98.514 9.69445 98.6215 9.76712 98.7034C9.83979 98.7854 9.94205 98.8352 10.0514 98.8419L10.0731 98.8426Z" fill="#232735"/>
<path d="M21.4553 81.7305C21.2433 82.8698 20.9489 83.9923 20.5745 85.0891C20.4834 85.3565 20.3858 85.6318 20.406 85.9172C20.406 85.9345 20.406 85.9526 20.4111 85.9699C20.4488 86.2417 20.5904 86.4883 20.8061 86.6581C21.0218 86.8278 21.2949 86.9075 21.5681 86.8804C21.651 86.8788 21.7324 86.8579 21.8058 86.8194C21.8793 86.7809 21.9427 86.7258 21.9912 86.6586C22.8235 85.5306 23.5756 83.753 24.4029 82.612C23.4887 82.1255 22.4867 81.8258 21.4553 81.7305Z" fill="#C95836"/>
<path d="M20.6289 95.3169C21.1724 96.1422 21.6558 97.0056 22.0752 97.9002C22.1772 98.117 22.2806 98.346 22.46 98.5079L22.4939 98.5368C22.5844 98.6079 22.688 98.6604 22.7987 98.6914C22.9095 98.7224 23.0253 98.7312 23.1395 98.7174C23.2538 98.7035 23.3641 98.6673 23.4643 98.6108C23.5645 98.5543 23.6525 98.4785 23.7233 98.388C23.7723 98.3363 23.8088 98.2742 23.8301 98.2063C23.8514 98.1385 23.8569 98.0666 23.8463 97.9963C23.6814 96.8026 23.0877 95.262 22.9119 94.0625C22.0744 94.3234 21.298 94.75 20.6289 95.3169Z" fill="#C95836"/>
<path fill-rule="evenodd" clip-rule="evenodd" d="M22.2168 86.1172L22.4598 87.9063C22.5046 88.2488 23.0043 89.4772 23.0043 89.4772C22.924 89.788 22.6181 89.7309 22.4171 89.6124L20.1702 87.2437C20.1702 87.2437 19.1086 86.1555 20.547 85.2891C20.905 86.0239 21.7019 86.4272 22.2168 86.1172Z" fill="#232735"/>
<path fill-rule="evenodd" clip-rule="evenodd" d="M13.4018 54.0731C13.0865 53.9705 12.7921 54.2899 12.6121 54.5666C12.2505 55.131 12.2881 55.7683 11.9612 56.3464C11.6192 56.9295 11.2525 57.7193 11.6756 58.3032C12.6157 59.2426 13.4321 58.5301 14.0938 58.3805C14.6 58.2887 14.6449 58.5821 15.1475 58.6999C15.9502 58.9651 16.9684 58.4831 17.0617 57.4621C17.1268 56.7474 16.4484 56.3544 16.1498 55.9504C15.8605 55.5631 15.8685 55.3348 15.6161 54.9236C15.18 53.99 13.832 53.3838 13.4018 54.0731Z" fill="#663A24"/>
<path fill-rule="evenodd" clip-rule="evenodd" d="M14.6133 83.145C16.4393 87.7451 17.8155 92.5431 20.2041 96.8743C22.8798 97.102 22.8277 95.3338 24.3153 95.0678C21.7301 89.0681 19.6383 82.868 18.0606 76.5289C17.634 74.8135 17.2449 73.0872 16.7589 71.3869C16.5051 70.501 16.1602 69.5378 15.3517 69.0934C14.6466 68.7061 13.7491 68.8311 13.0375 69.2112C12.3259 69.5913 11.03 69.7452 10.3242 70.2734C10.291 70.3861 10.6374 73.1226 14.6133 83.145Z" fill="#9DE4E9"/>
<path fill-rule="evenodd" clip-rule="evenodd" d="M17.0798 69.8632C20.1155 70.217 23.0616 71.1193 25.7744 72.526C26.6321 72.9711 27.5288 73.5441 27.8246 74.4626C28.1305 75.4135 27.698 76.4287 27.2742 77.3334C26.0007 80.054 23.7582 84.8138 23.7936 84.8383C22.6474 84.2443 21.4014 84.5493 20.2552 83.9524C20.9856 81.2586 21.7862 78.439 23.7987 76.4707C21.2076 76.0786 18.5941 75.8518 15.9741 75.7914C15.4318 73.6434 15.0614 71.4557 14.8662 69.249C15.7586 69.5236 16.6517 69.7982 17.5267 70.0901C17.4797 70.0432 17.4313 69.9969 17.0798 69.8632Z" fill="#9DE4E9"/>
<path fill-rule="evenodd" clip-rule="evenodd" d="M13.3416 57.9102C12.4449 58.2577 11.5337 58.6118 10.77 59.1928C10.0063 59.7737 9.38805 60.6221 9.30922 61.5773C9.26655 62.0991 9.38154 62.62 9.49869 63.1302C10.0237 65.4425 8.72997 66.7569 9.25498 69.0678C9.36201 69.5404 9.77204 72.9915 10.2125 73.1938C14.414 75.1268 19.0835 70.8165 20.5421 70.7493C20.9796 70.729 20.8126 70.0888 20.503 69.7795C19.2737 68.5511 18.5469 65.78 18.544 64.7286C18.544 63.3383 18.1354 63.7451 18.1318 62.3549C18.1318 61.763 18.1267 61.1575 17.9243 60.6011C17.6075 59.7282 16.8316 59.0837 15.9797 58.7144C15.1278 58.3452 14.1935 58.2129 13.2693 58.0113C13.3004 58.0366 13.3372 58.0597 13.3416 57.9102Z" fill="white"/>
<path fill-rule="evenodd" clip-rule="evenodd" d="M22.2351 66.5697C22.3668 66.5044 22.491 66.4249 22.6054 66.3326L26.1453 61.6358L24.8212 61.0996L21.538 64.0225L20.8944 64.6476C19.929 65.5833 21.0282 67.1636 22.2351 66.5697Z" fill="#C95836"/>
<path fill-rule="evenodd" clip-rule="evenodd" d="M23.7141 97.0537L25.1699 98.1232C25.4483 98.3291 26.6784 98.8248 26.6784 98.8248C26.8462 99.0987 26.5923 99.2786 26.3674 99.34L23.0995 99.3075C23.0995 99.3075 21.5808 99.3133 21.9561 97.678C22.735 97.9288 23.5811 97.639 23.7141 97.0537Z" fill="#232735"/>
<path fill-rule="evenodd" clip-rule="evenodd" d="M12.4375 58.2599C13.2192 59.4428 14.6171 61.3627 14.6171 61.3627C14.714 60.3668 14.9597 59.3911 15.3461 58.468C14.5556 58.0828 14.0733 57.4419 13.3603 57.2432C13.3725 57.2605 13.0833 57.9506 12.4375 58.2599Z" fill="#C95836"/>
<path d="M25.0984 61.9915L26.4348 62.2321C26.7022 62.2784 26.9773 62.2271 27.21 62.0876L28.1559 61.5276C28.2321 61.4824 28.2962 61.4194 28.3427 61.3441C28.3893 61.2688 28.4169 61.1834 28.4233 61.0951C28.4297 61.0068 28.4147 60.9183 28.3794 60.8371C28.3442 60.7559 28.2899 60.6844 28.221 60.6287L26.5259 60.4271C26.1278 60.3881 25.7287 60.4904 25.3985 60.7161L24.8135 61.1012L25.0984 61.9915Z" fill="#C95836"/>
<path fill-rule="evenodd" clip-rule="evenodd" d="M10.7119 68.3418C10.2736 68.7226 9.95398 69.1641 9.80211 69.6259C9.69461 69.963 9.68857 70.3243 9.78473 70.6648C9.8809 71.0054 10.075 71.3102 10.343 71.5415L14.4745 75.1501L15.1087 73.8689L12.433 70.3846L10.7119 68.3418Z" fill="#C95836"/>
<path fill-rule="evenodd" clip-rule="evenodd" d="M11.1001 58.9609C8.95298 59.9625 9.08026 61.3325 8.78593 62.9266C8.4916 64.5206 8.61165 66.158 8.73242 67.7737C8.78593 68.4869 8.76351 69.2912 9.24297 69.8216C9.80487 70.4445 11.2678 70.1381 11.8521 69.5398C12.3533 69.0289 12.1472 68.5744 12.1768 67.8597C12.3027 64.84 12.3446 61.8499 11.1001 58.9609Z" fill="white"/>
<path d="M14.2212 74.0935L13.8907 75.384C13.8251 75.6419 13.8544 75.9147 13.9731 76.1529L14.454 77.1161C14.4928 77.1938 14.5498 77.2611 14.6203 77.3119C14.6907 77.3628 14.7725 77.3959 14.8585 77.4082C14.9446 77.4206 15.0324 77.4119 15.1143 77.3829C15.1963 77.3539 15.2699 77.3055 15.329 77.2418L15.648 75.5979C15.7144 75.2114 15.6425 74.8138 15.4448 74.475L15.1078 73.876L14.2212 74.0935Z" fill="#C95836"/>
<path fill-rule="evenodd" clip-rule="evenodd" d="M14.541 58.1482C14.7421 58.7009 15.0227 59.2213 15.3741 59.6931C15.423 59.7604 15.489 59.8135 15.5653 59.8468C15.6416 59.8801 15.7255 59.8924 15.8081 59.8825C15.8908 59.8725 15.9693 59.8407 16.0355 59.7902C16.1018 59.7398 16.1533 59.6726 16.1848 59.5955C16.2448 59.4467 16.3113 59.2993 16.3706 59.1504C16.546 58.722 16.546 58.242 16.3706 57.8136C15.8102 56.4876 14.5736 58.1467 14.541 58.1482Z" fill="#663A24"/>
<path fill-rule="evenodd" clip-rule="evenodd" d="M14.9199 56.7798L14.6212 58.7706C14.6039 58.8881 14.5557 58.9989 14.4815 59.0917C14.4073 59.1845 14.3098 59.2559 14.1989 59.2988C14.0883 59.341 13.9684 59.3527 13.8518 59.3328C13.7351 59.3128 13.626 59.2619 13.5358 59.1853L13.3608 59.0408C13.2361 58.935 13.1439 58.7962 13.0948 58.6404C13.0457 58.4845 13.0416 58.318 13.0831 58.16L13.6833 55.8281L14.9206 56.7798H14.9199Z" fill="#C95836"/>
<path fill-rule="evenodd" clip-rule="evenodd" d="M14.8803 57.38L14.7322 58.0246L14.2012 57.3691L14.8803 57.38Z" fill="#873B24"/>
<path fill-rule="evenodd" clip-rule="evenodd" d="M13.1307 55.5788C13.0834 55.432 13.0961 55.2724 13.166 55.1349C13.2359 54.9974 13.3573 54.8931 13.5038 54.8446L14.5626 54.5028C14.8663 54.4046 15.1461 54.5932 15.2901 54.8815C15.46 55.2225 15.6422 55.9834 15.708 56.5521C15.7449 56.8722 15.5981 57.2263 15.2937 57.3246C14.9697 57.4294 13.8972 57.4308 13.6167 56.8744C13.3997 56.451 13.2753 56.0311 13.1307 55.5788Z" fill="#C95836"/>
<path fill-rule="evenodd" clip-rule="evenodd" d="M12.7341 55.9832C13.1297 56.1791 13.4218 56.0345 13.6974 55.8387C13.8349 55.741 13.9482 55.6131 14.0286 55.4647C14.109 55.3164 14.1542 55.1517 14.1609 54.9832C14.291 55.1104 14.4503 55.2038 14.6249 55.2552C14.7996 55.3066 14.9841 55.3144 15.1625 55.278C15.3259 55.2426 15.4988 55.1479 15.5356 54.9846C15.5834 54.7678 15.3715 54.5872 15.1741 54.4868C14.8018 54.2868 14.3808 54.1956 13.9591 54.2237C13.7494 54.2394 13.5452 54.2984 13.3594 54.397C13.1737 54.4957 13.0105 54.6318 12.8802 54.7967C12.6292 55.1335 12.5627 55.6118 12.75 55.9847C12.75 55.9912 12.75 55.9948 12.7341 55.9832Z" fill="#663A24"/>
<path fill-rule="evenodd" clip-rule="evenodd" d="M12.9875 56.8072C13.1478 57.0165 13.4173 57.0779 13.5885 56.9443C13.7597 56.8108 13.7684 56.5314 13.608 56.3221C13.4476 56.1127 13.1746 56.0514 13.0062 56.1849C12.8379 56.3184 12.8263 56.5978 12.9875 56.8072Z" fill="#C95836"/>
<path fill-rule="evenodd" clip-rule="evenodd" d="M15.4237 56.3564L14.918 56.5218C14.918 56.5218 15.043 56.8675 15.2749 56.7585C15.5068 56.6495 15.4237 56.3564 15.4237 56.3564Z" fill="white"/>
</svg>
