<svg width="130" height="130" viewBox="0 0 130 130" fill="none" xmlns="http://www.w3.org/2000/svg">
<path d="M60.4965 110.591C83.9667 110.591 102.993 109.111 102.993 107.285C102.993 105.459 83.9667 103.979 60.4965 103.979C37.0263 103.979 18 105.459 18 107.285C18 109.111 37.0263 110.591 60.4965 110.591Z" fill="#E8E8E8"/>
<path d="M86.2455 106.705H30.7205C30.0295 106.705 29.3454 106.57 28.707 106.307C28.0687 106.043 27.4887 105.658 27.0001 105.171C26.5115 104.685 26.1239 104.107 25.8595 103.472C25.5951 102.836 25.459 102.155 25.459 101.467V25.2369C25.4592 23.8479 26.0135 22.5159 27.0001 21.5338C27.9866 20.5517 29.3246 20 30.7197 20H86.2447C87.6398 20 88.9777 20.5517 89.9643 21.5338C90.9508 22.5159 91.5051 23.8479 91.5054 25.2369V101.467C91.5054 102.856 90.9512 104.188 89.9648 105.171C88.9784 106.153 87.6406 106.705 86.2455 106.705Z" fill="#43B2B5"/>
<path d="M84.821 27.9385H32.0674V101.152H84.821V27.9385Z" fill="#ECF6F4"/>
<path d="M73.3909 66.0945H38.8964C38.6263 66.0936 38.3675 65.9864 38.1765 65.7963C37.9855 65.6061 37.8778 65.3484 37.877 65.0795C37.8778 64.8105 37.9855 64.5528 38.1765 64.3627C38.3675 64.1725 38.6263 64.0653 38.8964 64.0645H73.3909C73.661 64.0653 73.9198 64.1725 74.1108 64.3627C74.3018 64.5528 74.4095 64.8105 74.4103 65.0795C74.4095 65.3484 74.3018 65.6061 74.1108 65.7963C73.9198 65.9864 73.661 66.0936 73.3909 66.0945Z" fill="white"/>
<path d="M73.3909 75.3289H38.8964C38.6263 75.328 38.3675 75.2208 38.1765 75.0306C37.9855 74.8405 37.8778 74.5828 37.877 74.3138C37.8778 74.0449 37.9855 73.7872 38.1765 73.5971C38.3675 73.4069 38.6263 73.2997 38.8964 73.2988H73.3909C73.661 73.2997 73.9198 73.4069 74.1108 73.5971C74.3018 73.7872 74.4095 74.0449 74.4103 74.3138C74.4095 74.5828 74.3018 74.8405 74.1108 75.0306C73.9198 75.2208 73.661 75.328 73.3909 75.3289Z" fill="white"/>
<path d="M73.577 54.4959H57.5126C57.2425 54.495 56.9837 54.3878 56.7927 54.1976C56.6017 54.0075 56.494 53.7498 56.4932 53.4808C56.4942 53.212 56.602 52.9544 56.7929 52.7643C56.9839 52.5742 57.2426 52.4669 57.5126 52.4658H73.577C73.8476 52.4658 74.1072 52.5727 74.2988 52.763C74.4903 52.9533 74.5983 53.2114 74.5989 53.4808C74.5983 53.7503 74.4903 54.0084 74.2988 54.1987C74.1072 54.389 73.8476 54.4959 73.577 54.4959Z" fill="white"/>
<path d="M73.577 44.6141H57.5126C57.2418 44.6133 56.9824 44.5055 56.7913 44.3145C56.6002 44.1234 56.4929 43.8647 56.4932 43.5951C56.4942 43.3262 56.602 43.0687 56.7929 42.8785C56.9839 42.6884 57.2426 42.5811 57.5126 42.5801H73.577C73.8471 42.5809 74.1058 42.6882 74.2967 42.8784C74.4876 43.0685 74.5951 43.3262 74.5957 43.5951C74.5961 43.8647 74.4891 44.1234 74.2981 44.3144C74.1071 44.5055 73.8478 44.6133 73.577 44.6141Z" fill="white"/>
<path d="M67.8576 24.4232H65.1219C65.1198 23.71 64.8342 23.0265 64.3277 22.5222C63.8211 22.0178 63.1347 21.7336 62.4183 21.7314H52.1038C51.3874 21.7336 50.701 22.0178 50.1944 22.5222C49.6879 23.0265 49.4024 23.71 49.4002 24.4232H46.6645C45.9481 24.4253 45.2617 24.7096 44.7551 25.2139C44.2486 25.7183 43.9631 26.4017 43.9609 27.115C43.9631 27.8282 44.2486 28.5116 44.7551 29.016C45.2617 29.5203 45.9481 29.8046 46.6645 29.8067H67.8576C68.574 29.8046 69.2604 29.5203 69.767 29.016C70.2735 28.5116 70.5591 27.8282 70.5612 27.115C70.5591 26.4017 70.2735 25.7183 69.767 25.2139C69.2604 24.7096 68.574 24.4253 67.8576 24.4232Z" fill="#232735"/>
<path fill-rule="evenodd" clip-rule="evenodd" d="M67.7471 81.4361L67.5547 81.3801L67.3625 81.3232C67.3941 81.2178 67.5054 81.1577 67.6114 81.1889C67.7175 81.22 67.7781 81.3306 67.7471 81.4361ZM67.7467 81.4373L67.7464 81.4384L67.7443 81.4454L67.742 81.4532L67.7401 81.4595L67.7204 81.5261C67.7032 81.5846 67.678 81.6706 67.6463 81.7806C67.5827 82.0006 67.4929 82.3163 67.3877 82.6987C67.1772 83.4639 66.9056 84.4954 66.6606 85.5621C66.4153 86.63 66.1978 87.728 66.0943 88.628C66.0424 89.0784 66.0199 89.4729 66.035 89.7863C66.0507 90.1106 66.1055 90.3086 66.1739 90.4014C66.3571 90.65 66.5687 90.7745 66.8206 90.8213C67.0822 90.8699 67.401 90.837 67.7958 90.7387C68.1894 90.6408 68.6378 90.4836 69.1557 90.2992C69.1852 90.2887 69.2149 90.2781 69.2449 90.2675C69.7371 90.0921 70.2859 89.8967 70.8912 89.714C72.1973 89.3199 72.9513 89.4995 73.3803 89.8461C73.5905 90.0159 73.707 90.2142 73.7708 90.3697C73.7726 90.3741 73.7744 90.3785 73.7761 90.3828L75.6398 89.421C75.7381 89.3703 75.8591 89.4084 75.9101 89.5061C75.9611 89.6039 75.9228 89.7243 75.8245 89.775L73.7413 90.8501C73.6823 90.8805 73.6119 90.8799 73.5534 90.8484C73.4954 90.8172 73.4566 90.7595 73.4496 90.6943C73.4495 90.6938 73.4495 90.6933 73.4494 90.6928L73.6489 90.6731C73.4494 90.6928 73.4494 90.6927 73.4494 90.6928L73.4495 90.6934L73.4495 90.6939C73.4495 90.6934 73.4494 90.6928 73.4493 90.6919C73.4491 90.6907 73.4488 90.689 73.4485 90.687C73.4474 90.6799 73.4453 90.6681 73.4418 90.6524C73.4346 90.6209 73.4218 90.5747 73.3995 90.5204C73.3549 90.4117 73.2739 90.274 73.1275 90.1556C72.8432 89.926 72.2474 89.7215 71.0076 90.0956C70.4121 90.2753 69.8718 90.4678 69.3784 90.6435C69.3491 90.654 69.3199 90.6644 69.2909 90.6747C68.777 90.8576 68.3094 91.022 67.8931 91.1256C67.478 91.2289 67.0928 91.2776 66.7469 91.2133C66.3913 91.1473 66.0917 90.9646 65.8505 90.6371C65.7066 90.442 65.6505 90.1383 65.6345 89.8054C65.6179 89.4614 65.6429 89.043 65.6959 88.5826C65.802 87.6609 66.0232 86.5462 66.2696 85.4733C66.277 85.4412 66.2844 85.4092 66.2918 85.3772C66.0229 85.9974 65.7209 86.6443 65.3895 87.2803C64.6579 88.6841 63.7745 90.0507 62.7755 90.9565C61.7744 91.8643 60.6201 92.3385 59.3816 91.8579C59.2784 91.8178 59.2274 91.7022 59.2677 91.5996C59.3079 91.497 59.4242 91.4463 59.5273 91.4863C60.5647 91.8889 61.5609 91.5182 62.5053 90.6619C63.4518 89.8036 64.309 88.4868 65.0335 87.0968C65.7561 85.7102 66.3386 84.2667 66.7407 83.1684C66.9416 82.6196 67.0972 82.1579 67.2025 81.8335C67.2551 81.6714 67.2952 81.5437 67.322 81.4566C67.3354 81.4131 67.3455 81.3798 67.3523 81.3575L67.3574 81.3402L67.3607 81.3292L67.3617 81.326L67.362 81.3248L67.3624 81.3236L67.3625 81.3232C67.3625 81.3231 67.3625 81.3232 67.5547 81.3801C67.7471 81.4361 67.7471 81.436 67.7471 81.4361L67.7469 81.4368L67.7467 81.4373Z" fill="#232735"/>
<path d="M100.886 108.927C106.54 108.927 111.124 108.579 111.124 108.15C111.124 107.721 106.54 107.373 100.886 107.373C95.2312 107.373 90.6475 107.721 90.6475 108.15C90.6475 108.579 95.2312 108.927 100.886 108.927Z" fill="#EFE5DA"/>
<path d="M95.3252 103.439L97.5862 103.789L97.1839 106.57C97.1829 106.583 97.1769 106.596 97.1673 106.605C97.1576 106.614 97.1448 106.619 97.1316 106.619C96.6767 106.648 96.2207 106.673 95.7637 106.694C95.6301 106.701 95.4837 106.703 95.3735 106.63L95.3252 103.439Z" fill="#C95836"/>
<path d="M103.617 81.9391C102.945 81.2101 100.407 80.8696 100.243 81.859C99.9015 83.9195 99.6359 96.8447 99.0791 105.492C97.4393 105.584 96.5333 104.962 93.9633 104.865C94.5644 95.5317 93.4145 86.4157 94.0711 76.2207C96.6628 76.4707 98.3976 76.26 100.991 76.5099C101.265 76.5363 102.414 77.0306 102.623 77.2141C102.873 77.4336 102.932 77.8029 102.954 78.1418C103.037 79.4684 104.248 80.8103 103.617 81.9391Z" fill="#9DE4E9"/>
<path d="M98.6688 81.423C98.3277 83.4835 98.0629 96.4095 97.5053 105.056C96.2895 105.124 97.5504 105.586 99.1902 105.494C99.747 96.8422 100.013 83.9185 100.354 81.8612C100.518 80.8686 98.7887 80.6996 98.6688 81.423Z" fill="#5DD6DE"/>
<path d="M106.443 103.588C106.435 103.597 106.427 103.607 106.328 103.706C106.353 104.798 106.131 105.212 106.155 106.304C105.684 106.338 105.46 107.046 104.988 107.072C104.855 107.079 105.003 106.472 104.888 106.387L103.932 103.449L106.443 103.588Z" fill="#C95836"/>
<path d="M99.6714 76.0756C100.614 85.6441 101.558 95.2175 102.847 104.94C103.928 104.459 104.635 105.59 106.355 104.974C106.938 104.766 107.573 105.078 107.573 105.078C107.734 104.91 107.602 103.176 107.607 102.932C107.677 98.7985 107.165 96.5329 106.615 92.005C106.363 85.5095 106.554 81.0785 105.913 75.7695C103.596 75.784 102.029 76.1188 99.7173 76.1917L99.6159 76.1965C99.5829 76.2214 99.5515 76.2462 99.6714 76.0756Z" fill="#9DE4E9"/>
<path d="M84.6007 66.6614L83.3664 66.6918C83.1165 66.6966 82.8728 66.6147 82.6768 66.4603L81.8722 65.8322C81.8073 65.7851 81.7549 65.7228 81.7197 65.6509C81.6845 65.579 81.6675 65.4996 81.6702 65.4196C81.6729 65.3397 81.6952 65.2616 81.7352 65.1922C81.7752 65.1228 81.8316 65.0642 81.8995 65.0215L83.4573 65.0704C83.8263 65.0917 84.1771 65.2368 84.4526 65.4821L84.9459 65.9043L84.6007 66.6614Z" fill="#C95836"/>
<path fill-rule="evenodd" clip-rule="evenodd" d="M83.5293 66.1873C83.5293 66.1873 86.4131 69.6754 88.3257 71.7422C90.3172 73.8932 91.9465 70.3851 90.4073 69.3998C89.7732 68.9944 84.8199 65.8027 84.8199 65.8027L83.5293 66.1873Z" fill="#C95836"/>
<path fill-rule="evenodd" clip-rule="evenodd" d="M98.0922 58.934C98.0922 58.934 97.2876 57.9687 98.3795 57.0914C99.4714 56.2142 99.5599 58.4934 99.5245 58.5199C99.4891 58.5463 98.0922 58.934 98.0922 58.934Z" fill="#572A22"/>
<path fill-rule="evenodd" clip-rule="evenodd" d="M101.291 59.3315C101.291 59.3315 101.106 60.4836 100.217 60.4339C99.3278 60.3842 99.4123 57.8623 99.4123 57.8623L101.291 59.3315Z" fill="#572A22"/>
<path fill-rule="evenodd" clip-rule="evenodd" d="M98.4845 59.6815C98.4845 59.6815 98.5215 60.9497 98.5521 62.0047C98.5613 62.1493 98.6097 62.2887 98.6922 62.408C98.7746 62.5274 98.8881 62.6222 99.0204 62.6825C99.1582 62.7503 99.3101 62.7849 99.4639 62.7835C99.6176 62.7822 99.7689 62.7448 99.9055 62.6745C99.9932 62.628 100.078 62.5824 100.159 62.5383C100.333 62.4531 100.475 62.3158 100.566 62.1459C100.658 61.9759 100.693 61.7817 100.668 61.5906C100.523 60.6124 100.259 58.8291 100.259 58.8291L98.4805 59.6855L98.4845 59.6815Z" fill="#C95836"/>
<path fill-rule="evenodd" clip-rule="evenodd" d="M98.4238 60.4883L98.5284 61.2069L99.317 60.6004L98.4238 60.4883Z" fill="#633C1D"/>
<path fill-rule="evenodd" clip-rule="evenodd" d="M100.734 58.4283C100.771 58.2517 100.738 58.0679 100.643 57.9144C100.549 57.7609 100.398 57.6493 100.223 57.6024L98.9618 57.2635C98.5989 57.1665 98.2955 57.3973 98.1571 57.7369C97.9962 58.1375 97.8683 59.0227 97.8538 59.6805C97.8449 60.0514 98.0533 60.4511 98.417 60.5489C98.8041 60.6522 100.046 60.5993 100.31 59.9448C100.512 59.4465 100.614 58.9563 100.733 58.4283H100.734Z" fill="#C95836"/>
<path fill-rule="evenodd" clip-rule="evenodd" d="M101.467 59.5736C101.467 59.5736 101.75 58.1804 101.226 57.5884C100.519 56.7937 99.536 56.2946 98.3805 57.0933C98.3805 57.0933 97.7505 57.3937 99.6961 57.856C99.9431 57.9144 99.5159 59.0528 99.8257 59.1882C100.349 59.4038 100.904 59.534 101.469 59.5736H101.467Z" fill="#572A22"/>
<path d="M100.84 59.9261C100.987 59.6659 100.924 59.3527 100.699 59.2265C100.474 59.1004 100.173 59.2091 100.025 59.4693C99.8781 59.7295 99.9412 60.0427 100.166 60.1688C100.391 60.295 100.693 60.1863 100.84 59.9261Z" fill="#C95836"/>
<path fill-rule="evenodd" clip-rule="evenodd" d="M94.7696 62.2044L97.8762 61.6756L100.563 61.4297L103.138 62.1403C104.304 62.6754 105.296 62.7932 105.343 64.083L105.762 69.4072C106.722 72.3001 106.765 74.4543 106.684 77.4569C101.878 79.3515 94.5708 79.084 92.9873 76.9257C93.0975 70.9133 92.9954 68.7127 94.7696 62.2044Z" fill="white"/>
<path d="M97.9018 61.6763C97.9018 61.6763 97.0255 64.3272 98.8496 64.4001C100.674 64.473 101.469 61.7188 101.469 61.7188L100.101 61.166L97.9018 61.6763Z" fill="#C95836"/>
<path d="M94.8362 62.2041C94.8362 62.2041 93.6969 62.3643 90.9088 66.3483L88.9665 67.9866L85.4116 65.9389L84.582 67.7599L88.4748 72.1997C88.4748 72.1997 89.9497 73.161 90.7584 72.2798C91.567 71.3985 94.2183 68.4392 94.2183 68.4392C94.2183 68.4392 95.8122 62.6984 94.8362 62.2041Z" fill="white"/>
<path d="M105.043 63.1699C105.043 63.1699 102.589 64.9148 103.272 66.674C103.272 66.674 105.997 73.804 106.642 74.8518C107.507 76.2594 108.006 73.2744 108.006 73.2744L111.274 70.9696L108.795 71.7147L108.683 67.7892L105.043 63.1699Z" fill="white"/>
<path fill-rule="evenodd" clip-rule="evenodd" d="M104.822 106.242C104.822 106.242 104.54 107.39 104.551 108.101C104.556 108.169 104.576 108.234 104.608 108.294C104.64 108.353 104.685 108.405 104.739 108.446C104.848 108.54 104.99 108.588 105.134 108.582L105.945 108.518C106.06 108.514 106.169 108.464 106.249 108.381L106.399 108.216C106.651 107.939 106.539 107.647 106.391 107.236C106.289 106.937 106.203 106.633 106.135 106.324C105.423 105.848 104.822 106.242 104.822 106.242Z" fill="#232735"/>
<path d="M108.564 75.5916L103.48 75.8119C103.219 75.8231 103.078 75.6268 103.158 75.3769L105.834 67.5347C105.884 67.4053 105.97 67.2923 106.081 67.2084C106.192 67.1244 106.325 67.0726 106.464 67.0588L111.547 66.8393C111.807 66.8281 111.949 67.0236 111.868 67.2743L109.193 75.1157C109.143 75.2452 109.057 75.3582 108.946 75.4422C108.835 75.5262 108.703 75.5779 108.564 75.5916Z" fill="#232735"/>
<path d="M110.288 72.5566L111.078 71.8628C111.237 71.7213 111.341 71.5279 111.37 71.3173L111.494 70.4513C111.505 70.3832 111.5 70.3135 111.478 70.2479C111.457 70.1824 111.42 70.1228 111.371 70.0742C111.322 70.0255 111.262 69.9892 111.196 69.9681C111.13 69.947 111.06 69.9419 110.992 69.953L110.049 70.8839C109.831 71.1097 109.698 71.4034 109.672 71.7154L109.649 71.9397C109.64 72.0358 109.662 72.1321 109.712 72.2151C109.761 72.298 109.836 72.3631 109.925 72.4012L110.288 72.5566Z" fill="#C95836"/>
<path fill-rule="evenodd" clip-rule="evenodd" d="M95.4004 106.065L94.2361 107.014C93.965 107.254 92.5199 107.716 92.5199 107.716C92.3654 108.011 92.6373 108.168 92.8715 108.207L97.0853 108.119C97.0853 108.119 98.0662 107.918 97.2792 106.052C96.4987 106.388 95.5766 106.643 95.4004 106.065Z" fill="#232735"/>
<path d="M43.9792 51.3019C44.3011 50.5528 45.368 50.544 45.6746 51.2875C45.7589 51.4887 45.8825 51.6714 46.0382 51.8248C46.1938 51.9782 46.3785 52.0994 46.5815 52.1813C46.7845 52.2633 47.0018 52.3044 47.2208 52.3022C47.4398 52.3 47.6562 52.2547 47.8576 52.1687L48.2985 51.9844C48.7091 51.8171 49.0366 51.4951 49.2099 51.0885C49.3832 50.6819 49.3882 50.2237 49.2238 49.8134C48.9164 49.07 49.6792 48.3161 50.4308 48.6189C50.8444 48.7823 51.3058 48.7781 51.7163 48.6071C52.1268 48.4361 52.4538 48.112 52.6274 47.7041L52.8133 47.2683C52.8999 47.0689 52.9455 46.8542 52.9475 46.637C52.9496 46.4198 52.9079 46.2044 52.8251 46.0034C52.7422 45.8025 52.6198 45.6201 52.4651 45.4669C52.3104 45.3137 52.1265 45.193 51.9242 45.1116C51.171 44.8088 51.1799 43.7497 51.9378 43.4365C52.3482 43.269 52.6756 42.947 52.8488 42.5404C53.0219 42.1338 53.0268 41.6756 52.8624 41.2655L52.6837 40.8321C52.5994 40.6308 52.4758 40.4482 52.3201 40.2947C52.1645 40.1413 51.9798 40.0201 51.7768 39.9382C51.5738 39.8562 51.3566 39.8152 51.1375 39.8173C50.9185 39.8195 50.7021 39.8649 50.5008 39.9508C50.3353 40.0228 50.1519 40.0436 49.9743 40.0105C49.7968 39.9775 49.6334 39.8921 49.5052 39.7654C49.377 39.6387 49.29 39.4766 49.2555 39.3001C49.2209 39.1237 49.2405 38.9409 49.3115 38.7756C49.3981 38.5763 49.4437 38.3617 49.4457 38.1445C49.4478 37.9274 49.4061 37.712 49.3233 37.5111C49.2404 37.3102 49.118 37.1279 48.9633 36.9748C48.8086 36.8217 48.6247 36.701 48.4224 36.6198L47.9831 36.4435C47.5694 36.2804 47.1081 36.2847 46.6977 36.4557C46.2872 36.6266 45.9602 36.9506 45.7864 37.3584C45.4646 38.1074 44.3976 38.1163 44.0903 37.372C44.0056 37.1711 43.8819 36.9889 43.7261 36.8359C43.5704 36.6829 43.3857 36.5622 43.1828 36.4806C42.9799 36.3991 42.7628 36.3583 42.544 36.3608C42.3253 36.3632 42.1091 36.4087 41.9081 36.4948L41.472 36.6783C41.0616 36.8457 40.7342 37.1678 40.5611 37.5744C40.3879 37.9809 40.3831 38.4391 40.5475 38.8493C40.8541 39.5935 40.0921 40.3474 39.3405 40.0446C38.9269 39.8813 38.4655 39.8855 38.055 40.0563C37.6444 40.2271 37.3172 40.5509 37.1431 40.9586L36.9572 41.3952C36.8708 41.5946 36.8253 41.8092 36.8234 42.0264C36.8215 42.2436 36.8632 42.4589 36.9461 42.6598C37.029 42.8606 37.1515 43.043 37.3062 43.196C37.4609 43.3491 37.6449 43.4698 37.8472 43.5511C38.5995 43.8539 38.5914 44.913 37.8335 45.227C37.4231 45.3945 37.0957 45.7165 36.9225 46.1231C36.7494 46.5297 36.7445 46.9879 36.909 47.398L37.0876 47.8314C37.1719 48.0326 37.2955 48.2151 37.4511 48.3685C37.6067 48.5219 37.7913 48.643 37.9942 48.7249C38.1971 48.8069 38.4142 48.848 38.6332 48.8459C38.8521 48.8438 39.0685 48.7985 39.2697 48.7127C39.4352 48.6406 39.6186 48.6196 39.7961 48.6526C39.9737 48.6855 40.1372 48.7708 40.2655 48.8974C40.3937 49.024 40.4808 49.186 40.5155 49.3625C40.5501 49.539 40.5307 49.7218 40.4598 49.8871C40.3731 50.0862 40.3273 50.3005 40.325 50.5175C40.3227 50.7345 40.364 50.9497 40.4464 51.1506C40.5289 51.3514 40.6509 51.5338 40.8052 51.6871C40.9594 51.8403 41.143 51.9613 41.3449 52.0429L41.7834 52.2192C42.1973 52.3817 42.6585 52.3768 43.0688 52.2054C43.4791 52.0341 43.8058 51.7098 43.9792 51.3019ZM41.0536 42.7892C41.95 40.6855 44.3912 39.6688 46.5058 40.5196C47.0078 40.7214 47.4641 41.021 47.8481 41.401C48.2321 41.7809 48.5358 42.2334 48.7416 42.732C48.9473 43.2305 49.0508 43.765 49.046 44.3039C49.0412 44.8429 48.9282 45.3755 48.7137 45.8703C47.8173 47.9748 45.3761 48.9947 43.2607 48.1399C42.7587 47.9381 42.3023 47.6385 41.9184 47.2585C41.5345 46.8786 41.2307 46.426 41.0251 45.9274C40.8194 45.4289 40.716 44.8944 40.7209 44.3554C40.7258 43.8165 40.8389 43.284 41.0536 42.7892Z" fill="#FCD960"/>
<path d="M46.499 48.4856C48.7922 47.4918 49.8421 44.8354 48.8441 42.5522C47.846 40.2689 45.1779 39.2236 42.8847 40.2173C40.5914 41.211 39.5415 43.8675 40.5396 46.1507C41.5377 48.4339 44.2058 49.4793 46.499 48.4856Z" fill="#FBB400"/>
</svg>
