<svg width="649" height="433" viewBox="0 0 649 433" fill="none" xmlns="http://www.w3.org/2000/svg">
<g clip-path="url(#clip0_389_4973)">
<path d="M549.525 366.565C666.727 246.588 627.38 51.3032 475.933 13.883C430.276 2.59774 379.163 7.90969 327.895 48.3105C170.157 172.684 88.8924 52.5213 35.6131 137.632C-17.6661 222.743 80.3478 368.423 249.784 348.038C321.941 339.345 364.59 469.374 503.96 398.911C520.452 390.577 537.963 378.404 549.525 366.565Z" fill="#F9F9F9"/>
<path d="M604.481 184.441L477.686 140.118L430.736 274.998L557.532 319.321L604.481 184.441Z" fill="#FCD960"/>
<path d="M565.637 225.375L482.693 196.381L479.874 204.482L562.817 233.476L565.637 225.375Z" fill="#F5EBDF"/>
<path d="M573.451 197.578L492.172 169.166L489.352 177.266L570.632 205.679L573.451 197.578Z" fill="#F5EBDF"/>
<path d="M555.674 254.001L472.73 225.007L469.911 233.107L552.854 262.102L555.674 254.001Z" fill="#F5EBDF"/>
<path d="M503.883 269.163L462.41 254.665L459.59 262.766L501.064 277.264L503.883 269.163Z" fill="#F5EBDF"/>
<path d="M313.425 211.386L272.041 225.795L274.851 233.899L316.234 219.49L313.425 211.386Z" fill="#F5EBDF"/>
<path d="M306.611 233.532C306.611 233.532 287.805 148.212 217.321 130.534L280.144 234.309C280.144 234.309 243.532 180.399 174.859 214.579C174.859 214.579 245.128 229.954 271.385 263.057C271.385 263.057 284.889 290.82 291.918 292.338C334.747 301.598 306.611 233.532 306.611 233.532Z" fill="#FCEC60"/>
<path d="M397.21 420.391C493.984 420.391 572.434 411.862 572.434 401.341C572.434 390.82 493.984 382.291 397.21 382.291C300.437 382.291 221.986 390.82 221.986 401.341C221.986 411.862 300.437 420.391 397.21 420.391Z" fill="#E8E8E8"/>
<path d="M258.61 399.079L530.957 399.079V265.649H258.61V399.079Z" fill="#9DE4E9"/>
<path d="M258.607 399.079H349.738V265.649H258.607V399.079Z" fill="#ECF6F4"/>
<path d="M337.12 274.926H539.525L489.335 178.699H299.992L337.12 274.926Z" fill="#43B2B5"/>
<path d="M299.991 178.699L240.99 276.085L349.738 274.926L299.991 178.699Z" fill="#232735"/>
<path d="M258.611 276.003L304.577 201.34L342.128 274.926C317.528 284.83 289.028 283.248 258.611 276.003Z" fill="#ECF6F4"/>
<path d="M349.738 274.926H342.127L299.991 192.358L249.007 276L240.99 276.085L299.991 178.699L349.738 274.926Z" fill="#5DD6DE"/>
<path d="M284.725 398.443H315.27V349.676H284.725V398.443Z" fill="#9DE4E9"/>
<path d="M367.061 314.328H395.512V288.009H367.061V314.328Z" fill="#5DD6DE"/>
<path d="M284.723 314.328H313.174V288.009H284.723V314.328Z" fill="#9DE4E9"/>
<path d="M428.107 314.328H454.018V288.009H428.107V314.328Z" fill="#5DD6DE"/>
<path d="M486.818 314.331H510.684V288.012H486.818V314.331Z" fill="#5DD6DE"/>
<path d="M367.061 375.492H395.512V349.174H367.061V375.492Z" fill="#5DD6DE"/>
<path d="M428.107 375.492H454.018V349.174H428.107V375.492Z" fill="#5DD6DE"/>
<path d="M486.818 375.492H510.684V349.173H486.818V375.492Z" fill="#B0A597"/>
<path d="M530.955 285.609V399.082H507.873" stroke="#232735" stroke-width="7.1" stroke-linecap="round" stroke-linejoin="round"/>
<path d="M349.738 281.896V380.51" stroke="#232735" stroke-width="7.1" stroke-linecap="round" stroke-linejoin="round"/>
<path d="M520.119 396.096H462.977V409.124H520.119V396.096Z" fill="#FCD960"/>
<path d="M518.012 396.096H496.809V409.124H518.012V396.096Z" fill="#FBB400"/>
<path d="M494.826 396.096H485.941V409.124H494.826V396.096Z" fill="#FBB400"/>
<path d="M472.806 396.096H467.93V409.124H472.806V396.096Z" fill="#FCFFA3"/>
<path d="M520.119 407.188H462.977V409.124H520.119V407.188Z" fill="#D79A02"/>
<path d="M520.119 383.418H462.977V396.446H520.119V383.418Z" fill="#FCD960"/>
<path d="M518.012 383.418H496.809V396.446H518.012V383.418Z" fill="#FBB400"/>
<path d="M494.826 383.418H485.941V396.446H494.826V383.418Z" fill="#FBB400"/>
<path d="M472.806 383.418H467.93V396.446H472.806V383.418Z" fill="#FCFFA3"/>
<path d="M520.119 394.51H462.977V396.446H520.119V394.51Z" fill="#D79A02"/>
<path d="M516.305 370.74H459.162V383.768H516.305V370.74Z" fill="#FCD960"/>
<path d="M514.197 370.74H492.994V383.768H514.197V370.74Z" fill="#FBB400"/>
<path d="M491.017 370.74H482.133V383.768H491.017V370.74Z" fill="#FBB400"/>
<path d="M468.993 370.74H464.117V383.768H468.993V370.74Z" fill="#FCFFA3"/>
<path d="M516.305 381.833H459.162V383.768H516.305V381.833Z" fill="#D79A02"/>
<path d="M521.039 357.808H463.896V370.836H521.039V357.808Z" fill="#FCD960"/>
<path d="M518.93 357.808H497.727V370.836H518.93V357.808Z" fill="#FBB400"/>
<path d="M495.752 357.808H486.867V370.836H495.752V357.808Z" fill="#FBB400"/>
<path d="M473.728 357.808H468.852V370.836H473.728V357.808Z" fill="#FCFFA3"/>
<path d="M521.039 368.901H463.896V370.836H521.039V368.901Z" fill="#D79A02"/>
<path d="M521.039 344.777H463.896V357.805H521.039V344.777Z" fill="#FCD960"/>
<path d="M518.93 344.777H497.727V357.805H518.93V344.777Z" fill="#FBB400"/>
<path d="M495.752 344.777H486.867V357.805H495.752V344.777Z" fill="#FBB400"/>
<path d="M473.728 344.777H468.852V357.805H473.728V344.777Z" fill="#FCFFA3"/>
<path d="M521.039 355.873H463.896V357.808H521.039V355.873Z" fill="#D79A02"/>
<path d="M455.68 395.929H398.537V408.957H455.68V395.929Z" fill="#FCD960"/>
<path d="M453.568 395.929H432.365V408.957H453.568V395.929Z" fill="#FBB400"/>
<path d="M430.388 395.929H421.504V408.957H430.388V395.929Z" fill="#FBB400"/>
<path d="M408.366 395.929H403.49V408.957H408.366V395.929Z" fill="#FCFFA3"/>
<path d="M455.68 407.022H398.537V408.957H455.68V407.022Z" fill="#D79A02"/>
<path d="M455.68 382.898H398.537V395.926H455.68V382.898Z" fill="#FCD960"/>
<path d="M453.568 382.898H432.365V395.926H453.568V382.898Z" fill="#FBB400"/>
<path d="M430.388 382.898H421.504V395.926H430.388V382.898Z" fill="#FBB400"/>
<path d="M408.366 382.898H403.49V395.926H408.366V382.898Z" fill="#FCFFA3"/>
<path d="M455.68 393.994H398.537V395.929H455.68V393.994Z" fill="#D79A02"/>
<path d="M435.74 234.099V234.096C435.74 230.734 433.021 228.009 429.667 228.009H423.092C419.738 228.009 417.019 230.734 417.019 234.096V234.099C417.019 237.46 419.738 240.185 423.092 240.185H429.667C433.021 240.185 435.74 237.46 435.74 234.099Z" fill="#FBB400"/>
<path d="M436.793 215.962V215.959C436.793 212.598 434.074 209.873 430.72 209.873H424.145C420.791 209.873 418.072 212.598 418.072 215.959V215.962C418.072 219.324 420.791 222.049 424.145 222.049H430.72C434.074 222.049 436.793 219.324 436.793 215.962Z" fill="#FBB400"/>
<path d="M424.984 240.045V164.772C424.978 162.297 423.993 159.925 422.247 158.175C420.5 156.424 418.133 155.438 415.663 155.431C413.193 155.438 410.826 156.424 409.08 158.175C407.333 159.925 406.349 162.297 406.342 164.772V240.045C406.349 242.52 407.333 244.892 409.08 246.643C410.826 248.393 413.193 249.379 415.663 249.386C418.133 249.379 420.499 248.392 422.246 246.642C423.992 244.892 424.977 242.52 424.984 240.045Z" fill="#FBB400"/>
<path d="M452.813 165.762C458.675 145.529 447.061 124.366 426.873 118.492C406.685 112.618 385.567 124.258 379.706 144.491C373.844 164.723 385.457 185.887 405.645 191.761C425.834 197.634 446.951 185.994 452.813 165.762Z" fill="#FCD960"/>
<path d="M440.462 159.643C443.447 146.346 435.111 133.141 421.842 130.149C408.573 127.157 395.397 135.512 392.411 148.809C389.426 162.106 397.762 175.31 411.031 178.302C424.3 181.294 437.476 172.94 440.462 159.643Z" fill="#FBB400"/>
<path fill-rule="evenodd" clip-rule="evenodd" d="M392.09 131.64C391.592 133.579 390.733 135.803 389.279 137.117C389.139 137.249 389.032 137.413 388.968 137.595C388.905 137.778 388.887 137.973 388.916 138.164C388.944 138.355 389.019 138.536 389.133 138.692C389.247 138.848 389.397 138.973 389.571 139.058C391.407 139.955 393.051 141.201 394.412 142.727C394.553 142.897 394.738 143.024 394.946 143.094C395.154 143.165 395.378 143.176 395.592 143.127C395.807 143.078 396.003 142.971 396.161 142.817C396.318 142.663 396.43 142.468 396.483 142.254C396.952 140.371 397.832 138.616 399.061 137.117C399.175 136.977 399.256 136.813 399.297 136.637C399.339 136.461 399.339 136.278 399.299 136.102C399.26 135.926 399.18 135.761 399.067 135.62C398.954 135.479 398.811 135.366 398.647 135.289C396.836 134.414 395.318 133.029 394.278 131.305C394.156 131.1 393.977 130.937 393.762 130.835C393.547 130.733 393.306 130.698 393.071 130.734C392.837 130.771 392.618 130.876 392.443 131.037C392.268 131.199 392.145 131.409 392.09 131.64Z" fill="white"/>
<path d="M208.713 303.655L210.723 307.199C211.124 307.907 211.766 308.447 212.532 308.72L215.631 309.829C215.881 309.919 216.149 309.946 216.412 309.908C216.675 309.871 216.925 309.771 217.14 309.615C217.356 309.46 217.531 309.255 217.65 309.017C217.769 308.779 217.829 308.516 217.825 308.25L215.048 303.939C214.375 302.946 213.375 302.223 212.223 301.895L210.219 301.282L208.713 303.655Z" fill="#C95836"/>
<path d="M202.328 422.001C221.859 421.805 237.674 419.88 237.652 417.7C237.63 415.52 221.78 413.912 202.25 414.108C182.719 414.303 166.904 416.229 166.926 418.409C166.948 420.588 182.798 422.197 202.328 422.001Z" fill="#EFE5DA"/>
<path fill-rule="evenodd" clip-rule="evenodd" d="M212.292 413.444L217.439 412.291L216.632 405.369L210.611 405.171L212.292 413.444Z" fill="#C95836"/>
<path fill-rule="evenodd" clip-rule="evenodd" d="M199.879 307.103C210.59 319.363 210.622 315.554 210.622 315.554C210.622 315.554 217.266 356.863 217.144 358.325L219.876 405.291C220.007 407.507 220.814 409.538 218.813 409.69L214.677 410.081C210.945 396.069 197.948 385.018 201.778 363.542L188.961 329.061C173.316 303.148 199.879 307.103 199.879 307.103Z" fill="#5DD6DE"/>
<path fill-rule="evenodd" clip-rule="evenodd" d="M215.115 410.037L209.802 409.745C206.636 410.037 208.485 408.102 207.952 406.368C204.017 393.544 198.22 383.418 201.768 363.533L188.951 329.052C192.106 328.468 195.237 330.097 196.356 332.92C199.962 342.054 213.379 401.928 215.115 410.037Z" fill="#43B2B5"/>
<path fill-rule="evenodd" clip-rule="evenodd" d="M190.925 310.869L187.43 365.626L183.361 412.565L178.49 411.561C176.556 394.835 166.984 382.691 172.956 362.812L171.004 325.254L181.569 312.25L190.925 310.869Z" fill="#C95836"/>
<path fill-rule="evenodd" clip-rule="evenodd" d="M190.927 310.869L187.521 364.452L186.409 408.698C186.37 409.285 186.102 409.833 185.663 410.225C185.225 410.616 184.65 410.82 184.064 410.791L175.468 410.63C175.031 410.632 174.61 410.471 174.287 410.177C173.964 409.884 173.761 409.48 173.72 409.045C173.533 405.574 173.659 395.36 173.298 393.343C171.914 385.71 169.875 380.335 171.221 371.003C172.412 363.043 172.607 354.966 171.803 346.958L168.488 315.627L181.771 312.22L190.927 310.869Z" fill="#5DD6DE"/>
<path fill-rule="evenodd" clip-rule="evenodd" d="M182.693 411.535C182.693 411.535 184.788 415.412 185.475 417.803C185.536 418.003 185.544 418.217 185.498 418.422C185.451 418.626 185.352 418.816 185.21 418.97C185.064 419.13 184.882 419.254 184.68 419.331C184.478 419.408 184.26 419.436 184.045 419.414L181.31 419.172C180.89 419.134 180.492 418.969 180.168 418.699C179.979 418.535 179.748 418.34 179.504 418.135C178.397 417.195 178.47 416.217 178.534 414.837C178.567 413.815 178.54 412.793 178.455 411.775C180.302 410.192 182.693 411.535 182.693 411.535Z" fill="#232735"/>
<path fill-rule="evenodd" clip-rule="evenodd" d="M170.457 316.888C170.457 316.888 189.726 315.638 194.78 315.612L170.361 309.245C170.361 309.245 170.128 314.625 170.457 316.888Z" fill="#728F3B"/>
<path fill-rule="evenodd" clip-rule="evenodd" d="M205.996 301.244C205.996 301.244 215.114 291.979 220.654 284.751C226.419 277.231 233.04 288.523 228.335 292.093C226.398 293.552 211.274 305.121 211.274 305.121L205.996 301.244Z" fill="#C95836"/>
<path fill-rule="evenodd" clip-rule="evenodd" d="M200.055 255.595L191.392 253.225L188.06 253.102L175.141 256.585C173.015 257.464 171.291 259.104 170.302 261.185C169.314 263.267 169.133 265.642 169.793 267.85L171.374 282.153C170.174 294.814 170.267 305.839 170.183 316.246C170.178 317.158 170.49 318.043 171.066 318.748C171.642 319.454 172.445 319.937 173.338 320.114C186.009 322.572 206.673 324.58 212.348 317.373C212.846 294.673 207.847 270.827 200.055 255.595Z" fill="#ECF6F4"/>
<path fill-rule="evenodd" clip-rule="evenodd" d="M193.179 322.364C193.179 322.364 169.474 298.588 171.804 274.812L169.584 294.282C169.584 294.282 167.767 307.127 167.111 318C167.123 318 176.299 323.158 193.179 322.364Z" fill="#9DE4E9"/>
<path d="M209.538 274.444C209.538 274.444 205.618 267.099 204.49 265.243" stroke="#E3BDA8" stroke-width="2.65" stroke-linecap="round" stroke-linejoin="round"/>
<path fill-rule="evenodd" clip-rule="evenodd" d="M199.639 261.063C211.081 260.479 220.46 271.101 228.849 284.903C229.534 286.027 222.243 292.618 221.276 291.448C214.428 283.084 205.29 275.819 205.29 275.819L199.639 261.063Z" fill="#C95836"/>
<path fill-rule="evenodd" clip-rule="evenodd" d="M196.027 254.491C208.224 256.765 210.143 257.624 214.227 262.166C217.65 265.961 221.361 270.631 224.903 274.245C225.85 275.209 217.397 279.365 216.566 280.588C209.468 291.045 197.886 266.746 197.886 266.746L196.027 254.491Z" fill="#ECF6F4"/>
<path fill-rule="evenodd" clip-rule="evenodd" d="M176.917 262.058C179.62 281.172 179.247 272.859 157.499 288.733C156.314 289.609 155.207 285.014 153.625 285.49C151.522 286.123 150.13 286.949 150.066 286.31C149.407 280.822 174.278 261.521 174.278 261.521L176.917 262.058Z" fill="#C95836"/>
<path fill-rule="evenodd" clip-rule="evenodd" d="M175.831 256.766C173.605 257.519 171.516 258.629 169.644 260.053C167.85 261.41 164.582 264.355 160.975 266.27C159.65 266.974 156.606 269.137 156.536 270.667C156.137 280.522 165.333 285.16 165.333 285.16L183.976 272.52L175.831 256.766Z" fill="#ECF6F4"/>
<path fill-rule="evenodd" clip-rule="evenodd" d="M174.613 304.805C174.587 303.317 164.532 289.959 158.368 286.768C155.4 285.23 153.562 283.303 151.983 283.726C148.659 284.617 148.071 290.385 151.488 293.152C153.562 294.834 169.414 305.804 169.414 305.804L174.613 304.805Z" fill="#C95836"/>
<path d="M206.851 275.349L205.715 268.658" stroke="#B8B0A6" stroke-width="3.92" stroke-linecap="round" stroke-linejoin="round"/>
<path d="M177.849 268.848L174.615 276.309" stroke="#B8B0A6" stroke-width="3.92" stroke-linecap="round" stroke-linejoin="round"/>
<path d="M172.447 303.165L168.815 305.001C168.089 305.366 167.519 305.982 167.21 306.735L165.949 309.78C165.848 310.025 165.807 310.291 165.831 310.556C165.854 310.82 165.941 311.075 166.085 311.298C166.228 311.521 166.422 311.707 166.652 311.838C166.882 311.97 167.141 312.044 167.405 312.054L171.842 309.491C172.867 308.868 173.641 307.902 174.026 306.764L174.734 304.788L172.447 303.165Z" fill="#C95836"/>
<path fill-rule="evenodd" clip-rule="evenodd" d="M217.274 411.468L221.352 414.439C222.153 415.172 226.519 416.6 226.519 416.6C226.953 417.51 226.103 417.989 225.38 418.109L212.499 417.84C212.499 417.84 209.525 417.221 212.164 411.474C214.5 412.513 216.665 413.254 217.274 411.468Z" fill="#232735"/>
<path fill-rule="evenodd" clip-rule="evenodd" d="M196.491 246.52C196.491 246.52 199.695 243.349 196.01 239.613C192.326 235.876 191.315 244.21 191.428 244.324C191.542 244.438 196.491 246.52 196.491 246.52Z" fill="#572A22"/>
<path fill-rule="evenodd" clip-rule="evenodd" d="M184.801 246.467C184.801 246.467 185.118 250.793 188.349 251.036C191.579 251.278 192.039 241.951 192.039 241.951L184.801 246.467Z" fill="#572A22"/>
<path fill-rule="evenodd" clip-rule="evenodd" d="M194.849 249.094C194.849 249.094 194.331 253.744 193.9 257.598C193.83 258.115 193.616 258.603 193.282 259.004C192.948 259.405 192.508 259.704 192.012 259.866C191.48 260.049 190.913 260.104 190.356 260.025C189.799 259.947 189.269 259.739 188.808 259.416L187.934 258.794C186.667 257.892 186.061 256.442 186.381 255.061L188.712 245.089L194.849 249.094Z" fill="#C95836"/>
<path fill-rule="evenodd" clip-rule="evenodd" d="M194.824 252.086L194.227 254.679L191.559 252.072L194.824 252.086Z" fill="#633C1D"/>
<path fill-rule="evenodd" clip-rule="evenodd" d="M187.091 243.402C187.002 242.752 187.173 242.094 187.567 241.57C187.96 241.046 188.544 240.699 189.192 240.605L193.852 239.96C195.195 239.773 196.223 240.772 196.611 242.085C197.068 243.635 197.266 246.954 197.121 249.383C197.039 250.752 196.162 252.124 194.819 252.302C193.389 252.501 188.915 251.718 188.155 249.176C187.572 247.246 187.354 245.381 187.086 243.393L187.091 243.402Z" fill="#C95836"/>
<path fill-rule="evenodd" clip-rule="evenodd" d="M184.09 247.27C184.09 247.27 183.49 242.015 185.573 240.08C188.369 237.491 192.08 236.122 196.013 239.613C196.013 239.613 198.203 241.017 191.023 241.79C190.111 241.89 191.314 246.286 190.149 246.636C188.585 247.109 186.601 247.369 184.09 247.27Z" fill="#572A22"/>
<path d="M188.689 250.051C189.517 249.641 189.786 248.492 189.29 247.485C188.794 246.477 187.72 245.992 186.892 246.402C186.064 246.811 185.795 247.96 186.291 248.968C186.787 249.975 187.861 250.46 188.689 250.051Z" fill="#C95836"/>
<path fill-rule="evenodd" clip-rule="evenodd" d="M195.87 248.219L193.727 248.642C193.727 248.642 194.088 250.131 195.093 249.809C196.098 249.488 195.87 248.219 195.87 248.219Z" fill="white"/>
</g>
<defs>
<clipPath id="clip0_389_4973">
<rect width="649" height="433" fill="white"/>
</clipPath>
</defs>
</svg>
