<svg width="67" height="66" viewBox="0 0 67 66" fill="none" xmlns="http://www.w3.org/2000/svg">
<circle cx="40" cy="39" r="27" fill="#ECF6F4"/>
<path fill-rule="evenodd" clip-rule="evenodd" d="M25 4.21053C13.5183 4.21053 4.21053 13.5183 4.21053 25C4.21053 36.4817 13.5183 45.7895 25 45.7895C36.4817 45.7895 45.7895 36.4817 45.7895 25C45.7895 13.5183 36.4817 4.21053 25 4.21053ZM0 25C0 11.1929 11.1929 0 25 0C38.8071 0 50 11.1929 50 25C50 38.8071 38.8071 50 25 50C11.1929 50 0 38.8071 0 25Z" fill="#5DD6DE"/>
<path fill-rule="evenodd" clip-rule="evenodd" d="M25.0375 10C26.1627 10 27.0749 10.9122 27.0749 12.0375V22.9251H37.9625C39.0878 22.9251 40 23.8373 40 24.9625C40 26.0878 39.0878 27 37.9625 27H25.0375C23.9122 27 23 26.0878 23 24.9625V12.0375C23 10.9122 23.9122 10 25.0375 10Z" fill="#5DD6DE"/>
</svg>
