<svg width="67" height="65" viewBox="0 0 67 65" fill="none" xmlns="http://www.w3.org/2000/svg">
<path d="M66.7824 19.8785C66.7824 35.3425 57.2824 54.8017 38.2824 61.8017C-19.4656 83.0771 1.79519 -13.0644 14.7824 18.3786C24.2824 41.3788 66.7824 4.41451 66.7824 19.8785Z" fill="#ECF6F4"/>
<path fill-rule="evenodd" clip-rule="evenodd" d="M33.0005 6.83796C34.9241 9.11648 38.511 13.586 41.6903 18.7654C45.1252 24.361 47.8726 30.4529 47.8726 35.4093C47.8726 40.1478 46.3891 43.8237 43.9017 46.3111C41.4144 48.7984 37.7385 50.2819 33 50.2819C28.2615 50.2819 24.5856 48.7984 22.0982 46.3111C19.6108 43.8237 18.1273 40.1478 18.1273 35.4093C18.1273 30.4529 20.8748 24.361 24.3097 18.7654C27.4893 13.5858 31.0765 9.11629 33.0005 6.83796ZM31.6404 3.16468C32.0669 2.96836 32.531 2.8667 33.0006 2.8667C33.4701 2.8667 33.9342 2.96836 34.3607 3.16468C34.7873 3.36102 35.1663 3.64736 35.4718 4.00405L35.4729 4.00532C37.3415 6.19165 41.3288 11.0691 44.8591 16.8202C48.3409 22.4924 51.5908 29.3472 51.5908 35.4093C51.5908 40.9387 49.8424 45.6287 46.5309 48.9402C43.2194 52.2517 38.5294 54.0001 33 54.0001C27.4705 54.0001 22.7806 52.2517 19.4691 48.9402C16.1576 45.6287 14.4092 40.9387 14.4092 35.4093C14.4092 29.3472 17.659 22.4924 21.141 16.8202C24.6714 11.0691 28.659 6.19158 30.5284 4.0051L30.5293 4.00405C30.8348 3.64736 31.2138 3.36101 31.6404 3.16468Z" fill="#5DD6DE"/>
<path fill-rule="evenodd" clip-rule="evenodd" d="M43.2249 34.48C44.2517 34.48 45.084 35.3123 45.084 36.3391C45.084 39.0509 44.0067 41.6516 42.0892 43.5692C40.1717 45.4867 37.5709 46.564 34.8591 46.564C33.8323 46.564 33 45.7317 33 44.7049C33 43.6782 33.8323 42.8458 34.8591 42.8458C36.5848 42.8458 38.2398 42.1603 39.4601 40.94C40.6803 39.7198 41.3659 38.0648 41.3659 36.3391C41.3659 35.3123 42.1982 34.48 43.2249 34.48Z" fill="#5DD6DE"/>
</svg>
