<svg width="62" height="62" viewBox="0 0 62 62" fill="none" xmlns="http://www.w3.org/2000/svg">
<path d="M52.3125 52.3125V27.9726C52.3082 27.7045 52.2502 27.4399 52.1421 27.1945C52.0339 26.9491 51.8778 26.7279 51.6828 26.5437L32.3078 8.93669C31.9506 8.60993 31.4841 8.42871 31 8.42871C30.5159 8.42871 30.0494 8.60993 29.6922 8.93669L10.3172 26.5437C10.1222 26.7279 9.96607 26.9491 9.85793 27.1945C9.74978 27.4399 9.69184 27.7045 9.6875 27.9726V52.3125" stroke="#5DD6DE" stroke-width="3" stroke-linecap="round" stroke-linejoin="round"/>
<path d="M3.875 52.3125H58.125" stroke="#5DD6DE" stroke-width="3" stroke-linecap="round" stroke-linejoin="round"/>
<path d="M36.8125 52.3125V38.75C36.8125 38.2361 36.6084 37.7433 36.245 37.38C35.8817 37.0166 35.3889 36.8125 34.875 36.8125H27.125C26.6111 36.8125 26.1183 37.0166 25.755 37.38C25.3916 37.7433 25.1875 38.2361 25.1875 38.75V52.3125" stroke="#5DD6DE" stroke-width="3" stroke-linecap="round" stroke-linejoin="round"/>
</svg>
