<svg width="62" height="62" viewBox="0 0 62 62" fill="none" xmlns="http://www.w3.org/2000/svg">
<path d="M3.875 29.0625H58.125" stroke="#5DD6DE" stroke-width="3" stroke-linecap="round" stroke-linejoin="round"/>
<path d="M54.25 44.5625V50.375C54.25 50.8889 54.0459 51.3817 53.6825 51.745C53.3192 52.1084 52.8264 52.3125 52.3125 52.3125H46.5C45.9861 52.3125 45.4933 52.1084 45.13 51.745C44.7666 51.3817 44.5625 50.8889 44.5625 50.375V44.5625" stroke="#5DD6DE" stroke-width="3" stroke-linecap="round" stroke-linejoin="round"/>
<path d="M17.4375 44.5625V50.375C17.4375 50.8889 17.2334 51.3817 16.87 51.745C16.5067 52.1084 16.0139 52.3125 15.5 52.3125H9.6875C9.17364 52.3125 8.68083 52.1084 8.31748 51.745C7.95413 51.3817 7.75 50.8889 7.75 50.375V44.5625" stroke="#5DD6DE" stroke-width="3" stroke-linecap="round" stroke-linejoin="round"/>
<path d="M15.5 36.8125H19.375" stroke="#5DD6DE" stroke-width="3" stroke-linecap="round" stroke-linejoin="round"/>
<path d="M42.625 36.8125H46.5" stroke="#5DD6DE" stroke-width="3" stroke-linecap="round" stroke-linejoin="round"/>
<path d="M54.25 29.0625L47.0086 12.7875C46.8583 12.4432 46.6112 12.15 46.2973 11.9436C45.9834 11.7372 45.6163 11.6265 45.2406 11.625H16.7594C16.3837 11.6265 16.0166 11.7372 15.7027 11.9436C15.3888 12.15 15.1417 12.4432 14.9914 12.7875L7.75 29.0625V44.5625H54.25V29.0625Z" stroke="#5DD6DE" stroke-width="3" stroke-linecap="round" stroke-linejoin="round"/>
</svg>
