<svg width="62" height="62" viewBox="0 0 62 62" fill="none" xmlns="http://www.w3.org/2000/svg">
<path d="M54.25 29.3077V18.4062C54.2482 16.8652 53.6353 15.3878 52.5456 14.2981C51.4559 13.2085 49.9785 12.5955 48.4375 12.5938H13.5625C12.0215 12.5955 10.5441 13.2085 9.45439 14.2981C8.36472 15.3878 7.75176 16.8652 7.75 18.4062V29.3077C6.08745 29.7394 4.61501 30.7103 3.56323 32.0683C2.51144 33.4263 1.93969 35.0948 1.9375 36.8125V50.375C1.93865 51.4024 2.34728 52.3873 3.07374 53.1138C3.80019 53.8402 4.78514 54.2488 5.8125 54.25H7.75V60.0625H11.625V54.25H50.375V60.0625H54.25V54.25H56.1875C57.2149 54.2488 58.1998 53.8402 58.9263 53.1138C59.6527 52.3873 60.0613 51.4024 60.0625 50.375V36.8125C60.0603 35.0948 59.4886 33.4263 58.4368 32.0683C57.385 30.7103 55.9125 29.7394 54.25 29.3077ZM13.5625 50.375H5.8125V36.8125C5.8125 35.7848 6.22076 34.7992 6.94746 34.0725C7.67416 33.3458 8.65979 32.9375 9.6875 32.9375C10.7152 32.9375 11.7008 33.3458 12.4275 34.0725C13.1542 34.7992 13.5625 35.7848 13.5625 36.8125V50.375ZM44.5625 50.375H17.4375V38.75H44.5625V50.375ZM44.8077 34.875H17.1923C16.8434 33.5357 16.1436 32.3137 15.1649 31.3351C14.1863 30.3564 12.9643 29.6566 11.625 29.3077V18.4062C11.6256 17.8926 11.8299 17.4001 12.1932 17.0369C12.5564 16.6737 13.0488 16.4694 13.5625 16.4688H48.4375C48.9512 16.4694 49.4436 16.6737 49.8068 17.0369C50.1701 17.4001 50.3744 17.8926 50.375 18.4062V29.3077C49.0357 29.6566 47.8137 30.3564 46.8351 31.3351C45.8564 32.3137 45.1566 33.5357 44.8077 34.875ZM56.1875 50.375H48.4375V36.8125C48.4375 35.7848 48.8458 34.7992 49.5725 34.0725C50.2992 33.3458 51.2848 32.9375 52.3125 32.9375C53.3402 32.9375 54.3258 33.3458 55.0525 34.0725C55.7792 34.7992 56.1875 35.7848 56.1875 36.8125L56.1899 50.375H56.1875Z" fill="#5DD6DE"/>
</svg>
