<svg width="62" height="62" viewBox="0 0 62 62" fill="none" xmlns="http://www.w3.org/2000/svg">
<path d="M46.5006 5.16675H15.5007C12.6512 5.16675 10.334 7.484 10.334 10.3334V54.2501C10.334 54.9352 10.6062 55.5923 11.0906 56.0768C11.5751 56.5612 12.2322 56.8334 12.9173 56.8334H49.084C49.7691 56.8334 50.4262 56.5612 50.9107 56.0768C51.3951 55.5923 51.6673 54.9352 51.6673 54.2501V10.3334C51.6673 7.484 49.3501 5.16675 46.5006 5.16675ZM46.5006 51.6668H15.5007V10.3334H46.5006V51.6668Z" fill="#5DD6DE"/>
<path d="M20.666 15.5H28.416V20.6667H20.666V15.5ZM33.5827 15.5H41.3327V20.6667H33.5827V15.5ZM20.666 25.8333H28.416V31H20.666V25.8333ZM33.5827 25.9134H41.3327V31H33.5827V25.9134ZM20.666 36.1667H28.416V41.3333H20.666V36.1667ZM33.5827 36.1667H41.3327V41.3333H33.5827V36.1667Z" fill="#5DD6DE"/>
</svg>
