<svg width="62" height="62" viewBox="0 0 62 62" fill="none" xmlns="http://www.w3.org/2000/svg">
<path d="M18.0833 49.0834C23.7903 49.0834 28.4167 44.457 28.4167 38.7501C28.4167 33.0431 23.7903 28.4167 18.0833 28.4167C12.3764 28.4167 7.75 33.0431 7.75 38.7501C7.75 44.457 12.3764 49.0834 18.0833 49.0834Z" stroke="#5DD6DE" stroke-width="3" stroke-linecap="round" stroke-linejoin="round"/>
<path d="M18.084 38.75V38.778" stroke="#5DD6DE" stroke-width="3" stroke-linecap="round" stroke-linejoin="round"/>
<path d="M49.0827 49.0833C51.9362 49.0833 54.2494 46.7701 54.2494 43.9167C54.2494 41.0632 51.9362 38.75 49.0827 38.75C46.2292 38.75 43.916 41.0632 43.916 43.9167C43.916 46.7701 46.2292 49.0833 49.0827 49.0833Z" stroke="#5DD6DE" stroke-width="3" stroke-linecap="round" stroke-linejoin="round"/>
<path d="M51.666 39.2667V28.4167C51.666 27.7316 51.3938 27.0745 50.9094 26.5901C50.4249 26.1056 49.7678 25.8334 49.0827 25.8334H33.5827L28.416 12.9167H12.916V29.7084M27.1243 43.9167H43.916H27.1243Z" stroke="#5DD6DE" stroke-width="3" stroke-linecap="round" stroke-linejoin="round"/>
<path d="M46.5006 12.9167H43.9173C43.2322 12.9167 42.5751 13.1889 42.0906 13.6734C41.6062 14.1579 41.334 14.8149 41.334 15.5001V25.8334" stroke="#5DD6DE" stroke-width="3" stroke-linecap="round" stroke-linejoin="round"/>
</svg>
