<svg xmlns="http://www.w3.org/2000/svg" width="201" height="20" fill="none">
  <path fill="#FBB400" d="M48 .2v19h-4V8.3a27.2 27.2 0 0 1 0-1.7l-5.2 9.8c-.1.3-.4.5-.6.6-.3.2-.6.3-1 .3h-.6l-1-.3-.6-.6-5.2-9.9a35 35 0 0 1 .1 1.8v11h-4V.2h4.4l.3.2.3.4 5 9.6a16 16 0 0 1 1 2.2 33 33 0 0 1 1-2.2l5-9.6.3-.4.3-.2H48ZM70.9 9.7a10 10 0 0 1-2.8 7c-.9.8-2 1.5-3.2 2a11 11 0 0 1-4.2.8c-1.5 0-2.9-.3-4.1-.8a9.4 9.4 0 0 1-6-9 9.2 9.2 0 0 1 6-9c1.2-.5 2.6-.7 4.1-.7 1.6 0 3 .3 4.2.8 1.2.5 2.3 1.1 3.2 2a9.9 9.9 0 0 1 2.8 7Zm-4.7 0a8 8 0 0 0-.3-2.5c-.3-.8-.6-1.4-1.1-2-.5-.5-1-.9-1.7-1.1a6 6 0 0 0-2.4-.5c-.8 0-1.6.2-2.3.5a4.7 4.7 0 0 0-2.8 3 8 8 0 0 0-.4 2.6c0 1 .1 1.8.4 2.6.2.7.6 1.4 1 1.9.5.5 1.1 1 1.8 1.2.7.3 1.5.4 2.3.4 1 0 1.7-.1 2.4-.4.6-.3 1.2-.7 1.7-1.2s.8-1.2 1-2c.3-.7.4-1.5.4-2.5ZM90.6.2v19h-2.3l-1-.1-.6-.6-9.2-11.3a13 13 0 0 1 0 1.8v10.2h-4V.2h2.9l.4.1.3.2.3.4 9.3 11.4a15.4 15.4 0 0 1 0-2V.3h4ZM99 3.6V8h6.1v3.3H99v4.5h8v3.4H94.4V.2H107v3.4h-8ZM119.2 12v7.2h-4.6V12l-7-11.8h4l.9.3.5.7 2.8 5.5A39.2 39.2 0 0 1 117 9a14.7 14.7 0 0 1 1.1-2.3l2.8-5.5c0-.2 0-.3.2-.4a1.6 1.6 0 0 1 1.2-.6h4l-7 11.8ZM153 .4v19h-4.6v-8h-8v8H136V.5h4.6v8h7.9v-8h4.6ZM161.3 3.8v4.5h6.2v3.2h-6.2v4.6h8v3.4h-12.5V.5h12.5v3.3h-8ZM184 16v3.5H172V.5h4.6v15.4h7.2ZM193.1 9.8c1.2 0 2-.3 2.6-.9.5-.5.8-1.3.8-2.3l-.2-1.2-.7-.9-1-.6-1.5-.2h-2.3v6h2.3Zm0-9.4c1.4 0 2.6.2 3.6.5s1.8.8 2.4 1.3a5 5 0 0 1 1.4 2c.3.7.5 1.6.5 2.4a7 7 0 0 1-.5 2.6c-.3.8-.8 1.5-1.4 2-.6.7-1.5 1.1-2.5 1.4-1 .3-2.1.5-3.5.5h-2.3v6.4h-4.6V.5h7Z"/>
  <circle cx="9.7" cy="9.7" r="9.7" fill="#FBB400"/>
</svg>
