<svg width="50" height="50" viewBox="0 0 50 50" fill="none" xmlns="http://www.w3.org/2000/svg">
<path fill-rule="evenodd" clip-rule="evenodd" d="M24.3994 43.5594L24.9994 42.7083L24.3994 43.5594ZM25.5994 43.5594L25.6035 43.5573L25.6139 43.55L25.6452 43.526L25.7681 43.4375C25.8723 43.3604 26.0244 43.2479 26.216 43.1C26.5994 42.8063 27.1431 42.374 27.7921 41.8188C29.4956 40.3627 31.0885 38.7819 32.5577 37.0896C36.0035 33.1042 39.5827 27.4156 39.5827 20.9125C39.5827 17.0271 38.0473 13.2979 35.3139 10.5479C33.9629 9.18687 32.3561 8.10644 30.5859 7.36883C28.8157 6.63122 26.9171 6.25098 24.9994 6.25C23.0817 6.25084 21.1831 6.63091 19.4129 7.36835C17.6427 8.10578 16.0359 9.18601 14.6848 10.5469C11.9487 13.3032 10.4142 17.0299 10.416 20.9135C10.416 27.4156 13.9952 33.1042 17.441 37.0896C18.9102 38.7819 20.5031 40.3627 22.2066 41.8188C22.8566 42.374 23.3994 42.8063 23.7827 43.1C23.9707 43.2449 24.1606 43.3873 24.3525 43.5271L24.3858 43.55L24.3952 43.5573L24.3994 43.5594C24.7587 43.8125 25.24 43.8125 25.5994 43.5594ZM24.9994 42.7083L25.5994 43.5594L24.9994 42.7083ZM30.2077 20.8333C30.2077 22.2147 29.659 23.5394 28.6822 24.5162C27.7054 25.4929 26.3807 26.0417 24.9994 26.0417C23.618 26.0417 22.2933 25.4929 21.3165 24.5162C20.3398 23.5394 19.791 22.2147 19.791 20.8333C19.791 19.452 20.3398 18.1272 21.3165 17.1505C22.2933 16.1737 23.618 15.625 24.9994 15.625C26.3807 15.625 27.7054 16.1737 28.6822 17.1505C29.659 18.1272 30.2077 19.452 30.2077 20.8333Z" fill="#232735"/>
</svg>
